<?xml version="1.0" encoding="UTF-8" standalone="no"?>
<!DOCTYPE svg PUBLIC "-//W3C//DTD SVG 1.1//EN"
 "http://www.w3.org/Graphics/SVG/1.1/DTD/svg11.dtd">
<!-- Generated by graphviz version 2.43.0 (0)
 -->
<!-- Title: Perl Pages: 1 -->
<svg width="206pt" height="164pt"
 viewBox="9.00 9.00 197.00 154.70" xmlns="http://www.w3.org/2000/svg" xmlns:xlink="http://www.w3.org/1999/xlink">
<g id="graph0" class="graph" transform="scale(1 1) rotate(-90) translate(-150.7 193)">
<title>Perl</title>
<polygon fill="white" stroke="transparent" points="-4,4 -4,-184 141.7,-184 141.7,4 -4,4"/>
<!-- Here -->
<g id="node1" class="node">
<title>Here</title>
<ellipse fill="none" stroke="black" cx="70.7" cy="-162" rx="34" ry="18"/>
<text text-anchor="middle" x="70.7" y="-158.3" font-family="Times,serif" font-size="14.00">Here</text>
</g>
<!-- There -->
<g id="node2" class="node">
<title>There</title>
<ellipse fill="none" stroke="black" cx="37.7" cy="-90" rx="37.89" ry="18"/>
<text text-anchor="middle" x="37.7" y="-86.3" font-family="Times,serif" font-size="14.00">There</text>
</g>
<!-- Here&#45;&gt;There -->
<g id="edge1" class="edge">
<title>Here&#45;&gt;There</title>
<path fill="none" stroke="grey" d="M62.88,-144.41C59.03,-136.25 54.3,-126.22 49.98,-117.07"/>
<polygon fill="grey" stroke="grey" points="53.12,-115.51 45.69,-107.96 46.79,-118.49 53.12,-115.51"/>
</g>
<!-- Everywhere -->
<g id="node3" class="node">
<title>Everywhere</title>
<ellipse fill="none" stroke="black" cx="70.7" cy="-18" rx="67" ry="18"/>
<text text-anchor="middle" x="70.7" y="-14.3" font-family="Times,serif" font-size="14.00">Everywhere</text>
</g>
<!-- There&#45;&gt;Everywhere -->
<g id="edge2" class="edge">
<title>There&#45;&gt;Everywhere</title>
<path fill="none" stroke="grey" d="M45.69,-72.05C49.44,-64.09 54,-54.41 58.2,-45.51"/>
<polygon fill="grey" stroke="grey" points="61.45,-46.81 62.55,-36.28 55.12,-43.83 61.45,-46.81"/>
</g>
<!-- Everywhere&#45;&gt;Here -->
<g id="edge3" class="edge">
<title>Everywhere&#45;&gt;Here</title>
<path fill="none" stroke="grey" d="M76.37,-35.96C79.52,-46.26 83.1,-59.73 84.7,-72 86.76,-87.87 86.76,-92.13 84.7,-108 83.56,-116.72 81.42,-126.05 79.15,-134.42"/>
<polygon fill="grey" stroke="grey" points="75.79,-133.46 76.37,-144.04 82.51,-135.4 75.79,-133.46"/>
</g>
</g>
</svg>
