<?xml version="1.0" encoding="UTF-8" standalone="no"?>
<!DOCTYPE svg PUBLIC "-//W3C//DTD SVG 1.1//EN"
 "http://www.w3.org/Graphics/SVG/1.1/DTD/svg11.dtd">
<!-- Generated by graphviz version 2.43.0 (0)
 -->
<!-- Title: Perl Pages: 1 -->
<svg width="767pt" height="204pt"
 viewBox="0.00 0.00 767.04 203.74" xmlns="http://www.w3.org/2000/svg" xmlns:xlink="http://www.w3.org/1999/xlink">
<g id="graph0" class="graph" transform="scale(1 1) rotate(0) translate(4 199.74)">
<title>Perl</title>
<polygon fill="white" stroke="transparent" points="-4,4 -4,-199.74 763.04,-199.74 763.04,4 -4,4"/>
<g id="clust1" class="cluster">
<title>cluster_Europe</title>
<polygon fill="grey" stroke="black" points="8,-8 8,-187.74 114,-187.74 114,-8 8,-8"/>
<text text-anchor="middle" x="61" y="-172.54" font-family="Times,serif" font-size="14.00">Europe</text>
</g>
<g id="clust2" class="cluster">
<title>cluster_Australia</title>
<polygon fill="grey" stroke="black" points="245,-16.87 245,-187.74 573,-187.74 573,-16.87 245,-16.87"/>
<text text-anchor="middle" x="409" y="-172.54" font-family="Times,serif" font-size="14.00">Australia</text>
</g>
<!-- London -->
<g id="node1" class="node">
<title>London</title>
<ellipse fill="none" stroke="blue" cx="61" cy="-138.74" rx="44.69" ry="18"/>
<text text-anchor="middle" x="61" y="-135.04" font-family="Times,serif" font-size="14.00">London</text>
</g>
<!-- Paris -->
<g id="node2" class="node">
<title>Paris</title>
<ellipse fill="none" stroke="green" cx="61" cy="-42.87" rx="45.01" ry="26.74"/>
<text text-anchor="middle" x="61" y="-46.67" font-family="Times,serif" font-size="14.00">City of</text>
<text text-anchor="middle" x="61" y="-31.67" font-family="Times,serif" font-size="14.00">lurve</text>
</g>
<!-- London&#45;&gt;Paris -->
<g id="edge1" class="edge">
<title>London&#45;&gt;Paris</title>
<path fill="none" stroke="grey" d="M55.64,-120.52C54.4,-109.22 53.99,-94.01 54.41,-80.12"/>
<polygon fill="grey" stroke="grey" points="57.92,-79.99 54.89,-69.84 50.93,-79.66 57.92,-79.99"/>
</g>
<!-- New York -->
<g id="node3" class="node">
<title>New York</title>
<ellipse fill="none" stroke="yellow" cx="179" cy="-42.87" rx="55.49" ry="18"/>
<text text-anchor="middle" x="179" y="-39.17" font-family="Times,serif" font-size="14.00">New York</text>
</g>
<!-- London&#45;&gt;New York -->
<g id="edge3" class="edge">
<title>London&#45;&gt;New York</title>
<path fill="none" stroke="grey" d="M80.22,-122.45C99.45,-107.16 129.22,-83.47 151.06,-66.1"/>
<polygon fill="grey" stroke="grey" points="153.35,-68.75 159,-59.78 148.99,-63.27 153.35,-68.75"/>
<text text-anchor="middle" x="136.5" y="-91.54" font-family="Times,serif" font-size="14.00">Far</text>
</g>
<!-- Paris&#45;&gt;London -->
<g id="edge2" class="edge">
<title>Paris&#45;&gt;London</title>
<path fill="none" stroke="grey" d="M67.11,-69.84C67.93,-82.47 67.96,-97.64 67.2,-110.44"/>
<polygon fill="grey" stroke="grey" points="63.7,-110.27 66.36,-120.52 70.67,-110.84 63.7,-110.27"/>
</g>
<!-- Victoria -->
<g id="node4" class="node">
<title>Victoria</title>
<ellipse fill="none" stroke="blue" cx="427" cy="-138.74" rx="46.59" ry="18"/>
<text text-anchor="middle" x="427" y="-135.04" font-family="Times,serif" font-size="14.00">Victoria</text>
</g>
<!-- New South Wales -->
<g id="node5" class="node">
<title>New South Wales</title>
<ellipse fill="none" stroke="green" cx="345" cy="-42.87" rx="92.08" ry="18"/>
<text text-anchor="middle" x="345" y="-39.17" font-family="Times,serif" font-size="14.00">New South Wales</text>
</g>
<!-- Victoria&#45;&gt;New South Wales -->
<g id="edge4" class="edge">
<title>Victoria&#45;&gt;New South Wales</title>
<path fill="none" stroke="grey" d="M412.72,-121.39C399.94,-106.76 381.03,-85.12 366.44,-68.42"/>
<polygon fill="grey" stroke="grey" points="368.89,-65.89 359.67,-60.67 363.61,-70.5 368.89,-65.89"/>
</g>
<!-- Tasmania -->
<g id="node6" class="node">
<title>Tasmania</title>
<ellipse fill="none" stroke="red" cx="510" cy="-42.87" rx="54.69" ry="18"/>
<text text-anchor="middle" x="510" y="-39.17" font-family="Times,serif" font-size="14.00">Tasmania</text>
</g>
<!-- Victoria&#45;&gt;Tasmania -->
<g id="edge5" class="edge">
<title>Victoria&#45;&gt;Tasmania</title>
<path fill="none" stroke="grey" d="M441.46,-121.39C454.47,-106.67 473.76,-84.85 488.57,-68.11"/>
<polygon fill="grey" stroke="grey" points="491.43,-70.16 495.43,-60.35 486.18,-65.52 491.43,-70.16"/>
</g>
<!-- cluster_Australia -->
<g id="node7" class="node">
<title>cluster_Australia</title>
<ellipse fill="none" stroke="black" cx="670" cy="-138.74" rx="89.08" ry="18"/>
<text text-anchor="middle" x="670" y="-135.04" font-family="Times,serif" font-size="14.00">cluster_Australia</text>
</g>
<!-- cluster_Europe -->
<g id="node8" class="node">
<title>cluster_Europe</title>
<ellipse fill="none" stroke="black" cx="670" cy="-42.87" rx="81.49" ry="18"/>
<text text-anchor="middle" x="670" y="-39.17" font-family="Times,serif" font-size="14.00">cluster_Europe</text>
</g>
<!-- cluster_Australia&#45;&gt;cluster_Europe -->
<g id="edge6" class="edge">
<title>cluster_Australia&#45;&gt;cluster_Europe</title>
<path fill="none" stroke="grey" d="M670,-120.52C670,-106.76 670,-87.21 670,-71.3"/>
<polygon fill="grey" stroke="grey" points="673.5,-70.98 670,-60.98 666.5,-70.98 673.5,-70.98"/>
</g>
</g>
</svg>
