<?xml version="1.0" encoding="UTF-8" standalone="no"?>
<!DOCTYPE svg PUBLIC "-//W3C//DTD SVG 1.1//EN"
 "http://www.w3.org/Graphics/SVG/1.1/DTD/svg11.dtd">
<!-- Generated by graphviz version 2.43.0 (0)
 -->
<!-- Title: Perl Pages: 1 -->
<svg width="543pt" height="446pt"
 viewBox="0.00 0.00 542.65 445.98" xmlns="http://www.w3.org/2000/svg" xmlns:xlink="http://www.w3.org/1999/xlink">
<g id="graph0" class="graph" transform="scale(1 1) rotate(0) translate(4 441.98)">
<title>Perl</title>
<polygon fill="white" stroke="transparent" points="-4,4 -4,-441.98 538.65,-441.98 538.65,4 -4,4"/>
<text text-anchor="middle" x="267.32" y="-7.8" font-family="Times,serif" font-size="14.00">sub.graph.pl</text>
<g id="clust1" class="cluster">
<title>cluster_1</title>
<polygon fill="none" stroke="black" points="358.65,-219.63 358.65,-429.98 526.65,-429.98 526.65,-219.63 358.65,-219.63"/>
<text text-anchor="middle" x="442.65" y="-414.78" font-family="Times,serif" font-size="14.00">Child</text>
</g>
<!-- Carnegie -->
<g id="node1" class="node">
<title>Carnegie</title>
<ellipse fill="none" stroke="black" cx="52.65" cy="-75.65" rx="52.79" ry="52.79"/>
<text text-anchor="middle" x="52.65" y="-71.95" font-family="Times,serif" font-size="14.00">Carnegie</text>
</g>
<!-- Murrumbeena -->
<g id="node2" class="node">
<title>Murrumbeena</title>
<ellipse fill="none" stroke="green" cx="113.65" cy="-245.63" rx="77.19" ry="77.19"/>
<ellipse fill="none" stroke="green" cx="113.65" cy="-245.63" rx="81.19" ry="81.19"/>
<text text-anchor="middle" x="113.65" y="-241.93" font-family="Times,serif" font-size="14.00">Murrumbeena</text>
</g>
<!-- Murrumbeena&#45;&gt;Carnegie -->
<g id="edge1" class="edge">
<title>Murrumbeena&#45;&gt;Carnegie</title>
<path fill="none" stroke="grey" d="M86.18,-168.99C83.2,-160.78 80.18,-152.46 77.23,-144.35"/>
<polygon fill="grey" stroke="grey" points="83.75,-141.8 70.35,-125.39 70.59,-146.58 83.75,-141.8"/>
</g>
<!-- Oakleigh -->
<g id="node3" class="node">
<title>Oakleigh</title>
<ellipse fill="none" stroke="blue" cx="175.65" cy="-75.65" rx="51.99" ry="18"/>
<text text-anchor="middle" x="175.65" y="-71.95" font-family="Times,serif" font-size="14.00">Oakleigh</text>
</g>
<!-- Murrumbeena&#45;&gt;Oakleigh -->
<g id="edge2" class="edge">
<title>Murrumbeena&#45;&gt;Oakleigh</title>
<path fill="none" stroke="brown" d="M141.56,-168.99C150.25,-145.44 159.27,-121.01 165.85,-103.19"/>
<polygon fill="brown" stroke="brown" points="169.14,-104.37 169.32,-93.77 162.58,-101.94 169.14,-104.37"/>
</g>
<!-- Chadstone -->
<g id="node4" class="node">
<title>Chadstone</title>
<polygon fill="none" stroke="magenta" points="511.74,-380.98 477.19,-398.98 408.1,-398.98 373.56,-380.98 408.1,-362.98 477.19,-362.98 511.74,-380.98"/>
<text text-anchor="middle" x="442.65" y="-377.28" font-family="Times,serif" font-size="14.00">Chadstone</text>
</g>
<!-- Waverley -->
<g id="node5" class="node">
<title>Waverley</title>
<polygon fill="none" stroke="orange" points="442.65,-263.63 366.56,-245.63 442.65,-227.63 518.73,-245.63 442.65,-263.63"/>
<text text-anchor="middle" x="442.65" y="-241.93" font-family="Times,serif" font-size="14.00">Waverley</text>
</g>
<!-- Chadstone&#45;&gt;Waverley -->
<g id="edge3" class="edge">
<title>Chadstone&#45;&gt;Waverley</title>
<path fill="none" stroke="grey" d="M442.65,-362.82C442.65,-340.31 442.65,-300.57 442.65,-273.92"/>
<polygon fill="grey" stroke="grey" points="446.15,-273.73 442.65,-263.73 439.15,-273.73 446.15,-273.73"/>
</g>
<!-- Malvern -->
<g id="node6" class="node">
<title>Malvern</title>
<polygon fill="none" stroke="cyan" points="196.65,-398.98 126.93,-380.98 196.65,-362.98 266.36,-380.98 196.65,-398.98"/>
<text text-anchor="middle" x="196.65" y="-377.28" font-family="Times,serif" font-size="14.00">Malvern</text>
</g>
<!-- Malvern&#45;&gt;Murrumbeena -->
<g id="edge5" class="edge">
<title>Malvern&#45;&gt;Murrumbeena</title>
<path fill="none" stroke="grey" d="M187.45,-365.2C180.93,-354.73 171.63,-339.79 161.82,-324.03"/>
<polygon fill="grey" stroke="grey" points="164.59,-321.85 156.33,-315.21 158.65,-325.55 164.59,-321.85"/>
</g>
<!-- Prahran -->
<g id="node7" class="node">
<title>Prahran</title>
<polygon fill="none" stroke="cyan" points="320.38,-263.63 240.91,-263.63 212.61,-227.63 348.68,-227.63 320.38,-263.63"/>
<text text-anchor="middle" x="280.65" y="-241.93" font-family="Times,serif" font-size="14.00">Prahran</text>
</g>
<!-- Malvern&#45;&gt;Prahran -->
<g id="edge4" class="edge">
<title>Malvern&#45;&gt;Prahran</title>
<path fill="none" stroke="grey" d="M205.96,-365.2C220,-342.9 246.81,-300.34 264.2,-272.74"/>
<polygon fill="grey" stroke="grey" points="267.33,-274.33 269.7,-264 261.41,-270.6 267.33,-274.33"/>
</g>
</g>
</svg>
