<?xml version="1.0" encoding="UTF-8" standalone="no"?>
<!DOCTYPE svg PUBLIC "-//W3C//DTD SVG 1.1//EN"
 "http://www.w3.org/Graphics/SVG/1.1/DTD/svg11.dtd">
<!-- Generated by graphviz version 2.43.0 (0)
 -->
<!-- Title: Perl Pages: 1 -->
<svg width="420pt" height="174pt"
 viewBox="0.00 0.00 420.00 174.00" xmlns="http://www.w3.org/2000/svg" xmlns:xlink="http://www.w3.org/1999/xlink">
<g id="graph0" class="graph" transform="scale(1 1) rotate(0) translate(4 170)">
<title>Perl</title>
<polygon fill="white" stroke="transparent" points="-4,4 -4,-170 416,-170 416,4 -4,4"/>
<text text-anchor="middle" x="206" y="-7.8" font-family="Times,serif" font-size="14.00">Record demo 1 &#45; Nested records using strings as labels</text>
<!-- struct1::x -->
<g id="node1" class="node">
<title>struct1::x</title>
<polygon fill="none" stroke="black" points="64.25,-129.5 64.25,-165.5 227.25,-165.5 227.25,-129.5 64.25,-129.5"/>
<text text-anchor="middle" x="84.75" y="-143.8" font-family="Times,serif" font-size="14.00">left</text>
<polyline fill="none" stroke="black" points="105.25,-129.5 105.25,-165.5 "/>
<text text-anchor="middle" x="140.25" y="-143.8" font-family="Times,serif" font-size="14.00">mid dle</text>
<polyline fill="none" stroke="black" points="175.25,-129.5 175.25,-165.5 "/>
<text text-anchor="middle" x="201.25" y="-143.8" font-family="Times,serif" font-size="14.00">right</text>
</g>
<!-- struct2 -->
<g id="node2" class="node">
<title>struct2</title>
<polygon fill="none" stroke="black" points="62.25,-40 62.25,-76 147.25,-76 147.25,-40 62.25,-40"/>
<text text-anchor="middle" x="83.25" y="-54.3" font-family="Times,serif" font-size="14.00">one</text>
<polyline fill="none" stroke="black" points="104.25,-40 104.25,-76 "/>
<text text-anchor="middle" x="125.75" y="-54.3" font-family="Times,serif" font-size="14.00">two</text>
</g>
<!-- struct1::x&#45;&gt;struct2 -->
<g id="edge1" class="edge">
<title>struct1::x:f1&#45;&gt;struct2:f0</title>
<path fill="none" stroke="blue" d="M139.75,-129C139.75,-98.59 94.93,-108.19 84.78,-86.84"/>
<polygon fill="blue" stroke="blue" points="88.2,-86.09 82.75,-77 81.34,-87.5 88.2,-86.09"/>
</g>
<!-- struct3 -->
<g id="node3" class="node">
<title>struct3</title>
<polygon fill="none" stroke="black" points="165.75,-23.5 165.75,-92.5 349.75,-92.5 349.75,-23.5 165.75,-23.5"/>
<text text-anchor="middle" x="194.25" y="-61.8" font-family="Times,serif" font-size="14.00">hello</text>
<text text-anchor="middle" x="194.25" y="-46.8" font-family="Times,serif" font-size="14.00">world</text>
<polyline fill="none" stroke="black" points="222.75,-23.5 222.75,-92.5 "/>
<text text-anchor="middle" x="260.25" y="-77.3" font-family="Times,serif" font-size="14.00">b</text>
<polyline fill="none" stroke="black" points="222.75,-69.5 297.75,-69.5 "/>
<text text-anchor="middle" x="234.75" y="-54.3" font-family="Times,serif" font-size="14.00">c</text>
<polyline fill="none" stroke="black" points="246.75,-46.5 246.75,-69.5 "/>
<text text-anchor="middle" x="259.75" y="-54.3" font-family="Times,serif" font-size="14.00">d</text>
<polyline fill="none" stroke="black" points="272.75,-46.5 272.75,-69.5 "/>
<text text-anchor="middle" x="285.25" y="-54.3" font-family="Times,serif" font-size="14.00">e</text>
<polyline fill="none" stroke="black" points="222.75,-46.5 297.75,-46.5 "/>
<text text-anchor="middle" x="260.25" y="-31.3" font-family="Times,serif" font-size="14.00">f</text>
<polyline fill="none" stroke="black" points="297.75,-23.5 297.75,-92.5 "/>
<text text-anchor="middle" x="310.75" y="-54.3" font-family="Times,serif" font-size="14.00">g</text>
<polyline fill="none" stroke="black" points="323.75,-23.5 323.75,-92.5 "/>
<text text-anchor="middle" x="336.75" y="-54.3" font-family="Times,serif" font-size="14.00">h</text>
</g>
<!-- struct1::x&#45;&gt;struct3 -->
<g id="edge2" class="edge">
<title>struct1::x:f2&#45;&gt;struct3:here</title>
<path fill="none" stroke="red" d="M201.75,-129C201.75,-116.65 223.07,-93.17 239.86,-76.6"/>
<polygon fill="red" stroke="red" points="242.41,-79.01 247.16,-69.54 237.54,-73.98 242.41,-79.01"/>
</g>
</g>
</svg>
