<?xml version="1.0" encoding="UTF-8" standalone="no"?>
<!DOCTYPE svg PUBLIC "-//W3C//DTD SVG 1.1//EN"
 "http://www.w3.org/Graphics/SVG/1.1/DTD/svg11.dtd">
<!-- Generated by graphviz version 2.43.0 (0)
 -->
<!-- Title: Perl Pages: 1 -->
<svg width="402pt" height="194pt"
 viewBox="0.00 0.00 402.00 194.00" xmlns="http://www.w3.org/2000/svg" xmlns:xlink="http://www.w3.org/1999/xlink">
<g id="graph0" class="graph" transform="scale(1 1) rotate(0) translate(4 190)">
<title>Perl</title>
<polygon fill="white" stroke="transparent" points="-4,4 -4,-190 398,-190 398,4 -4,4"/>
<text text-anchor="middle" x="197" y="-7.8" font-family="Times,serif" font-size="14.00">Macro demo 3 &#45; Cluster sub&#45;graphs</text>
<g id="clust1" class="cluster">
<title>cluster 1</title>
<polygon fill="none" stroke="black" points="8,-31 8,-178 176,-178 176,-31 8,-31"/>
<text text-anchor="middle" x="92" y="-162.8" font-family="Times,serif" font-size="14.00">cluster 1</text>
</g>
<g id="clust2" class="cluster">
<title>cluster 2</title>
<polygon fill="none" stroke="black" points="184,-31 184,-178 386,-178 386,-31 184,-31"/>
<text text-anchor="middle" x="285" y="-162.8" font-family="Times,serif" font-size="14.00">cluster 2</text>
</g>
<!-- Chadstone -->
<g id="node1" class="node">
<title>Chadstone</title>
<polygon fill="none" stroke="magenta" points="161.09,-129 126.54,-147 57.46,-147 22.91,-129 57.46,-111 126.54,-111 161.09,-129"/>
<text text-anchor="middle" x="92" y="-125.3" font-family="Times,serif" font-size="14.00">Chadstone</text>
</g>
<!-- Waverley -->
<g id="node2" class="node">
<title>Waverley</title>
<polygon fill="none" stroke="orange" points="92,-75 15.92,-57 92,-39 168.08,-57 92,-75"/>
<text text-anchor="middle" x="92" y="-53.3" font-family="Times,serif" font-size="14.00">Waverley</text>
</g>
<!-- Chadstone&#45;&gt;Waverley -->
<g id="edge1" class="edge">
<title>Chadstone&#45;&gt;Waverley</title>
<path fill="none" stroke="grey" d="M92,-110.7C92,-102.98 92,-93.71 92,-85.11"/>
<polygon fill="grey" stroke="grey" points="95.5,-85.1 92,-75.1 88.5,-85.1 95.5,-85.1"/>
</g>
<!-- Hughesdale -->
<g id="node3" class="node">
<title>Hughesdale</title>
<polygon fill="none" stroke="magenta" points="360.6,-129 322.8,-147 247.2,-147 209.4,-129 247.2,-111 322.8,-111 360.6,-129"/>
<text text-anchor="middle" x="285" y="-125.3" font-family="Times,serif" font-size="14.00">Hughesdale</text>
</g>
<!-- Notting Hill -->
<g id="node4" class="node">
<title>Notting Hill</title>
<polygon fill="none" stroke="orange" points="285,-75 192.33,-57 285,-39 377.67,-57 285,-75"/>
<text text-anchor="middle" x="285" y="-53.3" font-family="Times,serif" font-size="14.00">Notting Hill</text>
</g>
<!-- Hughesdale&#45;&gt;Notting Hill -->
<g id="edge2" class="edge">
<title>Hughesdale&#45;&gt;Notting Hill</title>
<path fill="none" stroke="grey" d="M285,-110.7C285,-102.98 285,-93.71 285,-85.11"/>
<polygon fill="grey" stroke="grey" points="288.5,-85.1 285,-75.1 281.5,-85.1 288.5,-85.1"/>
</g>
</g>
</svg>
