<?xml version="1.0" encoding="UTF-8" standalone="no"?>
<!DOCTYPE svg PUBLIC "-//W3C//DTD SVG 1.1//EN"
 "http://www.w3.org/Graphics/SVG/1.1/DTD/svg11.dtd">
<!-- Generated by graphviz version 2.43.0 (0)
 -->
<!-- Title: Perl Pages: 1 -->
<svg width="289pt" height="501pt"
 viewBox="0.00 0.00 289.00 501.00" xmlns="http://www.w3.org/2000/svg" xmlns:xlink="http://www.w3.org/1999/xlink">
<g id="graph0" class="graph" transform="scale(1 1) rotate(0) translate(4 497)">
<title>Perl</title>
<polygon fill="white" stroke="transparent" points="-4,4 -4,-497 285,-497 285,4 -4,4"/>
<!-- $start -->
<g id="node1" class="node">
<title>$start</title>
<path fill="none" stroke="blue" d="M12,-456.5C12,-456.5 142,-456.5 142,-456.5 148,-456.5 154,-462.5 154,-468.5 154,-468.5 154,-480.5 154,-480.5 154,-486.5 148,-492.5 142,-492.5 142,-492.5 12,-492.5 12,-492.5 6,-492.5 0,-486.5 0,-480.5 0,-480.5 0,-468.5 0,-468.5 0,-462.5 6,-456.5 12,-456.5"/>
<text text-anchor="middle" x="30" y="-470.8" font-family="Times,serif" font-size="14.00">$start</text>
<polyline fill="none" stroke="blue" points="60,-456.5 60,-492.5 "/>
<text text-anchor="start" x="68" y="-470.8" font-family="Times,serif" font-size="14.00">input $end</text>
</g>
<!-- input -->
<g id="node2" class="node">
<title>input</title>
<path fill="none" stroke="blue" d="M62.5,-373.5C62.5,-373.5 177.5,-373.5 177.5,-373.5 183.5,-373.5 189.5,-379.5 189.5,-385.5 189.5,-385.5 189.5,-407.5 189.5,-407.5 189.5,-413.5 183.5,-419.5 177.5,-419.5 177.5,-419.5 62.5,-419.5 62.5,-419.5 56.5,-419.5 50.5,-413.5 50.5,-407.5 50.5,-407.5 50.5,-385.5 50.5,-385.5 50.5,-379.5 56.5,-373.5 62.5,-373.5"/>
<text text-anchor="middle" x="77.5" y="-392.8" font-family="Times,serif" font-size="14.00">input</text>
<polyline fill="none" stroke="blue" points="104.5,-373.5 104.5,-419.5 "/>
<text text-anchor="start" x="112.5" y="-404.3" font-family="Times,serif" font-size="14.00">(empty)</text>
<polyline fill="none" stroke="blue" points="104.5,-396.5 189.5,-396.5 "/>
<text text-anchor="start" x="112.5" y="-381.3" font-family="Times,serif" font-size="14.00">input line</text>
</g>
<!-- $start&#45;&gt;input -->
<g id="edge1" class="edge">
<title>$start&#45;&gt;input:port1</title>
<path fill="none" stroke="grey" d="M77,-456.15C77,-448.55 77,-439.28 77,-430.15"/>
<polygon fill="grey" stroke="grey" points="80.5,-430 77,-420 73.5,-430 80.5,-430"/>
</g>
<!-- input&#45;&gt;input -->
<g id="edge3" class="edge">
<title>input&#45;&gt;input:port1</title>
<path fill="none" stroke="grey" d="M50.33,-409.84C39.71,-407.8 32.5,-403.36 32.5,-396.5 32.5,-388.69 34.96,-384.01 39.78,-382.46"/>
<polygon fill="grey" stroke="grey" points="39.99,-385.96 50.1,-382.79 40.22,-378.97 39.99,-385.96"/>
</g>
<!-- line -->
<g id="node4" class="node">
<title>line</title>
<path fill="none" stroke="blue" d="M111,-267.5C111,-267.5 209,-267.5 209,-267.5 215,-267.5 221,-273.5 221,-279.5 221,-279.5 221,-324.5 221,-324.5 221,-330.5 215,-336.5 209,-336.5 209,-336.5 111,-336.5 111,-336.5 105,-336.5 99,-330.5 99,-324.5 99,-324.5 99,-279.5 99,-279.5 99,-273.5 105,-267.5 111,-267.5"/>
<text text-anchor="middle" x="120.5" y="-298.3" font-family="Times,serif" font-size="14.00">line</text>
<polyline fill="none" stroke="blue" points="142,-267.5 142,-336.5 "/>
<text text-anchor="start" x="150" y="-321.3" font-family="Times,serif" font-size="14.00">&#39;\n&#39;</text>
<polyline fill="none" stroke="blue" points="142,-313.5 221,-313.5 "/>
<text text-anchor="start" x="150" y="-298.3" font-family="Times,serif" font-size="14.00">exp &#39;\n&#39;</text>
<polyline fill="none" stroke="blue" points="142,-290.5 221,-290.5 "/>
<text text-anchor="start" x="150" y="-275.3" font-family="Times,serif" font-size="14.00">error &#39;\n&#39;</text>
</g>
<!-- input&#45;&gt;line -->
<g id="edge4" class="edge">
<title>input&#45;&gt;line:port1</title>
<path fill="none" stroke="grey" d="M120,-373.28C120,-365.34 120,-356.11 120,-347.06"/>
<polygon fill="grey" stroke="grey" points="123.5,-347 120,-337 116.5,-347 123.5,-347"/>
</g>
<!-- exp -->
<g id="node3" class="node">
<title>exp</title>
<path fill="none" stroke="blue" d="M151,-0.5C151,-0.5 269,-0.5 269,-0.5 275,-0.5 281,-6.5 281,-12.5 281,-12.5 281,-218.5 281,-218.5 281,-224.5 275,-230.5 269,-230.5 269,-230.5 151,-230.5 151,-230.5 145,-230.5 139,-224.5 139,-218.5 139,-218.5 139,-12.5 139,-12.5 139,-6.5 145,-0.5 151,-0.5"/>
<text text-anchor="middle" x="160" y="-111.8" font-family="Times,serif" font-size="14.00">exp</text>
<polyline fill="none" stroke="blue" points="181,-0.5 181,-230.5 "/>
<text text-anchor="start" x="189" y="-215.3" font-family="Times,serif" font-size="14.00">NUM</text>
<polyline fill="none" stroke="blue" points="181,-207.5 281,-207.5 "/>
<text text-anchor="start" x="189" y="-192.3" font-family="Times,serif" font-size="14.00">VAR</text>
<polyline fill="none" stroke="blue" points="181,-184.5 281,-184.5 "/>
<text text-anchor="start" x="189" y="-169.3" font-family="Times,serif" font-size="14.00">VAR &#39;=&#39; exp</text>
<polyline fill="none" stroke="blue" points="181,-161.5 281,-161.5 "/>
<text text-anchor="start" x="189" y="-146.3" font-family="Times,serif" font-size="14.00">exp &#39;+&#39; exp</text>
<polyline fill="none" stroke="blue" points="181,-138.5 281,-138.5 "/>
<text text-anchor="start" x="189" y="-123.3" font-family="Times,serif" font-size="14.00">exp &#39;&#45;&#39; exp</text>
<polyline fill="none" stroke="blue" points="181,-115.5 281,-115.5 "/>
<text text-anchor="start" x="189" y="-100.3" font-family="Times,serif" font-size="14.00">exp &#39;*&#39; exp</text>
<polyline fill="none" stroke="blue" points="181,-92.5 281,-92.5 "/>
<text text-anchor="start" x="189" y="-77.3" font-family="Times,serif" font-size="14.00">exp &#39;/&#39; exp</text>
<polyline fill="none" stroke="blue" points="181,-69.5 281,-69.5 "/>
<text text-anchor="start" x="189" y="-54.3" font-family="Times,serif" font-size="14.00">&#39;&#45;&#39; exp</text>
<polyline fill="none" stroke="blue" points="181,-46.5 281,-46.5 "/>
<text text-anchor="start" x="189" y="-31.3" font-family="Times,serif" font-size="14.00">exp &#39;^&#39; exp</text>
<polyline fill="none" stroke="blue" points="181,-23.5 281,-23.5 "/>
<text text-anchor="start" x="189" y="-8.3" font-family="Times,serif" font-size="14.00">&#39;(&#39; exp &#39;)&#39;</text>
</g>
<!-- exp&#45;&gt;exp -->
<g id="edge2" class="edge">
<title>exp&#45;&gt;exp:port1</title>
<path fill="none" stroke="grey" d="M138.77,-147.14C128.17,-142.21 121,-131.67 121,-115.5 121,-92.52 123.93,-80.9 130.15,-80.63"/>
<polygon fill="grey" stroke="grey" points="128.55,-83.74 138.99,-85.53 131.94,-77.62 128.55,-83.74"/>
</g>
<!-- line&#45;&gt;exp -->
<g id="edge5" class="edge">
<title>line&#45;&gt;exp:port1</title>
<path fill="none" stroke="grey" d="M160,-267.18C160,-258.92 160,-249.93 160,-241.15"/>
<polygon fill="grey" stroke="grey" points="163.5,-241 160,-231 156.5,-241 163.5,-241"/>
</g>
</g>
</svg>
