<?xml version="1.0" encoding="UTF-8" standalone="no"?>
<!DOCTYPE svg PUBLIC "-//W3C//DTD SVG 1.1//EN"
 "http://www.w3.org/Graphics/SVG/1.1/DTD/svg11.dtd">
<!-- Generated by graphviz version 2.43.0 (0)
 -->
<!-- Title: Perl Pages: 1 -->
<svg width="444pt" height="78pt"
 viewBox="0.00 0.00 444.00 78.00" xmlns="http://www.w3.org/2000/svg" xmlns:xlink="http://www.w3.org/1999/xlink">
<g id="graph0" class="graph" transform="scale(1 1) rotate(0) translate(4 74)">
<title>Perl</title>
<polygon fill="white" stroke="transparent" points="-4,4 -4,-74 440,-74 440,4 -4,4"/>
<text text-anchor="middle" x="218" y="-7.8" font-family="Times,serif" font-size="14.00">Record demo 4 &#45; Set record shapes in various ways</text>
<!-- One -->
<g id="node1" class="node">
<title>One</title>
<path fill="none" stroke="magenta" d="M12,-28.5C12,-28.5 42,-28.5 42,-28.5 48,-28.5 54,-34.5 54,-40.5 54,-40.5 54,-52.5 54,-52.5 54,-58.5 48,-64.5 42,-64.5 42,-64.5 12,-64.5 12,-64.5 6,-64.5 0,-58.5 0,-52.5 0,-52.5 0,-40.5 0,-40.5 0,-34.5 6,-28.5 12,-28.5"/>
<text text-anchor="middle" x="27" y="-42.8" font-family="Times,serif" font-size="14.00"> </text>
</g>
<!-- Two -->
<g id="node2" class="node">
<title>Two</title>
<path fill="none" stroke="magenta" d="M84.5,-28.5C84.5,-28.5 161.5,-28.5 161.5,-28.5 167.5,-28.5 173.5,-34.5 173.5,-40.5 173.5,-40.5 173.5,-52.5 173.5,-52.5 173.5,-58.5 167.5,-64.5 161.5,-64.5 161.5,-64.5 84.5,-64.5 84.5,-64.5 78.5,-64.5 72.5,-58.5 72.5,-52.5 72.5,-52.5 72.5,-40.5 72.5,-40.5 72.5,-34.5 78.5,-28.5 84.5,-28.5"/>
<text text-anchor="middle" x="95" y="-42.8" font-family="Times,serif" font-size="14.00">Left</text>
<polyline fill="none" stroke="magenta" points="117.5,-28.5 117.5,-64.5 "/>
<text text-anchor="middle" x="145.5" y="-42.8" font-family="Times,serif" font-size="14.00">Right</text>
</g>
<!-- Three -->
<g id="node3" class="node">
<title>Three</title>
<polygon fill="none" stroke="black" points="191.5,-28.5 191.5,-64.5 288.5,-64.5 288.5,-28.5 191.5,-28.5"/>
<text text-anchor="middle" x="218" y="-42.8" font-family="Times,serif" font-size="14.00">Good</text>
<polyline fill="none" stroke="black" points="244.5,-28.5 244.5,-64.5 "/>
<text text-anchor="middle" x="266.5" y="-42.8" font-family="Times,serif" font-size="14.00">Bad</text>
</g>
<!-- Four -->
<g id="node4" class="node">
<title>Four</title>
<path fill="none" stroke="magenta" d="M318.5,-23.5C318.5,-23.5 351.5,-23.5 351.5,-23.5 357.5,-23.5 363.5,-29.5 363.5,-35.5 363.5,-35.5 363.5,-57.5 363.5,-57.5 363.5,-63.5 357.5,-69.5 351.5,-69.5 351.5,-69.5 318.5,-69.5 318.5,-69.5 312.5,-69.5 306.5,-63.5 306.5,-57.5 306.5,-57.5 306.5,-35.5 306.5,-35.5 306.5,-29.5 312.5,-23.5 318.5,-23.5"/>
<text text-anchor="middle" x="335" y="-54.3" font-family="Times,serif" font-size="14.00">Big</text>
<polyline fill="none" stroke="magenta" points="306.5,-46.5 363.5,-46.5 "/>
<text text-anchor="middle" x="335" y="-31.3" font-family="Times,serif" font-size="14.00">Small</text>
</g>
<!-- Five -->
<g id="node5" class="node">
<title>Five</title>
<polygon fill="none" stroke="magenta" points="382,-23.5 382,-69.5 436,-69.5 436,-23.5 382,-23.5"/>
<text text-anchor="middle" x="409" y="-54.3" font-family="Times,serif" font-size="14.00">Yin</text>
<polyline fill="none" stroke="magenta" points="382,-46.5 436,-46.5 "/>
<text text-anchor="middle" x="409" y="-31.3" font-family="Times,serif" font-size="14.00">Yang</text>
</g>
</g>
</svg>
