<?xml version="1.0" encoding="UTF-8" standalone="no"?>
<!DOCTYPE svg PUBLIC "-//W3C//DTD SVG 1.1//EN"
 "http://www.w3.org/Graphics/SVG/1.1/DTD/svg11.dtd">
<!-- Generated by graphviz version 2.43.0 (0)
 -->
<!-- Title: Perl Pages: 1 -->
<svg width="921pt" height="451pt"
 viewBox="0.00 0.00 920.65 450.98" xmlns="http://www.w3.org/2000/svg" xmlns:xlink="http://www.w3.org/1999/xlink">
<g id="graph0" class="graph" transform="scale(1 1) rotate(0) translate(4 446.98)">
<title>Perl</title>
<polygon fill="white" stroke="transparent" points="-4,4 -4,-446.98 916.65,-446.98 916.65,4 -4,4"/>
<text text-anchor="middle" x="456.32" y="-7.8" font-family="Times,serif" font-size="14.00">sub.sub.graph.pl</text>
<g id="clust2" class="cluster">
<title>cluster_2</title>
<polygon fill="none" stroke="black" points="540.65,-214.63 540.65,-434.98 904.65,-434.98 904.65,-214.63 540.65,-214.63"/>
<text text-anchor="middle" x="722.65" y="-419.78" font-family="Times,serif" font-size="14.00">Grandchild</text>
</g>
<!-- Carnegie -->
<g id="node1" class="node">
<title>Carnegie</title>
<ellipse fill="none" stroke="black" cx="52.65" cy="-75.65" rx="52.79" ry="52.79"/>
<text text-anchor="middle" x="52.65" y="-71.95" font-family="Times,serif" font-size="14.00">Carnegie</text>
</g>
<!-- Murrumbeena -->
<g id="node2" class="node">
<title>Murrumbeena</title>
<ellipse fill="none" stroke="green" cx="113.65" cy="-245.63" rx="77.19" ry="77.19"/>
<ellipse fill="none" stroke="green" cx="113.65" cy="-245.63" rx="81.19" ry="81.19"/>
<text text-anchor="middle" x="113.65" y="-241.93" font-family="Times,serif" font-size="14.00">Murrumbeena</text>
</g>
<!-- Murrumbeena&#45;&gt;Carnegie -->
<g id="edge1" class="edge">
<title>Murrumbeena&#45;&gt;Carnegie</title>
<path fill="none" stroke="grey" d="M86.18,-168.99C83.2,-160.78 80.18,-152.46 77.23,-144.35"/>
<polygon fill="grey" stroke="grey" points="83.75,-141.8 70.35,-125.39 70.59,-146.58 83.75,-141.8"/>
</g>
<!-- Oakleigh -->
<g id="node3" class="node">
<title>Oakleigh</title>
<ellipse fill="none" stroke="blue" cx="175.65" cy="-75.65" rx="51.99" ry="18"/>
<text text-anchor="middle" x="175.65" y="-71.95" font-family="Times,serif" font-size="14.00">Oakleigh</text>
</g>
<!-- Murrumbeena&#45;&gt;Oakleigh -->
<g id="edge2" class="edge">
<title>Murrumbeena&#45;&gt;Oakleigh</title>
<path fill="none" stroke="brown" d="M141.56,-168.99C150.25,-145.44 159.27,-121.01 165.85,-103.19"/>
<polygon fill="brown" stroke="brown" points="169.14,-104.37 169.32,-93.77 162.58,-101.94 169.14,-104.37"/>
</g>
<!-- Chadstone -->
<g id="node4" class="node">
<title>Chadstone</title>
<polygon fill="none" stroke="magenta" points="523.74,-385.98 489.19,-403.98 420.1,-403.98 385.56,-385.98 420.1,-367.98 489.19,-367.98 523.74,-385.98"/>
<text text-anchor="middle" x="454.65" y="-382.28" font-family="Times,serif" font-size="14.00">Chadstone</text>
</g>
<!-- Waverley -->
<g id="node5" class="node">
<title>Waverley</title>
<polygon fill="none" stroke="orange" points="454.65,-263.63 378.56,-245.63 454.65,-227.63 530.73,-245.63 454.65,-263.63"/>
<text text-anchor="middle" x="454.65" y="-241.93" font-family="Times,serif" font-size="14.00">Waverley</text>
</g>
<!-- Chadstone&#45;&gt;Waverley -->
<g id="edge3" class="edge">
<title>Chadstone&#45;&gt;Waverley</title>
<path fill="none" stroke="grey" d="M454.65,-367.74C454.65,-344.2 454.65,-301.78 454.65,-273.91"/>
<polygon fill="grey" stroke="grey" points="458.15,-273.66 454.65,-263.66 451.15,-273.66 458.15,-273.66"/>
</g>
<!-- Glen Waverley -->
<g id="node6" class="node">
<title>Glen Waverley</title>
<polygon fill="none" stroke="#0000cd" points="818.95,-391.54 722.65,-403.98 626.34,-391.54 663.12,-371.41 782.17,-371.41 818.95,-391.54"/>
<text text-anchor="middle" x="722.65" y="-382.28" font-family="Times,serif" font-size="14.00">Glen Waverley</text>
</g>
<!-- Mount Waverley -->
<g id="node7" class="node">
<title>Mount Waverley</title>
<polygon fill="none" stroke="darkslategrey" points="722.65,-268.63 548.28,-234.13 897.01,-234.13 722.65,-268.63"/>
<text text-anchor="middle" x="722.65" y="-241.93" font-family="Times,serif" font-size="14.00">Mount Waverley</text>
</g>
<!-- Glen Waverley&#45;&gt;Mount Waverley -->
<g id="edge4" class="edge">
<title>Glen Waverley&#45;&gt;Mount Waverley</title>
<path fill="none" stroke="grey" d="M722.65,-371.21C722.65,-349.9 722.65,-308.36 722.65,-279.13"/>
<polygon fill="grey" stroke="grey" points="726.15,-278.97 722.65,-268.97 719.15,-278.97 726.15,-278.97"/>
</g>
<!-- Malvern -->
<g id="node8" class="node">
<title>Malvern</title>
<polygon fill="none" stroke="cyan" points="191.65,-408.98 93.06,-374.48 290.23,-374.48 191.65,-408.98"/>
<text text-anchor="middle" x="191.65" y="-382.28" font-family="Times,serif" font-size="14.00">Malvern</text>
</g>
<!-- Malvern&#45;&gt;Murrumbeena -->
<g id="edge6" class="edge">
<title>Malvern&#45;&gt;Murrumbeena</title>
<path fill="none" stroke="grey" d="M185.52,-374.12C179.3,-363.07 169.04,-344.88 158.2,-325.65"/>
<polygon fill="grey" stroke="grey" points="161.15,-323.76 153.19,-316.77 155.05,-327.2 161.15,-323.76"/>
</g>
<!-- Prahran -->
<g id="node9" class="node">
<title>Prahran</title>
<polygon fill="none" stroke="cyan" points="320.38,-263.63 240.91,-263.63 212.61,-227.63 348.68,-227.63 320.38,-263.63"/>
<text text-anchor="middle" x="280.65" y="-241.93" font-family="Times,serif" font-size="14.00">Prahran</text>
</g>
<!-- Malvern&#45;&gt;Prahran -->
<g id="edge5" class="edge">
<title>Malvern&#45;&gt;Prahran</title>
<path fill="none" stroke="grey" d="M198.63,-374.12C212.65,-352.32 244.57,-302.71 264.2,-272.2"/>
<polygon fill="grey" stroke="grey" points="267.15,-274.07 269.62,-263.77 261.27,-270.29 267.15,-274.07"/>
</g>
</g>
</svg>
