<?xml version="1.0" encoding="UTF-8" standalone="no"?>
<!DOCTYPE svg PUBLIC "-//W3C//DTD SVG 1.1//EN"
 "http://www.w3.org/Graphics/SVG/1.1/DTD/svg11.dtd">
<!-- Generated by graphviz version 2.43.0 (0)
 -->
<!-- Title: Perl Pages: 1 -->
<svg width="375pt" height="277pt"
 viewBox="0.00 0.00 375.43 277.00" xmlns="http://www.w3.org/2000/svg" xmlns:xlink="http://www.w3.org/1999/xlink">
<g id="graph0" class="graph" transform="scale(1 1) rotate(0) translate(4 273)">
<title>Perl</title>
<polygon fill="white" stroke="transparent" points="-4,4 -4,-273 371.43,-273 371.43,4 -4,4"/>
<!-- Zero -->
<g id="node1" class="node">
<title>Zero</title>
<ellipse fill="none" stroke="black" cx="177.39" cy="-251" rx="100.98" ry="18"/>
<text text-anchor="middle" x="177.39" y="-247.3" font-family="Times,serif" font-size="14.00">The Orient Express</text>
</g>
<!-- One -->
<g id="node2" class="node">
<title>One</title>
<ellipse fill="none" stroke="black" cx="88.39" cy="-178" rx="88.28" ry="18"/>
<text text-anchor="middle" x="88.39" y="-174.3" font-family="Times,serif" font-size="14.00">Reichwaldstraße</text>
</g>
<!-- Zero&#45;&gt;One -->
<g id="edge1" class="edge">
<title>Zero&#45;&gt;One</title>
<path fill="none" stroke="grey" d="M156.3,-233.17C144.66,-223.89 130.04,-212.22 117.34,-202.1"/>
<polygon fill="grey" stroke="grey" points="119.33,-199.21 109.33,-195.71 114.97,-204.68 119.33,-199.21"/>
</g>
<!-- Three -->
<g id="node4" class="node">
<title>Three</title>
<ellipse fill="none" stroke="black" cx="268.39" cy="-178" rx="73.39" ry="18"/>
<text text-anchor="middle" x="268.39" y="-174.3" font-family="Times,serif" font-size="14.00">ʎ ʏ ʐ ʑ ʒ ʓ ʙ ʚ</text>
</g>
<!-- Zero&#45;&gt;Three -->
<g id="edge2" class="edge">
<title>Zero&#45;&gt;Three</title>
<path fill="none" stroke="grey" d="M198.96,-233.17C210.94,-223.82 226.03,-212.05 239.07,-201.88"/>
<polygon fill="grey" stroke="grey" points="241.56,-204.37 247.3,-195.46 237.26,-198.85 241.56,-204.37"/>
</g>
<!-- Two -->
<g id="node3" class="node">
<title>Two</title>
<ellipse fill="none" stroke="black" cx="100.39" cy="-105" rx="42.79" ry="18"/>
<text text-anchor="middle" x="100.39" y="-101.3" font-family="Times,serif" font-size="14.00">Böhme</text>
</g>
<!-- One&#45;&gt;Two -->
<g id="edge3" class="edge">
<title>One&#45;&gt;Two</title>
<path fill="none" stroke="grey" d="M91.3,-159.81C92.65,-151.79 94.3,-142.05 95.82,-133.07"/>
<polygon fill="grey" stroke="grey" points="99.3,-133.47 97.51,-123.03 92.4,-132.31 99.3,-133.47"/>
</g>
<!-- Five -->
<g id="node6" class="node">
<title>Five</title>
<ellipse fill="none" stroke="black" cx="181.39" cy="-18" rx="118.08" ry="18"/>
<text text-anchor="middle" x="181.39" y="-14.3" font-family="Times,serif" font-size="14.00">ΔΔΔΔΔΔΔΔΔΔΔΔΔΔΔΔΔ</text>
</g>
<!-- Two&#45;&gt;Five -->
<g id="edge5" class="edge">
<title>Two&#45;&gt;Five</title>
<path fill="none" stroke="grey" d="M109.05,-87.11C114.81,-76.85 123.02,-63.86 132.39,-54 136.5,-49.68 141.21,-45.55 146.04,-41.73"/>
<polygon fill="grey" stroke="grey" points="148.3,-44.42 154.22,-35.64 144.11,-38.81 148.3,-44.42"/>
<text text-anchor="middle" x="182.39" y="-57.8" font-family="Times,serif" font-size="14.00">Label has a ☃</text>
</g>
<!-- Four -->
<g id="node5" class="node">
<title>Four</title>
<ellipse fill="none" stroke="black" cx="265.39" cy="-105" rx="102.08" ry="18"/>
<text text-anchor="middle" x="265.39" y="-101.3" font-family="Times,serif" font-size="14.00">Πηληϊάδεω Ἀχιλῆος</text>
</g>
<!-- Three&#45;&gt;Four -->
<g id="edge4" class="edge">
<title>Three&#45;&gt;Four</title>
<path fill="none" stroke="grey" d="M267.67,-159.81C267.33,-151.79 266.92,-142.05 266.54,-133.07"/>
<polygon fill="grey" stroke="grey" points="270.03,-132.87 266.11,-123.03 263.04,-133.17 270.03,-132.87"/>
</g>
<!-- Four&#45;&gt;Five -->
<g id="edge6" class="edge">
<title>Four&#45;&gt;Five</title>
<path fill="none" stroke="grey" d="M256.44,-87.07C250.48,-76.78 242.01,-63.8 232.39,-54 228,-49.53 222.95,-45.27 217.78,-41.37"/>
<polygon fill="grey" stroke="grey" points="219.81,-38.51 209.64,-35.55 215.74,-44.21 219.81,-38.51"/>
<text text-anchor="middle" x="292.39" y="-57.8" font-family="Times,serif" font-size="14.00">Label has a ✔</text>
</g>
</g>
</svg>
