<?xml version="1.0" encoding="UTF-8" standalone="no"?>
<!DOCTYPE svg PUBLIC "-//W3C//DTD SVG 1.1//EN"
 "http://www.w3.org/Graphics/SVG/1.1/DTD/svg11.dtd">
<!-- Generated by graphviz version 2.43.0 (0)
 -->
<!-- Title: Perl Pages: 1 -->
<svg width="637pt" height="402pt"
 viewBox="0.00 0.00 637.00 402.48" xmlns="http://www.w3.org/2000/svg" xmlns:xlink="http://www.w3.org/1999/xlink">
<g id="graph0" class="graph" transform="scale(1 1) rotate(0) translate(4 398.48)">
<title>Perl</title>
<polygon fill="white" stroke="transparent" points="-4,4 -4,-398.48 633,-398.48 633,4 -4,4"/>
<text text-anchor="middle" x="314.5" y="-7.8" font-family="Times,serif" font-size="14.00">Record demo 3 &#45; Deeply nested records using nested array&#45;refs</text>
<!-- Alphabet -->
<g id="node1" class="node">
<title>Alphabet</title>
<polygon fill="none" stroke="black" points="18,-59.24 18,-358.24 575,-358.24 575,-59.24 18,-59.24"/>
<text text-anchor="middle" x="55" y="-205.04" font-family="Times,serif" font-size="14.00">a:port_a</text>
<polyline fill="none" stroke="black" points="92,-59.24 92,-358.24 "/>
<text text-anchor="middle" x="321.5" y="-343.04" font-family="Times,serif" font-size="14.00">b:port_b</text>
<polyline fill="none" stroke="black" points="92,-335.24 551,-335.24 "/>
<text text-anchor="middle" x="321.5" y="-320.04" font-family="Times,serif" font-size="14.00">c</text>
<polyline fill="none" stroke="black" points="92,-312.24 551,-312.24 "/>
<text text-anchor="middle" x="130" y="-205.04" font-family="Times,serif" font-size="14.00">d:port_d</text>
<polyline fill="none" stroke="black" points="168,-105.24 168,-312.24 "/>
<text text-anchor="middle" x="180.5" y="-205.04" font-family="Times,serif" font-size="14.00">e</text>
<polyline fill="none" stroke="black" points="193,-105.24 193,-312.24 "/>
<text text-anchor="middle" x="204" y="-205.04" font-family="Times,serif" font-size="14.00">f</text>
<polyline fill="none" stroke="black" points="215,-105.24 215,-312.24 "/>
<text text-anchor="middle" x="316.5" y="-297.04" font-family="Times,serif" font-size="14.00">g</text>
<polyline fill="none" stroke="black" points="215,-289.24 418,-289.24 "/>
<text text-anchor="middle" x="316.5" y="-274.04" font-family="Times,serif" font-size="14.00">h:port_h</text>
<polyline fill="none" stroke="black" points="215,-266.24 418,-266.24 "/>
<text text-anchor="middle" x="316.5" y="-251.04" font-family="Times,serif" font-size="14.00">i</text>
<polyline fill="none" stroke="black" points="215,-243.24 418,-243.24 "/>
<text text-anchor="middle" x="316.5" y="-228.04" font-family="Times,serif" font-size="14.00">j</text>
<polyline fill="none" stroke="black" points="215,-220.24 418,-220.24 "/>
<text text-anchor="middle" x="227.5" y="-205.04" font-family="Times,serif" font-size="14.00">k</text>
<polyline fill="none" stroke="black" points="240,-197.24 240,-220.24 "/>
<text text-anchor="middle" x="250.5" y="-205.04" font-family="Times,serif" font-size="14.00">l</text>
<polyline fill="none" stroke="black" points="261,-197.24 261,-220.24 "/>
<text text-anchor="middle" x="276" y="-205.04" font-family="Times,serif" font-size="14.00">m</text>
<polyline fill="none" stroke="black" points="291,-197.24 291,-220.24 "/>
<text text-anchor="middle" x="329" y="-205.04" font-family="Times,serif" font-size="14.00">n:port_n</text>
<polyline fill="none" stroke="black" points="367,-197.24 367,-220.24 "/>
<text text-anchor="middle" x="379.5" y="-205.04" font-family="Times,serif" font-size="14.00">o</text>
<polyline fill="none" stroke="black" points="392,-197.24 392,-220.24 "/>
<text text-anchor="middle" x="405" y="-205.04" font-family="Times,serif" font-size="14.00">p</text>
<polyline fill="none" stroke="black" points="215,-197.24 418,-197.24 "/>
<text text-anchor="middle" x="316.5" y="-182.04" font-family="Times,serif" font-size="14.00">q</text>
<polyline fill="none" stroke="black" points="215,-174.24 418,-174.24 "/>
<text text-anchor="middle" x="316.5" y="-159.04" font-family="Times,serif" font-size="14.00">r</text>
<polyline fill="none" stroke="black" points="215,-151.24 418,-151.24 "/>
<text text-anchor="middle" x="316.5" y="-136.04" font-family="Times,serif" font-size="14.00">s:port_s</text>
<polyline fill="none" stroke="black" points="215,-128.24 418,-128.24 "/>
<text text-anchor="middle" x="316.5" y="-113.04" font-family="Times,serif" font-size="14.00">t</text>
<polyline fill="none" stroke="black" points="418,-105.24 418,-312.24 "/>
<text text-anchor="middle" x="431" y="-205.04" font-family="Times,serif" font-size="14.00">u</text>
<polyline fill="none" stroke="black" points="444,-105.24 444,-312.24 "/>
<text text-anchor="middle" x="456.5" y="-205.04" font-family="Times,serif" font-size="14.00">v</text>
<polyline fill="none" stroke="black" points="469,-105.24 469,-312.24 "/>
<text text-anchor="middle" x="510" y="-205.04" font-family="Times,serif" font-size="14.00">w:port_w</text>
<polyline fill="none" stroke="black" points="92,-105.24 551,-105.24 "/>
<text text-anchor="middle" x="321.5" y="-90.04" font-family="Times,serif" font-size="14.00">x</text>
<polyline fill="none" stroke="black" points="92,-82.24 551,-82.24 "/>
<text text-anchor="middle" x="321.5" y="-67.04" font-family="Times,serif" font-size="14.00">y:port_y</text>
<polyline fill="none" stroke="black" points="551,-59.24 551,-358.24 "/>
<text text-anchor="middle" x="563" y="-205.04" font-family="Times,serif" font-size="14.00">z</text>
</g>
<!-- Alphabet&#45;&gt;Alphabet -->
<g id="edge1" class="edge">
<title>Alphabet:port_a&#45;&gt;Alphabet:port_n</title>
<path fill="none" stroke="maroon" d="M17.81,-262.1C4.51,-272.53 0,-254.74 0,-208.74 0,-139.78 195.01,-134.23 303.25,-192.08"/>
<polygon fill="maroon" stroke="maroon" points="301.73,-195.25 312.16,-197.11 305.17,-189.15 301.73,-195.25"/>
</g>
<!-- Alphabet&#45;&gt;Alphabet -->
<g id="edge2" class="edge">
<title>Alphabet:port_b&#45;&gt;Alphabet:port_s</title>
<path fill="none" stroke="blue" d="M338.34,-358.36C438.7,-421.21 593,-411.98 593,-243.24 593,-79.28 443.1,-65.93 342.08,-122.96"/>
<polygon fill="blue" stroke="blue" points="340.19,-120.01 333.38,-128.13 343.77,-126.03 340.19,-120.01"/>
</g>
<!-- Alphabet&#45;&gt;Alphabet -->
<g id="edge3" class="edge">
<title>Alphabet:port_d&#45;&gt;Alphabet:port_w</title>
<path fill="none" stroke="red" d="M168.04,-229.62C299.92,-282.94 593,-275.98 593,-208.74 593,-156.03 587.07,-140.37 559.07,-161.75"/>
<polygon fill="red" stroke="red" points="556.53,-159.31 551.03,-168.37 560.97,-164.72 556.53,-159.31"/>
</g>
<!-- Alphabet&#45;&gt;Alphabet -->
<g id="edge4" class="edge">
<title>Alphabet:port_y&#45;&gt;Alphabet:port_h</title>
<path fill="none" stroke="green" d="M338.34,-59.13C438.7,3.72 593,-5.5 593,-174.24 593,-338.2 443.1,-351.56 342.08,-294.52"/>
<polygon fill="green" stroke="green" points="343.77,-291.45 333.38,-289.36 340.19,-297.47 343.77,-291.45"/>
</g>
</g>
</svg>
