<?xml version="1.0" encoding="UTF-8" standalone="no"?>
<!DOCTYPE svg PUBLIC "-//W3C//DTD SVG 1.1//EN"
 "http://www.w3.org/Graphics/SVG/1.1/DTD/svg11.dtd">
<!-- Generated by graphviz version 2.43.0 (0)
 -->
<!-- Title: Perl Pages: 1 -->
<svg width="432pt" height="342pt"
 viewBox="0.00 0.00 431.65 342.28" xmlns="http://www.w3.org/2000/svg" xmlns:xlink="http://www.w3.org/1999/xlink">
<g id="graph0" class="graph" transform="scale(1 1) rotate(0) translate(4 338.28)">
<title>Perl</title>
<polygon fill="white" stroke="transparent" points="-4,4 -4,-338.28 427.65,-338.28 427.65,4 -4,4"/>
<g id="clust2" class="cluster">
<title>cluster Subgraph 2</title>
<polygon fill="none" stroke="black" points="115.65,-8 115.65,-186.69 415.65,-186.69 415.65,-8 115.65,-8"/>
</g>
<!-- Carnegie -->
<g id="node1" class="node">
<title>Carnegie</title>
<ellipse fill="none" stroke="black" cx="52.65" cy="-97.34" rx="52.79" ry="52.79"/>
<text text-anchor="middle" x="52.65" y="-93.64" font-family="Times,serif" font-size="14.00">Carnegie</text>
</g>
<!-- Chadstone -->
<g id="node2" class="node">
<title>Chadstone</title>
<ellipse fill="none" stroke="red" cx="175.65" cy="-274.48" rx="59.59" ry="59.59"/>
<text text-anchor="middle" x="175.65" y="-270.78" font-family="Times,serif" font-size="14.00">Chadstone</text>
</g>
<!-- Oakleigh -->
<g id="node5" class="node">
<title>Oakleigh</title>
<ellipse fill="none" stroke="blue" cx="175.65" cy="-97.34" rx="51.99" ry="18"/>
<text text-anchor="middle" x="175.65" y="-93.64" font-family="Times,serif" font-size="14.00">Oakleigh</text>
</g>
<!-- Chadstone&#45;&gt;Oakleigh -->
<g id="edge1" class="edge">
<title>Chadstone&#45;&gt;Oakleigh</title>
<path fill="none" stroke="grey" d="M175.65,-214.68C175.65,-183.7 175.65,-147.32 175.65,-123.6"/>
<ellipse fill="none" stroke="grey" cx="175.65" cy="-119.47" rx="4" ry="4"/>
</g>
<!-- Malvern -->
<g id="node3" class="node">
<title>Malvern</title>
<polygon fill="none" stroke="green" points="94.65,-292.48 18.65,-292.48 18.65,-256.48 94.65,-256.48 94.65,-292.48"/>
<text text-anchor="middle" x="56.65" y="-270.78" font-family="Times,serif" font-size="14.00">Malvern</text>
</g>
<!-- Malvern&#45;&gt;Carnegie -->
<g id="edge2" class="edge">
<title>Malvern&#45;&gt;Carnegie</title>
<path fill="none" stroke="grey" d="M56.25,-256.37C55.8,-236.39 55.01,-202.04 54.29,-170.46"/>
<polygon fill="grey" stroke="grey" points="61.29,-170.12 53.83,-150.28 47.29,-170.44 61.29,-170.12"/>
</g>
<!-- Malvern&#45;&gt;Oakleigh -->
<g id="edge3" class="edge">
<title>Malvern&#45;&gt;Oakleigh</title>
<path fill="none" stroke="brown" d="M68.27,-256.37C89.35,-225.34 133.97,-159.68 158.53,-123.53"/>
<polygon fill="brown" stroke="brown" points="161.6,-125.25 164.32,-115.01 155.81,-121.31 161.6,-125.25"/>
</g>
<!-- Murrumbeena -->
<g id="node4" class="node">
<title>Murrumbeena</title>
<ellipse fill="none" stroke="orange" cx="326.65" cy="-97.34" rx="77.19" ry="77.19"/>
<ellipse fill="none" stroke="orange" cx="326.65" cy="-97.34" rx="81.19" ry="81.19"/>
<text text-anchor="middle" x="326.65" y="-93.64" font-family="Times,serif" font-size="14.00">Murrumbeena</text>
</g>
<!-- Prahran -->
<g id="node6" class="node">
<title>Prahran</title>
<ellipse fill="none" stroke="black" cx="301.65" cy="-274.48" rx="48.19" ry="18"/>
<text text-anchor="middle" x="301.65" y="-270.78" font-family="Times,serif" font-size="14.00">Prahran</text>
</g>
</g>
</svg>
