<?xml version="1.0" encoding="UTF-8" standalone="no"?>
<!DOCTYPE svg PUBLIC "-//W3C//DTD SVG 1.1//EN"
 "http://www.w3.org/Graphics/SVG/1.1/DTD/svg11.dtd">
<!-- Generated by graphviz version 2.43.0 (0)
 -->
<!-- Title: Perl Pages: 1 -->
<svg width="412pt" height="158pt"
 viewBox="0.00 0.00 412.00 158.00" xmlns="http://www.w3.org/2000/svg" xmlns:xlink="http://www.w3.org/1999/xlink">
<g id="graph0" class="graph" transform="scale(1 1) rotate(0) translate(4 154)">
<title>Perl</title>
<polygon fill="white" stroke="transparent" points="-4,4 -4,-154 408,-154 408,4 -4,4"/>
<text text-anchor="middle" x="202" y="-7.8" font-family="Times,serif" font-size="14.00">HTML label demo # 2 &#45; Using &lt;&lt;table&gt; ... &lt;/table&gt;&gt;</text>
<!-- Legend -->
<g id="node1" class="node">
<title>Legend</title>
<polygon fill="white" stroke="transparent" points="46.5,-27 46.5,-146 357.5,-146 357.5,-27 46.5,-27"/>
<polygon fill="palegreen" stroke="transparent" points="50,-121.5 50,-142.5 355,-142.5 355,-121.5 50,-121.5"/>
<polygon fill="none" stroke="black" points="50,-121.5 50,-142.5 355,-142.5 355,-121.5 50,-121.5"/>
<text text-anchor="start" x="85.5" y="-128.3" font-family="Times,serif" font-size="14.00">The green node is the start node</text>
<polygon fill="lightblue" stroke="transparent" points="50,-98.5 50,-119.5 355,-119.5 355,-98.5 50,-98.5"/>
<polygon fill="none" stroke="black" points="50,-98.5 50,-119.5 355,-119.5 355,-98.5 50,-98.5"/>
<text text-anchor="start" x="53" y="-105.3" font-family="Times,serif" font-size="14.00">Lightblue nodes are for lexeme attributes</text>
<polygon fill="orchid" stroke="transparent" points="50,-75.5 50,-96.5 355,-96.5 355,-75.5 50,-75.5"/>
<polygon fill="none" stroke="black" points="50,-75.5 50,-96.5 355,-96.5 355,-75.5 50,-75.5"/>
<text text-anchor="start" x="97" y="-82.3" font-family="Times,serif" font-size="14.00">Orchid nodes are for lexemes</text>
<polygon fill="goldenrod" stroke="transparent" points="50,-52.5 50,-73.5 355,-73.5 355,-52.5 50,-52.5"/>
<polygon fill="none" stroke="black" points="50,-52.5 50,-73.5 355,-73.5 355,-52.5 50,-52.5"/>
<text text-anchor="start" x="100" y="-59.3" font-family="Times,serif" font-size="14.00">Golden nodes are for actions</text>
<polygon fill="#ff3030" stroke="transparent" points="50,-29.5 50,-50.5 355,-50.5 355,-29.5 50,-29.5"/>
<polygon fill="none" stroke="black" points="50,-29.5 50,-50.5 355,-50.5 355,-29.5 50,-29.5"/>
<text text-anchor="start" x="113" y="-36.3" font-family="Times,serif" font-size="14.00">Red nodes are for events</text>
<polygon fill="none" stroke="black" points="46.5,-27 46.5,-146 357.5,-146 357.5,-27 46.5,-27"/>
</g>
</g>
</svg>
