<?xml version="1.0" encoding="UTF-8" standalone="no"?>
<!DOCTYPE svg PUBLIC "-//W3C//DTD SVG 1.1//EN"
 "http://www.w3.org/Graphics/SVG/1.1/DTD/svg11.dtd">
<!-- Generated by graphviz version 2.43.0 (0)
 -->
<!-- Title: Perl Pages: 1 -->
<svg width="452pt" height="221pt"
 viewBox="0.00 0.00 452.11 221.14" xmlns="http://www.w3.org/2000/svg" xmlns:xlink="http://www.w3.org/1999/xlink">
<g id="graph0" class="graph" transform="scale(1 1) rotate(0) translate(4 217.14)">
<title>Perl</title>
<polygon fill="white" stroke="transparent" points="-4,4 -4,-217.14 448.11,-217.14 448.11,4 -4,4"/>
<text text-anchor="middle" x="222.05" y="-7.8" font-family="Times,serif" font-size="14.00">Demo of 3 subgraphs (2 being clusters), and 1 frame</text>
<g id="clust1" class="cluster">
<title>cluster First subgraph</title>
<polygon fill="none" stroke="white" points="75.9,-31 75.9,-205.14 197.9,-205.14 197.9,-31 75.9,-31"/>
<text text-anchor="middle" x="136.9" y="-189.94" font-family="Times,serif" font-size="14.00">Child the First</text>
</g>
<g id="clust2" class="cluster">
<title>cluster Second subgraph</title>
<polygon fill="none" stroke="purple" points="205.9,-31 205.9,-205.14 343.9,-205.14 343.9,-31 205.9,-31"/>
<text text-anchor="middle" x="274.9" y="-189.94" font-family="Times,serif" font-size="14.00">Child the Second</text>
</g>
<!-- One -->
<g id="node1" class="node">
<title>One</title>
<ellipse fill="none" stroke="red" cx="33.9" cy="-156.14" rx="29.5" ry="29.5"/>
<text text-anchor="middle" x="33.9" y="-152.44" font-family="Times,serif" font-size="14.00">One</text>
</g>
<!-- Two -->
<g id="node2" class="node">
<title>Two</title>
<ellipse fill="none" stroke="green" cx="33.9" cy="-57" rx="29.81" ry="29.81"/>
<ellipse fill="none" stroke="green" cx="33.9" cy="-57" rx="33.8" ry="33.8"/>
<text text-anchor="middle" x="33.9" y="-53.3" font-family="Times,serif" font-size="14.00">Two</text>
</g>
<!-- One&#45;&gt;Two -->
<g id="edge1" class="edge">
<title>One&#45;&gt;Two</title>
<path fill="none" stroke="maroon" stroke-width="3" d="M33.9,-126.79C33.9,-118.73 33.9,-109.78 33.9,-101.07"/>
<polygon fill="maroon" stroke="maroon" stroke-width="3" points="37.4,-101.02 33.9,-91.02 30.4,-101.02 37.4,-101.02"/>
</g>
<!-- Three -->
<g id="node3" class="node">
<title>Three</title>
<polygon fill="none" stroke="magenta" points="136.9,-174.14 83.77,-156.14 136.9,-138.14 190.02,-156.14 136.9,-174.14"/>
<text text-anchor="middle" x="136.9" y="-152.44" font-family="Times,serif" font-size="14.00">Three</text>
</g>
<!-- Four -->
<g id="node4" class="node">
<title>Four</title>
<polygon fill="none" stroke="orange" points="163.9,-75 109.9,-75 109.9,-39 163.9,-39 163.9,-75"/>
<text text-anchor="middle" x="136.9" y="-53.3" font-family="Times,serif" font-size="14.00">Four</text>
</g>
<!-- Three&#45;&gt;Four -->
<g id="edge2" class="edge">
<title>Three&#45;&gt;Four</title>
<path fill="none" stroke="grey" stroke-width="3" d="M136.9,-137.78C136.9,-123.27 136.9,-102.33 136.9,-85.54"/>
<polygon fill="grey" stroke="grey" stroke-width="3" points="140.4,-85.22 136.9,-75.22 133.4,-85.22 140.4,-85.22"/>
</g>
<!-- Five -->
<g id="node5" class="node">
<title>Five</title>
<polygon fill="none" stroke="blue" points="273.9,-174.14 230.5,-156.14 273.9,-138.14 317.3,-156.14 273.9,-174.14"/>
<text text-anchor="middle" x="273.9" y="-152.44" font-family="Times,serif" font-size="14.00">Five</text>
</g>
<!-- Six -->
<g id="node6" class="node">
<title>Six</title>
<polygon fill="none" stroke="orange" points="300.9,-75 246.9,-75 246.9,-39 300.9,-39 300.9,-75"/>
<text text-anchor="middle" x="273.9" y="-53.3" font-family="Times,serif" font-size="14.00">Six</text>
</g>
<!-- Five&#45;&gt;Six -->
<g id="edge3" class="edge">
<title>Five&#45;&gt;Six</title>
<path fill="none" stroke="grey" stroke-width="3" d="M273.9,-137.78C273.9,-123.27 273.9,-102.33 273.9,-85.54"/>
<polygon fill="grey" stroke="grey" stroke-width="3" points="277.4,-85.22 273.9,-75.22 270.4,-85.22 277.4,-85.22"/>
</g>
<!-- Seven -->
<g id="node7" class="node">
<title>Seven</title>
<polygon fill="none" stroke="blue" points="440.3,-148.69 440.3,-163.6 415.46,-174.14 380.33,-174.14 355.5,-163.6 355.5,-148.69 380.33,-138.14 415.46,-138.14 440.3,-148.69"/>
<polygon fill="none" stroke="blue" points="444.32,-146.05 444.32,-166.24 416.28,-178.14 379.51,-178.14 351.48,-166.24 351.48,-146.05 379.51,-134.14 416.28,-134.14 444.32,-146.05"/>
<text text-anchor="middle" x="397.9" y="-152.44" font-family="Times,serif" font-size="14.00">Seven</text>
</g>
<!-- Eight -->
<g id="node8" class="node">
<title>Eight</title>
<polygon fill="none" stroke="orange" points="425.9,-75 369.9,-75 369.9,-39 425.9,-39 425.9,-75"/>
<text text-anchor="middle" x="397.9" y="-53.3" font-family="Times,serif" font-size="14.00">Eight</text>
</g>
<!-- Seven&#45;&gt;Eight -->
<g id="edge4" class="edge">
<title>Seven&#45;&gt;Eight</title>
<path fill="none" stroke="grey" stroke-width="3" d="M397.9,-134.07C397.9,-119.74 397.9,-100.65 397.9,-85.18"/>
<polygon fill="grey" stroke="grey" stroke-width="3" points="401.4,-85.15 397.9,-75.15 394.4,-85.15 401.4,-85.15"/>
</g>
</g>
</svg>
