<?xml version="1.0" encoding="UTF-8" standalone="no"?>
<!DOCTYPE svg PUBLIC "-//W3C//DTD SVG 1.1//EN"
 "http://www.w3.org/Graphics/SVG/1.1/DTD/svg11.dtd">
<!-- Generated by graphviz version 2.43.0 (0)
 -->
<!-- Title: Perl Pages: 1 -->
<svg width="559pt" height="152pt"
 viewBox="0.00 0.00 559.44 152.00" xmlns="http://www.w3.org/2000/svg" xmlns:xlink="http://www.w3.org/1999/xlink">
<g id="graph0" class="graph" transform="scale(1 1) rotate(0) translate(4 148)">
<title>Perl</title>
<polygon fill="white" stroke="transparent" points="-4,4 -4,-148 555.44,-148 555.44,4 -4,4"/>
<!-- Carnegie -->
<g id="node1" class="node">
<title>Carnegie</title>
<ellipse fill="aquamarine" stroke="aquamarine" cx="52.65" cy="-126" rx="52.79" ry="18"/>
<text text-anchor="middle" x="52.65" y="-122.3" font-family="Times,serif" font-size="14.00">Carnegie</text>
</g>
<!-- one -->
<g id="node4" class="node">
<title>one</title>
<ellipse fill="grey" stroke="grey" cx="126.65" cy="-72" rx="0" ry="0"/>
</g>
<!-- Carnegie&#45;&gt;one -->
<g id="edge2" class="edge">
<title>Carnegie&#45;&gt;one</title>
<path fill="none" stroke="grey" d="M74.85,-109.4C95.96,-94.56 124.78,-74.31 126.56,-73.06"/>
</g>
<!-- Murrumbeena -->
<g id="node2" class="node">
<title>Murrumbeena</title>
<ellipse fill="bisque" stroke="bisque" cx="200.65" cy="-126" rx="77.19" ry="18"/>
<text text-anchor="middle" x="200.65" y="-122.3" font-family="Times,serif" font-size="14.00">Murrumbeena</text>
</g>
<!-- Murrumbeena&#45;&gt;one -->
<g id="edge1" class="edge">
<title>Murrumbeena&#45;&gt;one</title>
<path fill="none" stroke="grey" d="M177.23,-108.55C156.23,-93.79 128.44,-74.26 126.73,-73.06"/>
</g>
<!-- Oakleigh -->
<g id="node3" class="node">
<title>Oakleigh</title>
<ellipse fill="blueviolet" stroke="blueviolet" cx="126.65" cy="-18" rx="51.99" ry="18"/>
<text text-anchor="middle" x="126.65" y="-14.3" font-family="Times,serif" font-size="14.00">Oakleigh</text>
</g>
<!-- one&#45;&gt;Oakleigh -->
<g id="edge3" class="edge">
<title>one&#45;&gt;Oakleigh</title>
<path fill="none" stroke="grey" d="M126.65,-70.85C126.65,-69.43 126.65,-58.11 126.65,-46.4"/>
<polygon fill="grey" stroke="grey" points="130.15,-46.26 126.65,-36.26 123.15,-46.26 130.15,-46.26"/>
</g>
<!-- Ashburton -->
<g id="node5" class="node">
<title>Ashburton</title>
<ellipse fill="lawngreen" stroke="lawngreen" cx="354.65" cy="-126" rx="59.29" ry="18"/>
<text text-anchor="middle" x="354.65" y="-122.3" font-family="Times,serif" font-size="14.00">Ashburton</text>
</g>
<!-- two -->
<g id="node8" class="node">
<title>two</title>
<ellipse fill="grey" stroke="grey" cx="422.65" cy="-72" rx="0" ry="0"/>
</g>
<!-- Ashburton&#45;&gt;two -->
<g id="edge4" class="edge">
<title>Ashburton&#45;&gt;two</title>
<path fill="none" stroke="grey" d="M375.42,-109.12C394.79,-94.3 420.95,-74.3 422.57,-73.06"/>
</g>
<!-- Chadstone -->
<g id="node6" class="node">
<title>Chadstone</title>
<ellipse fill="coral" stroke="coral" cx="491.65" cy="-126" rx="59.59" ry="18"/>
<text text-anchor="middle" x="491.65" y="-122.3" font-family="Times,serif" font-size="14.00">Chadstone</text>
</g>
<!-- Chadstone&#45;&gt;two -->
<g id="edge5" class="edge">
<title>Chadstone&#45;&gt;two</title>
<path fill="none" stroke="grey" d="M470.57,-109.12C450.91,-94.3 424.37,-74.3 422.73,-73.06"/>
</g>
<!-- Waverley -->
<g id="node7" class="node">
<title>Waverley</title>
<ellipse fill="crimson" stroke="crimson" cx="422.65" cy="-18" rx="53.89" ry="18"/>
<text text-anchor="middle" x="422.65" y="-14.3" font-family="Times,serif" font-size="14.00">Waverley</text>
</g>
<!-- two&#45;&gt;Waverley -->
<g id="edge6" class="edge">
<title>two&#45;&gt;Waverley</title>
<path fill="none" stroke="grey" d="M422.65,-70.85C422.65,-69.43 422.65,-58.11 422.65,-46.4"/>
<polygon fill="grey" stroke="grey" points="426.15,-46.26 422.65,-36.26 419.15,-46.26 426.15,-46.26"/>
</g>
</g>
</svg>
