<?xml version="1.0" encoding="UTF-8" standalone="no"?>
<!DOCTYPE svg PUBLIC "-//W3C//DTD SVG 1.1//EN"
 "http://www.w3.org/Graphics/SVG/1.1/DTD/svg11.dtd">
<!-- Generated by graphviz version 2.43.0 (0)
 -->
<!-- Title: Perl Pages: 1 -->
<svg width="1315pt" height="1126pt"
 viewBox="0.00 0.00 1314.65 1126.00" xmlns="http://www.w3.org/2000/svg" xmlns:xlink="http://www.w3.org/1999/xlink">
<g id="graph0" class="graph" transform="scale(1 1) rotate(0) translate(4 1122)">
<title>Perl</title>
<polygon fill="white" stroke="transparent" points="-4,4 -4,-1122 1310.65,-1122 1310.65,4 -4,4"/>
<!-- attribute -->
<g id="node1" class="node">
<title>attribute</title>
<polygon fill="none" stroke="black" points="520,-1042.5 520,-1078.5 678,-1078.5 678,-1042.5 520,-1042.5"/>
<text text-anchor="middle" x="559" y="-1056.8" font-family="Times,serif" font-size="14.00">/[\w :;]+/</text>
<polyline fill="none" stroke="black" points="598,-1042.5 598,-1078.5 "/>
<text text-anchor="middle" x="638" y="-1056.8" font-family="Times,serif" font-size="14.00">attribute</text>
</g>
<!-- attribute&#45;&gt;attribute -->
<g id="edge1" class="edge">
<title>attribute:state&#45;&gt;attribute:w</title>
<path fill="none" stroke="black" d="M642.16,-1078.75C642.2,-1097.33 628.94,-1118 579,-1118 521.09,-1118 512.5,-1090.2 516.78,-1070.11"/>
<polygon fill="black" stroke="black" points="520.14,-1071.09 520,-1060.5 513.51,-1068.87 520.14,-1071.09"/>
</g>
<!-- post_attribute -->
<g id="node2" class="node">
<title>post_attribute</title>
<polygon fill="none" stroke="black" points="1083,-959.5 1083,-1005.5 1251,-1005.5 1251,-959.5 1083,-959.5"/>
<text text-anchor="middle" x="1108" y="-990.3" font-family="Times,serif" font-size="14.00">/\s+/</text>
<polyline fill="none" stroke="black" points="1083,-982.5 1133,-982.5 "/>
<text text-anchor="middle" x="1108" y="-967.3" font-family="Times,serif" font-size="14.00">/}/</text>
<polyline fill="none" stroke="black" points="1133,-959.5 1133,-1005.5 "/>
<text text-anchor="middle" x="1192" y="-978.8" font-family="Times,serif" font-size="14.00">post_attribute</text>
</g>
<!-- attribute&#45;&gt;post_attribute -->
<g id="edge2" class="edge">
<title>attribute:state&#45;&gt;post_attribute:w</title>
<path fill="none" stroke="black" d="M679,-1060.5C859.12,-1060.5 897.09,-973.81 1071.93,-970.59"/>
<polygon fill="black" stroke="black" points="1072.03,-974.09 1082,-970.5 1071.97,-967.09 1072.03,-974.09"/>
</g>
<!-- post_attribute&#45;&gt;post_attribute -->
<g id="edge38" class="edge">
<title>post_attribute:state&#45;&gt;post_attribute:w</title>
<path fill="none" stroke="black" d="M1196.18,-1005.58C1195.11,-1024.86 1181.65,-1045 1137.5,-1045 1083.43,-1045 1075.4,-1023.49 1079.77,-1004.24"/>
<polygon fill="black" stroke="black" points="1083.17,-1005.09 1083,-994.5 1076.53,-1002.89 1083.17,-1005.09"/>
</g>
<!-- edge -->
<g id="node5" class="node">
<title>edge</title>
<polygon fill="none" stroke="black" points="888,-876.5 888,-922.5 1044,-922.5 1044,-876.5 888,-876.5"/>
<text text-anchor="middle" x="940.5" y="-907.3" font-family="Times,serif" font-size="14.00">/[&#45;&lt;=&gt;~.]+/</text>
<polyline fill="none" stroke="black" points="888,-899.5 993,-899.5 "/>
<text text-anchor="middle" x="940.5" y="-884.3" font-family="Times,serif" font-size="14.00">/\s+/</text>
<polyline fill="none" stroke="black" points="993,-876.5 993,-922.5 "/>
<text text-anchor="middle" x="1018.5" y="-895.8" font-family="Times,serif" font-size="14.00">edge</text>
</g>
<!-- post_attribute&#45;&gt;edge -->
<g id="edge37" class="edge">
<title>post_attribute:state&#45;&gt;edge:w</title>
<path fill="none" stroke="black" d="M1192,-959C1192,-890.97 935.35,-971.85 888,-923 887.67,-922.65 887.34,-922.27 887.03,-921.86"/>
<polygon fill="black" stroke="black" points="890.53,-921.49 887,-911.5 883.53,-921.51 890.53,-921.49"/>
</g>
<!-- start_node -->
<g id="node8" class="node">
<title>start_node</title>
<polygon fill="none" stroke="black" points="624,-0.5 624,-46.5 766,-46.5 766,-0.5 624,-0.5"/>
<text text-anchor="middle" x="649" y="-31.3" font-family="Times,serif" font-size="14.00">/\[/</text>
<polyline fill="none" stroke="black" points="624,-23.5 674,-23.5 "/>
<text text-anchor="middle" x="649" y="-8.3" font-family="Times,serif" font-size="14.00">/\s+/</text>
<polyline fill="none" stroke="black" points="674,-0.5 674,-46.5 "/>
<text text-anchor="middle" x="720" y="-19.8" font-family="Times,serif" font-size="14.00">start_node</text>
</g>
<!-- post_attribute&#45;&gt;start_node -->
<g id="edge40" class="edge">
<title>post_attribute:state&#45;&gt;start_node:w</title>
<path fill="none" stroke="black" d="M1252,-982.5C1316.32,-982.5 1306,-821.28 1306,-817.5 1306,-817.5 1306,-817.5 1306,-188.5 1306,-132.47 1285.48,-111.09 1237,-83 1177.96,-48.8 672.92,-94.56 624,-47 623.66,-46.66 623.32,-46.29 623,-45.89"/>
<polygon fill="black" stroke="black" points="626.5,-45.5 623,-35.5 619.5,-45.5 626.5,-45.5"/>
</g>
<!-- daisy_chain -->
<g id="node13" class="node">
<title>daisy_chain</title>
<polygon fill="none" stroke="black" points="1053.5,-83.5 1053.5,-129.5 1202.5,-129.5 1202.5,-83.5 1053.5,-83.5"/>
<text text-anchor="middle" x="1078.5" y="-114.3" font-family="Times,serif" font-size="14.00">/,/</text>
<polyline fill="none" stroke="black" points="1053.5,-106.5 1103.5,-106.5 "/>
<text text-anchor="middle" x="1078.5" y="-91.3" font-family="Times,serif" font-size="14.00">/\s+/</text>
<polyline fill="none" stroke="black" points="1103.5,-83.5 1103.5,-129.5 "/>
<text text-anchor="middle" x="1153" y="-102.8" font-family="Times,serif" font-size="14.00">daisy_chain</text>
</g>
<!-- post_attribute&#45;&gt;daisy_chain -->
<g id="edge36" class="edge">
<title>post_attribute:state&#45;&gt;daisy_chain:w</title>
<path fill="none" stroke="black" d="M1252,-982.5C1325.68,-982.5 1268,-891.18 1268,-817.5 1268,-817.5 1268,-817.5 1268,-271.5 1268,-212.92 1237.56,-198.76 1189,-166 1137.16,-131.04 1093.25,-177.85 1053,-130 1052.69,-129.63 1052.38,-129.23 1052.09,-128.81"/>
<polygon fill="black" stroke="black" points="1055.59,-128.47 1052,-118.5 1048.59,-128.53 1055.59,-128.47"/>
</g>
<!-- post_group -->
<g id="node14" class="node">
<title>post_group</title>
<polygon fill="none" stroke="black" points="942,-166.5 942,-212.5 1088,-212.5 1088,-166.5 942,-166.5"/>
<text text-anchor="middle" x="967" y="-197.3" font-family="Times,serif" font-size="14.00">/\)/</text>
<polyline fill="none" stroke="black" points="942,-189.5 992,-189.5 "/>
<text text-anchor="middle" x="967" y="-174.3" font-family="Times,serif" font-size="14.00">/\s+/</text>
<polyline fill="none" stroke="black" points="992,-166.5 992,-212.5 "/>
<text text-anchor="middle" x="1040" y="-185.8" font-family="Times,serif" font-size="14.00">post_group</text>
</g>
<!-- post_attribute&#45;&gt;post_group -->
<g id="edge39" class="edge">
<title>post_attribute:state&#45;&gt;post_group:w</title>
<path fill="none" stroke="black" d="M1192,-959C1192,-918.48 1050.99,-280.09 1025,-249 999.21,-218.15 965.5,-245.63 942,-213 941.72,-212.61 941.44,-212.19 941.16,-211.75"/>
<polygon fill="black" stroke="black" points="944.66,-211.44 941,-201.5 937.66,-211.55 944.66,-211.44"/>
</g>
<!-- class -->
<g id="node3" class="node">
<title>class</title>
<polygon fill="none" stroke="black" points="413.5,-627.5 413.5,-673.5 588.5,-673.5 588.5,-627.5 413.5,-627.5"/>
<text text-anchor="middle" x="475" y="-658.3" font-family="Times,serif" font-size="14.00">/[a&#45;z][a&#45;z0&#45;9_]*/</text>
<polyline fill="none" stroke="black" points="413.5,-650.5 536.5,-650.5 "/>
<text text-anchor="middle" x="475" y="-635.3" font-family="Times,serif" font-size="14.00">/\s+/</text>
<polyline fill="none" stroke="black" points="536.5,-627.5 536.5,-673.5 "/>
<text text-anchor="middle" x="562.5" y="-646.8" font-family="Times,serif" font-size="14.00">class</text>
</g>
<!-- class&#45;&gt;class -->
<g id="edge3" class="edge">
<title>class:state&#45;&gt;class:w</title>
<path fill="none" stroke="black" d="M566.67,-673.65C564.6,-693.74 547.06,-715 488,-715 414.83,-715 405.4,-673.27 410.13,-648.29"/>
<polygon fill="black" stroke="black" points="413.55,-649.08 413,-638.5 406.83,-647.11 413.55,-649.08"/>
</g>
<!-- class_daisy_chain -->
<g id="node4" class="node">
<title>class_daisy_chain</title>
<polygon fill="none" stroke="black" points="390.5,-544.5 390.5,-590.5 581.5,-590.5 581.5,-544.5 390.5,-544.5"/>
<text text-anchor="middle" x="415.5" y="-575.3" font-family="Times,serif" font-size="14.00">/,/</text>
<polyline fill="none" stroke="black" points="390.5,-567.5 440.5,-567.5 "/>
<text text-anchor="middle" x="415.5" y="-552.3" font-family="Times,serif" font-size="14.00">/\s+/</text>
<polyline fill="none" stroke="black" points="440.5,-544.5 440.5,-590.5 "/>
<text text-anchor="middle" x="511" y="-563.8" font-family="Times,serif" font-size="14.00">class_daisy_chain</text>
</g>
<!-- class&#45;&gt;class_daisy_chain -->
<g id="edge4" class="edge">
<title>class:state&#45;&gt;class_daisy_chain:w</title>
<path fill="none" stroke="black" d="M563,-627C563,-548.46 442.15,-649.72 390,-591 389.68,-590.64 389.37,-590.25 389.07,-589.83"/>
<polygon fill="black" stroke="black" points="392.56,-589.48 389,-579.5 385.56,-589.52 392.56,-589.48"/>
</g>
<!-- class&#45;&gt;edge -->
<g id="edge5" class="edge">
<title>class:state&#45;&gt;edge:w</title>
<path fill="none" stroke="black" d="M563,-674C563,-710.9 544,-724.25 561,-757 633.3,-896.24 722.73,-910.92 876.76,-911.48"/>
<polygon fill="black" stroke="black" points="876.99,-914.98 887,-911.5 877.01,-907.98 876.99,-914.98"/>
</g>
<!-- start_class_attribute -->
<g id="node6" class="node">
<title>start_class_attribute</title>
<polygon fill="none" stroke="black" points="285.5,-349 285.5,-385 484.5,-385 484.5,-349 285.5,-349"/>
<text text-anchor="middle" x="303" y="-363.3" font-family="Times,serif" font-size="14.00">/{/</text>
<polyline fill="none" stroke="black" points="320.5,-349 320.5,-385 "/>
<text text-anchor="middle" x="402.5" y="-363.3" font-family="Times,serif" font-size="14.00">start_class_attribute</text>
</g>
<!-- class&#45;&gt;start_class_attribute -->
<g id="edge6" class="edge">
<title>class:state&#45;&gt;start_class_attribute:w</title>
<path fill="none" stroke="black" d="M590,-650.5C691.28,-650.5 579.6,-477.9 522,-438 433.32,-376.56 354.78,-467.78 285,-385.5 282.92,-383.05 281.06,-379.69 280.05,-376.5"/>
<polygon fill="black" stroke="black" points="283.39,-377.58 284,-367 276.93,-374.89 283.39,-377.58"/>
</g>
<!-- start_group -->
<g id="node7" class="node">
<title>start_group</title>
<polygon fill="none" stroke="black" points="688,-793.5 688,-839.5 838,-839.5 838,-793.5 688,-793.5"/>
<text text-anchor="middle" x="713" y="-824.3" font-family="Times,serif" font-size="14.00">/\(/</text>
<polyline fill="none" stroke="black" points="688,-816.5 738,-816.5 "/>
<text text-anchor="middle" x="713" y="-801.3" font-family="Times,serif" font-size="14.00">/\s+/</text>
<polyline fill="none" stroke="black" points="738,-793.5 738,-839.5 "/>
<text text-anchor="middle" x="788" y="-812.8" font-family="Times,serif" font-size="14.00">start_group</text>
</g>
<!-- class&#45;&gt;start_group -->
<g id="edge7" class="edge">
<title>class:state&#45;&gt;start_group:w</title>
<path fill="none" stroke="black" d="M563,-674C563,-758.61 596.2,-823.28 676.92,-828.2"/>
<polygon fill="black" stroke="black" points="676.9,-831.7 687,-828.5 677.11,-824.7 676.9,-831.7"/>
</g>
<!-- class&#45;&gt;start_node -->
<g id="edge8" class="edge">
<title>class:state&#45;&gt;start_node:w</title>
<path fill="none" stroke="black" d="M590,-650.5C640.72,-650.5 635.41,-594.53 631,-544 620.39,-422.59 586,-395.37 586,-273.5 586,-273.5 586,-273.5 586,-188.5 586,-122.23 556.42,-44.22 612.77,-36.18"/>
<polygon fill="black" stroke="black" points="613.25,-39.65 623,-35.5 612.79,-32.67 613.25,-39.65"/>
</g>
<!-- start_subclass -->
<g id="node9" class="node">
<title>start_subclass</title>
<polygon fill="none" stroke="black" points="218,-549.5 218,-585.5 372,-585.5 372,-549.5 218,-549.5"/>
<text text-anchor="middle" x="235.5" y="-563.8" font-family="Times,serif" font-size="14.00">/\./</text>
<polyline fill="none" stroke="black" points="253,-549.5 253,-585.5 "/>
<text text-anchor="middle" x="312.5" y="-563.8" font-family="Times,serif" font-size="14.00">start_subclass</text>
</g>
<!-- class&#45;&gt;start_subclass -->
<g id="edge9" class="edge">
<title>class:state&#45;&gt;start_subclass:w</title>
<path fill="none" stroke="black" d="M563,-627C563,-549.79 270.81,-642.32 218,-586 215.71,-583.56 213.76,-580.05 212.8,-576.74"/>
<polygon fill="black" stroke="black" points="216.05,-578.05 217,-567.5 209.67,-575.15 216.05,-578.05"/>
</g>
<!-- class_daisy_chain&#45;&gt;class -->
<g id="edge12" class="edge">
<title>class_daisy_chain:state&#45;&gt;class:w</title>
<path fill="none" stroke="black" d="M511,-591C511,-637.4 440.09,-589.33 413,-627 406.66,-635.81 401.11,-649.29 403.38,-656.85"/>
<polygon fill="black" stroke="black" points="401.72,-659.94 412,-662.5 405.56,-654.09 401.72,-659.94"/>
</g>
<!-- class_daisy_chain&#45;&gt;class_daisy_chain -->
<g id="edge13" class="edge">
<title>class_daisy_chain:state&#45;&gt;class_daisy_chain:w</title>
<path fill="none" stroke="black" d="M515.05,-590.65C513.87,-610.74 499.37,-632 450.5,-632 389.96,-632 382.15,-590.27 387.1,-565.29"/>
<polygon fill="black" stroke="black" points="390.51,-566.08 390,-555.5 383.8,-564.09 390.51,-566.08"/>
</g>
<!-- subclass -->
<g id="node12" class="node">
<title>subclass</title>
<polygon fill="none" stroke="black" points="313,-438.5 313,-507.5 513,-507.5 513,-438.5 313,-438.5"/>
<text text-anchor="middle" x="374.5" y="-492.3" font-family="Times,serif" font-size="14.00">/[a&#45;z][a&#45;z0&#45;9_]*/</text>
<polyline fill="none" stroke="black" points="313,-484.5 436,-484.5 "/>
<text text-anchor="middle" x="374.5" y="-469.3" font-family="Times,serif" font-size="14.00">/\./</text>
<polyline fill="none" stroke="black" points="313,-461.5 436,-461.5 "/>
<text text-anchor="middle" x="374.5" y="-446.3" font-family="Times,serif" font-size="14.00">/\s+/</text>
<polyline fill="none" stroke="black" points="436,-438.5 436,-507.5 "/>
<text text-anchor="middle" x="474.5" y="-469.3" font-family="Times,serif" font-size="14.00">subclass</text>
</g>
<!-- class_daisy_chain&#45;&gt;subclass -->
<g id="edge14" class="edge">
<title>class_daisy_chain:state&#45;&gt;subclass:w</title>
<path fill="none" stroke="black" d="M511,-544C511,-454.56 371.29,-575.84 313,-508 305.87,-499.7 300.58,-485.77 303.47,-478.23"/>
<polygon fill="black" stroke="black" points="305.31,-481.21 312,-473 301.65,-475.24 305.31,-481.21"/>
</g>
<!-- edge&#45;&gt;edge -->
<g id="edge19" class="edge">
<title>edge:state&#45;&gt;edge:w</title>
<path fill="none" stroke="black" d="M1022.92,-922.65C1021.43,-942.74 1005.88,-964 953.5,-964 888.6,-964 880.24,-922.27 885.11,-897.29"/>
<polygon fill="black" stroke="black" points="888.53,-898.08 888,-887.5 881.81,-896.1 888.53,-898.08"/>
</g>
<!-- edge&#45;&gt;start_group -->
<g id="edge22" class="edge">
<title>edge:state&#45;&gt;start_group:w</title>
<path fill="none" stroke="black" d="M1019,-876C1019,-802.01 739.75,-892.88 688,-840 687.66,-839.66 687.34,-839.28 687.02,-838.87"/>
<polygon fill="black" stroke="black" points="690.52,-838.49 687,-828.5 683.52,-838.51 690.52,-838.49"/>
</g>
<!-- edge&#45;&gt;start_node -->
<g id="edge23" class="edge">
<title>edge:state&#45;&gt;start_node:w</title>
<path fill="none" stroke="black" d="M1045,-899.5C1155.17,-899.5 1230,-844.67 1230,-734.5 1230,-734.5 1230,-734.5 1230,-188.5 1230,-140.93 1247.4,-114.77 1212,-83 1114.58,4.44 717.75,-138.38 624,-47 623.66,-46.66 623.32,-46.29 623,-45.89"/>
<polygon fill="black" stroke="black" points="626.5,-45.5 623,-35.5 619.5,-45.5 626.5,-45.5"/>
</g>
<!-- edge&#45;&gt;daisy_chain -->
<g id="edge18" class="edge">
<title>edge:state&#45;&gt;daisy_chain:w</title>
<path fill="none" stroke="black" d="M1045,-899.5C1132.89,-899.5 1154,-822.39 1154,-734.5 1154,-734.5 1154,-734.5 1154,-271.5 1154,-221.35 1146.31,-204.35 1114,-166 1093.72,-141.92 1069.78,-156.64 1053,-130 1052.74,-129.59 1052.48,-129.16 1052.22,-128.71"/>
<polygon fill="black" stroke="black" points="1055.72,-128.42 1052,-118.5 1048.72,-128.57 1055.72,-128.42"/>
</g>
<!-- edge&#45;&gt;post_group -->
<g id="edge20" class="edge">
<title>edge:state&#45;&gt;post_group:w</title>
<path fill="none" stroke="black" d="M1019,-876C1019,-802.21 1021.51,-783.58 1016,-710 1003.34,-541.01 993.88,-499.15 966,-332 964,-320 938.28,-239.13 937.57,-211.07"/>
<polygon fill="black" stroke="black" points="940.92,-212.09 941,-201.5 934.33,-209.73 940.92,-212.09"/>
</g>
<!-- start_attribute -->
<g id="node15" class="node">
<title>start_attribute</title>
<polygon fill="none" stroke="black" points="728.5,-171.5 728.5,-207.5 885.5,-207.5 885.5,-171.5 728.5,-171.5"/>
<text text-anchor="middle" x="746" y="-185.8" font-family="Times,serif" font-size="14.00">/{/</text>
<polyline fill="none" stroke="black" points="763.5,-171.5 763.5,-207.5 "/>
<text text-anchor="middle" x="824.5" y="-185.8" font-family="Times,serif" font-size="14.00">start_attribute</text>
</g>
<!-- edge&#45;&gt;start_attribute -->
<g id="edge21" class="edge">
<title>edge:state&#45;&gt;start_attribute:w</title>
<path fill="none" stroke="black" d="M1019,-876C1019,-806.06 952,-638.44 952,-568.5 952,-568.5 952,-568.5 952,-472 952,-360.89 921.96,-322.91 839,-249 799.73,-214.01 759.22,-250.32 728,-208 726.09,-205.41 724.26,-202.02 723.24,-198.85"/>
<polygon fill="black" stroke="black" points="726.52,-200.08 727,-189.5 720.02,-197.47 726.52,-200.08"/>
</g>
<!-- class_attribute -->
<g id="node10" class="node">
<title>class_attribute</title>
<polygon fill="none" stroke="black" points="265,-254.5 265,-290.5 465,-290.5 465,-254.5 265,-254.5"/>
<text text-anchor="middle" x="304" y="-268.8" font-family="Times,serif" font-size="14.00">/[\w :;]+/</text>
<polyline fill="none" stroke="black" points="343,-254.5 343,-290.5 "/>
<text text-anchor="middle" x="404" y="-268.8" font-family="Times,serif" font-size="14.00">class_attribute</text>
</g>
<!-- start_class_attribute&#45;&gt;class_attribute -->
<g id="edge59" class="edge">
<title>start_class_attribute:state&#45;&gt;class_attribute:w</title>
<path fill="none" stroke="black" d="M403,-348C403,-281.64 303.37,-345.14 265,-291 263.14,-288.38 261.32,-284.98 260.29,-281.81"/>
<polygon fill="black" stroke="black" points="263.55,-283.09 264,-272.5 257.05,-280.5 263.55,-283.09"/>
</g>
<!-- start_group&#45;&gt;edge -->
<g id="edge60" class="edge">
<title>start_group:state&#45;&gt;edge:w</title>
<path fill="none" stroke="black" d="M839,-816.5C882.43,-816.5 846.71,-896.55 877.15,-909.69"/>
<polygon fill="black" stroke="black" points="876.53,-913.13 887,-911.5 877.8,-906.25 876.53,-913.13"/>
</g>
<!-- start_group&#45;&gt;start_group -->
<g id="edge63" class="edge">
<title>start_group:state&#45;&gt;start_group:w</title>
<path fill="none" stroke="black" d="M792.33,-839.65C791.8,-859.74 779.48,-881 738,-881 686.61,-881 679.98,-839.27 685.08,-814.29"/>
<polygon fill="black" stroke="black" points="688.49,-815.08 688,-804.5 681.79,-813.08 688.49,-815.08"/>
</g>
<!-- start_group&#45;&gt;post_group -->
<g id="edge62" class="edge">
<title>start_group:state&#45;&gt;post_group:w</title>
<path fill="none" stroke="black" d="M788,-793C788,-755.94 788.92,-746.38 796,-710 808.54,-645.61 838,-634.1 838,-568.5 838,-568.5 838,-568.5 838,-472 838,-457.55 908.16,-250.72 934.07,-208.86"/>
<polygon fill="black" stroke="black" points="936.69,-211.18 941,-201.5 931.6,-206.38 936.69,-211.18"/>
</g>
<!-- group -->
<g id="node17" class="node">
<title>group</title>
<polygon fill="none" stroke="black" points="804.5,-710.5 804.5,-756.5 935.5,-756.5 935.5,-710.5 804.5,-710.5"/>
<text text-anchor="middle" x="840.5" y="-741.3" font-family="Times,serif" font-size="14.00">/[\w.]+:/</text>
<polyline fill="none" stroke="black" points="804.5,-733.5 876.5,-733.5 "/>
<text text-anchor="middle" x="840.5" y="-718.3" font-family="Times,serif" font-size="14.00">/\s+/</text>
<polyline fill="none" stroke="black" points="876.5,-710.5 876.5,-756.5 "/>
<text text-anchor="middle" x="906" y="-729.8" font-family="Times,serif" font-size="14.00">group</text>
</g>
<!-- start_group&#45;&gt;group -->
<g id="edge61" class="edge">
<title>start_group:state&#45;&gt;group:w</title>
<path fill="none" stroke="black" d="M839,-816.5C849.45,-816.5 842.07,-802.63 838,-793 831.94,-778.66 811.49,-764.6 801.37,-755.55"/>
<polygon fill="black" stroke="black" points="804.85,-755.93 803,-745.5 797.94,-754.81 804.85,-755.93"/>
</g>
<!-- start_node&#45;&gt;start_node -->
<g id="edge66" class="edge">
<title>start_node:state&#45;&gt;start_node:w</title>
<path fill="none" stroke="black" d="M724.38,-46.65C723.98,-66.74 712.08,-88 672,-88 622.35,-88 615.95,-46.27 621.07,-21.29"/>
<polygon fill="black" stroke="black" points="624.49,-22.08 624,-11.5 617.78,-20.08 624.49,-22.08"/>
</g>
<!-- node -->
<g id="node18" class="node">
<title>node</title>
<polygon fill="none" stroke="black" points="614.5,-332.5 614.5,-401.5 733.5,-401.5 733.5,-332.5 614.5,-332.5"/>
<text text-anchor="middle" x="648.5" y="-386.3" font-family="Times,serif" font-size="14.00">/[\w.]+/</text>
<polyline fill="none" stroke="black" points="614.5,-378.5 682.5,-378.5 "/>
<text text-anchor="middle" x="648.5" y="-363.3" font-family="Times,serif" font-size="14.00">/\[/</text>
<polyline fill="none" stroke="black" points="614.5,-355.5 682.5,-355.5 "/>
<text text-anchor="middle" x="648.5" y="-340.3" font-family="Times,serif" font-size="14.00">/\s+/</text>
<polyline fill="none" stroke="black" points="682.5,-332.5 682.5,-401.5 "/>
<text text-anchor="middle" x="708" y="-363.3" font-family="Times,serif" font-size="14.00">node</text>
</g>
<!-- start_node&#45;&gt;node -->
<g id="edge64" class="edge">
<title>start_node:state&#45;&gt;node:w</title>
<path fill="none" stroke="black" d="M720,-47C720,-66.74 704.1,-66.04 694,-83 673.04,-118.18 667.76,-127.43 654,-166 628.49,-237.47 623.6,-256.72 614,-332 611.35,-352.78 595.33,-378.08 603.24,-386.84"/>
<polygon fill="black" stroke="black" points="602.41,-390.25 613,-390 604.56,-383.59 602.41,-390.25"/>
</g>
<!-- post_node -->
<g id="node19" class="node">
<title>post_node</title>
<polygon fill="none" stroke="black" points="690.5,-249.5 690.5,-295.5 829.5,-295.5 829.5,-249.5 690.5,-249.5"/>
<text text-anchor="middle" x="715.5" y="-280.3" font-family="Times,serif" font-size="14.00">/\s+/</text>
<polyline fill="none" stroke="black" points="690.5,-272.5 740.5,-272.5 "/>
<text text-anchor="middle" x="715.5" y="-257.3" font-family="Times,serif" font-size="14.00">/]/</text>
<polyline fill="none" stroke="black" points="740.5,-249.5 740.5,-295.5 "/>
<text text-anchor="middle" x="785" y="-268.8" font-family="Times,serif" font-size="14.00">post_node</text>
</g>
<!-- start_node&#45;&gt;post_node -->
<g id="edge65" class="edge">
<title>start_node:state&#45;&gt;post_node:w</title>
<path fill="none" stroke="black" d="M720,-47C720,-139.14 602.84,-251.34 678.76,-259.97"/>
<polygon fill="black" stroke="black" points="678.83,-263.48 689,-260.5 679.19,-256.49 678.83,-263.48"/>
</g>
<!-- start_subclass&#45;&gt;subclass -->
<g id="edge67" class="edge">
<title>start_subclass:state&#45;&gt;subclass:w</title>
<path fill="none" stroke="black" d="M373,-567.5C381.23,-567.5 376.01,-556.19 372,-549 356.45,-521.11 328.96,-535.66 313,-508 312.67,-507.42 312.32,-506.8 311.97,-506.15"/>
<polygon fill="black" stroke="black" points="315.47,-506.01 312,-496 308.47,-505.99 315.47,-506.01"/>
</g>
<!-- class_attribute&#45;&gt;class_attribute -->
<g id="edge10" class="edge">
<title>class_attribute:state&#45;&gt;class_attribute:w</title>
<path fill="none" stroke="black" d="M407.98,-290.78C407.78,-310.15 392.76,-332 334.5,-332 267.35,-332 257.64,-302.97 261.87,-282.16"/>
<polygon fill="black" stroke="black" points="265.25,-283.09 265,-272.5 258.59,-280.94 265.25,-283.09"/>
</g>
<!-- post_class_attribute -->
<g id="node11" class="node">
<title>post_class_attribute</title>
<polygon fill="none" stroke="black" points="348,-166.5 348,-212.5 558,-212.5 558,-166.5 348,-166.5"/>
<text text-anchor="middle" x="373" y="-197.3" font-family="Times,serif" font-size="14.00">/\s+/</text>
<polyline fill="none" stroke="black" points="348,-189.5 398,-189.5 "/>
<text text-anchor="middle" x="373" y="-174.3" font-family="Times,serif" font-size="14.00">/}/</text>
<polyline fill="none" stroke="black" points="398,-166.5 398,-212.5 "/>
<text text-anchor="middle" x="478" y="-185.8" font-family="Times,serif" font-size="14.00">post_class_attribute</text>
</g>
<!-- class_attribute&#45;&gt;post_class_attribute -->
<g id="edge11" class="edge">
<title>class_attribute:state&#45;&gt;post_class_attribute:w</title>
<path fill="none" stroke="black" d="M404,-253.5C404,-222.78 362.36,-240.15 348,-213 342.99,-203.52 337.03,-190.52 338.69,-183.17"/>
<polygon fill="black" stroke="black" points="340.72,-186.03 347,-177.5 336.77,-180.25 340.72,-186.03"/>
</g>
<!-- post_class_attribute&#45;&gt;class -->
<g id="edge41" class="edge">
<title>post_class_attribute:state&#45;&gt;class:w</title>
<path fill="none" stroke="black" d="M478,-213C478,-262.98 301.53,-228.39 256,-249 181.5,-282.71 114,-284.23 114,-366 114,-474 114,-474 114,-474 114,-627.35 249.28,-661.08 401.92,-662.46"/>
<polygon fill="black" stroke="black" points="401.98,-665.96 412,-662.5 402.02,-658.96 401.98,-665.96"/>
</g>
<!-- post_class_attribute&#45;&gt;edge -->
<g id="edge43" class="edge">
<title>post_class_attribute:state&#45;&gt;edge:w</title>
<path fill="none" stroke="black" d="M478,-213C478,-287.43 211.4,-215.37 145,-249 82.14,-280.84 38,-295.53 38,-366 38,-474 38,-474 38,-474 38,-654.69 67.23,-736.02 215,-840 274.13,-881.61 772.82,-909.38 876.79,-911.38"/>
<polygon fill="black" stroke="black" points="876.96,-914.89 887,-911.5 877.04,-907.89 876.96,-914.89"/>
</g>
<!-- post_class_attribute&#45;&gt;start_group -->
<g id="edge45" class="edge">
<title>post_class_attribute:state&#45;&gt;start_group:w</title>
<path fill="none" stroke="black" d="M559,-189.5C569.05,-189.5 629.03,-534.15 631,-544 655.58,-666.91 563.4,-819.88 676.93,-828.15"/>
<polygon fill="black" stroke="black" points="676.88,-831.65 687,-828.5 677.13,-824.65 676.88,-831.65"/>
</g>
<!-- post_class_attribute&#45;&gt;start_node -->
<g id="edge46" class="edge">
<title>post_class_attribute:state&#45;&gt;start_node:w</title>
<path fill="none" stroke="black" d="M478,-166C478,-82.69 531.83,-38.99 612.97,-35.7"/>
<polygon fill="black" stroke="black" points="613.07,-39.2 623,-35.5 612.93,-32.2 613.07,-39.2"/>
</g>
<!-- post_class_attribute&#45;&gt;post_class_attribute -->
<g id="edge44" class="edge">
<title>post_class_attribute:state&#45;&gt;post_class_attribute:w</title>
<path fill="none" stroke="black" d="M481.94,-212.65C480.48,-232.74 465.03,-254 413,-254 349.41,-254 340.46,-231.11 344.92,-211.02"/>
<polygon fill="black" stroke="black" points="348.25,-212.09 348,-201.5 341.59,-209.94 348.25,-212.09"/>
</g>
<!-- post_class_attribute&#45;&gt;daisy_chain -->
<g id="edge42" class="edge">
<title>post_class_attribute:state&#45;&gt;daisy_chain:w</title>
<path fill="none" stroke="black" d="M559,-189.5C631.31,-189.5 648.43,-176.34 720,-166 864.07,-145.18 901.22,-119.72 1041.7,-118.54"/>
<polygon fill="black" stroke="black" points="1042.01,-122.04 1052,-118.5 1041.99,-115.04 1042.01,-122.04"/>
</g>
<!-- subclass&#45;&gt;class_daisy_chain -->
<g id="edge68" class="edge">
<title>subclass:state&#45;&gt;class_daisy_chain:w</title>
<path fill="none" stroke="black" d="M475,-508C475,-549.03 413.14,-510.12 390,-544 387.18,-548.12 384.37,-561.24 384.68,-570.32"/>
<polygon fill="black" stroke="black" points="381.58,-571.94 389,-579.5 387.91,-568.96 381.58,-571.94"/>
</g>
<!-- subclass&#45;&gt;edge -->
<g id="edge69" class="edge">
<title>subclass:state&#45;&gt;edge:w</title>
<path fill="none" stroke="black" d="M475,-508C475,-567.65 252.09,-502.75 209,-544 174.58,-576.95 190,-601.86 190,-649.5 190,-734.5 190,-734.5 190,-734.5 190,-891.11 705.9,-910.75 876.96,-911.48"/>
<polygon fill="black" stroke="black" points="876.99,-914.98 887,-911.5 877.01,-907.98 876.99,-914.98"/>
</g>
<!-- subclass&#45;&gt;start_class_attribute -->
<g id="edge71" class="edge">
<title>subclass:state&#45;&gt;start_class_attribute:w</title>
<path fill="none" stroke="black" d="M475,-438C475,-350.39 339.92,-453.75 285,-385.5 282.98,-382.99 281.13,-379.62 280.12,-376.45"/>
<polygon fill="black" stroke="black" points="283.44,-377.58 284,-367 276.96,-374.92 283.44,-377.58"/>
</g>
<!-- subclass&#45;&gt;start_group -->
<g id="edge72" class="edge">
<title>subclass:state&#45;&gt;start_group:w</title>
<path fill="none" stroke="black" d="M514,-473C686.11,-473 518.45,-814.07 676.63,-828.06"/>
<polygon fill="black" stroke="black" points="676.86,-831.57 687,-828.5 677.16,-824.58 676.86,-831.57"/>
</g>
<!-- subclass&#45;&gt;subclass -->
<g id="edge73" class="edge">
<title>subclass:state&#45;&gt;subclass:w</title>
<path fill="none" stroke="black" d="M477.8,-507.55C473.37,-531.46 453.06,-555 394,-555 313.14,-555 304.93,-492.31 310.62,-459.75"/>
<polygon fill="black" stroke="black" points="314.03,-460.54 313,-450 307.23,-458.89 314.03,-460.54"/>
</g>
<!-- subclass&#45;&gt;node -->
<g id="edge70" class="edge">
<title>subclass:state&#45;&gt;node:w</title>
<path fill="none" stroke="black" d="M514,-473C574.81,-473 551.62,-378.67 602.92,-367.98"/>
<polygon fill="black" stroke="black" points="603.39,-371.45 613,-367 602.71,-364.49 603.39,-371.45"/>
</g>
<!-- daisy_chain&#45;&gt;edge -->
<g id="edge16" class="edge">
<title>daisy_chain:state&#45;&gt;edge:w</title>
<path fill="none" stroke="black" d="M1153,-130C1153,-147.33 1162.72,-149.49 1168,-166 1182.63,-211.81 1192,-223.41 1192,-271.5 1192,-651.5 1192,-651.5 1192,-651.5 1192,-761.1 1126.05,-782.09 1033,-840 976.63,-875.09 929.64,-824.28 888,-876 881.04,-884.64 875.57,-898.68 878.42,-906.26"/>
<polygon fill="black" stroke="black" points="876.64,-909.27 887,-911.5 880.29,-903.3 876.64,-909.27"/>
</g>
<!-- daisy_chain&#45;&gt;start_node -->
<g id="edge17" class="edge">
<title>daisy_chain:state&#45;&gt;start_node:w</title>
<path fill="none" stroke="black" d="M1153,-83C1153,-24.09 666.05,-88.27 624,-47 623.66,-46.66 623.32,-46.29 623.01,-45.89"/>
<polygon fill="black" stroke="black" points="626.51,-45.5 623,-35.5 619.51,-45.5 626.51,-45.5"/>
</g>
<!-- daisy_chain&#45;&gt;daisy_chain -->
<g id="edge15" class="edge">
<title>daisy_chain:state&#45;&gt;daisy_chain:w</title>
<path fill="none" stroke="black" d="M1157.33,-129.65C1156.8,-149.74 1144.48,-171 1103,-171 1051.61,-171 1044.98,-129.27 1050.08,-104.29"/>
<polygon fill="black" stroke="black" points="1053.49,-105.08 1053,-94.5 1046.79,-103.08 1053.49,-105.08"/>
</g>
<!-- post_group&#45;&gt;edge -->
<g id="edge47" class="edge">
<title>post_group:state&#45;&gt;edge:w</title>
<path fill="none" stroke="black" d="M1040,-213C1040,-230.17 1048.32,-232.8 1054,-249 1066.79,-285.48 1074.16,-293.79 1080,-332 1103.54,-485.92 1054.17,-526.6 1004,-674 978.37,-749.32 985.8,-777.17 937,-840 920.42,-861.34 900.54,-852.06 888,-876 883.02,-885.5 877.06,-898.49 878.7,-905.83"/>
<polygon fill="black" stroke="black" points="876.77,-908.75 887,-911.5 880.72,-902.97 876.77,-908.75"/>
</g>
<!-- post_group&#45;&gt;start_group -->
<g id="edge49" class="edge">
<title>post_group:state&#45;&gt;start_group:w</title>
<path fill="none" stroke="black" d="M1040,-213C1040,-248.26 732.15,-727.39 713,-757 700.46,-776.38 653.82,-819 676.92,-827.14"/>
<polygon fill="black" stroke="black" points="676.62,-830.63 687,-828.5 677.56,-823.7 676.62,-830.63"/>
</g>
<!-- post_group&#45;&gt;start_node -->
<g id="edge50" class="edge">
<title>post_group:state&#45;&gt;start_node:w</title>
<path fill="none" stroke="black" d="M1040,-166C1040,-117.92 654.58,-84.1 624,-47 623.69,-46.63 623.39,-46.23 623.1,-45.8"/>
<polygon fill="black" stroke="black" points="626.6,-45.47 623,-35.5 619.6,-45.53 626.6,-45.47"/>
</g>
<!-- post_group&#45;&gt;post_group -->
<g id="edge48" class="edge">
<title>post_group:state&#45;&gt;post_group:w</title>
<path fill="none" stroke="black" d="M1044.35,-212.65C1043.89,-232.74 1031.78,-254 991,-254 940.48,-254 933.96,-212.27 939.07,-187.29"/>
<polygon fill="black" stroke="black" points="942.49,-188.08 942,-177.5 935.78,-186.08 942.49,-188.08"/>
</g>
<!-- start_attribute&#45;&gt;attribute -->
<g id="edge58" class="edge">
<title>start_attribute:state&#45;&gt;attribute:w</title>
<path fill="none" stroke="black" d="M825,-208.5C825,-218.55 483.82,-293.88 474,-296 387,-314.77 353.95,-287.27 277,-332 132.61,-415.93 76,-482.49 76,-649.5 76,-900.5 76,-900.5 76,-900.5 76,-1002 394.16,-1057.1 508.87,-1060.35"/>
<polygon fill="black" stroke="black" points="508.95,-1063.85 519,-1060.5 509.05,-1056.85 508.95,-1063.85"/>
</g>
<!-- global -->
<g id="node16" class="node">
<title>global</title>
<polygon fill="none" stroke="black" points="333,-964.5 333,-1000.5 443,-1000.5 443,-964.5 333,-964.5"/>
<text text-anchor="middle" x="358" y="-978.8" font-family="Times,serif" font-size="14.00">/\s+/</text>
<polyline fill="none" stroke="black" points="383,-964.5 383,-1000.5 "/>
<text text-anchor="middle" x="413" y="-978.8" font-family="Times,serif" font-size="14.00">global</text>
</g>
<!-- global&#45;&gt;class -->
<g id="edge24" class="edge">
<title>global:state&#45;&gt;class:w</title>
<path fill="none" stroke="black" d="M413,-963.5C413,-833.25 285.24,-671.3 401.97,-662.85"/>
<polygon fill="black" stroke="black" points="402.13,-666.34 412,-662.5 401.89,-659.35 402.13,-666.34"/>
</g>
<!-- global&#45;&gt;edge -->
<g id="edge25" class="edge">
<title>global:state&#45;&gt;edge:w</title>
<path fill="none" stroke="black" d="M444,-982.5C639.99,-982.5 686.04,-913.91 876.91,-911.56"/>
<polygon fill="black" stroke="black" points="877.02,-915.06 887,-911.5 876.98,-908.06 877.02,-915.06"/>
</g>
<!-- global&#45;&gt;start_class_attribute -->
<g id="edge27" class="edge">
<title>global:state&#45;&gt;start_class_attribute:w</title>
<path fill="none" stroke="black" d="M413,-963.5C413,-911.64 247.39,-880.5 215,-840 190.59,-809.48 194.83,-795.06 186,-757 164.6,-664.77 154.9,-634.41 183,-544 208.83,-460.89 194.65,-374.06 273.87,-367.41"/>
<polygon fill="black" stroke="black" points="274.15,-370.9 284,-367 273.87,-363.91 274.15,-370.9"/>
</g>
<!-- global&#45;&gt;start_group -->
<g id="edge28" class="edge">
<title>global:state&#45;&gt;start_group:w</title>
<path fill="none" stroke="black" d="M444,-982.5C568.37,-982.5 559.73,-836.81 676.82,-828.84"/>
<polygon fill="black" stroke="black" points="677.12,-832.33 687,-828.5 676.89,-825.34 677.12,-832.33"/>
</g>
<!-- global&#45;&gt;start_node -->
<g id="edge29" class="edge">
<title>global:state&#45;&gt;start_node:w</title>
<path fill="none" stroke="black" d="M413,-963.5C413,-897.87 333.2,-943.93 271,-923 148.5,-881.79 0,-946.75 0,-817.5 0,-817.5 0,-817.5 0,-188.5 0,-49.14 459.1,-36.04 612.89,-35.52"/>
<polygon fill="black" stroke="black" points="613.01,-39.02 623,-35.5 612.99,-32.02 613.01,-39.02"/>
</g>
<!-- global&#45;&gt;global -->
<g id="edge26" class="edge">
<title>global:state&#45;&gt;global:w</title>
<path fill="none" stroke="black" d="M417.52,-1000.75C418.54,-1019.33 408.98,-1040 373,-1040 331.27,-1040 325.08,-1012.2 329.72,-992.11"/>
<polygon fill="black" stroke="black" points="333.08,-993.09 333,-982.5 326.46,-990.83 333.08,-993.09"/>
</g>
<!-- group&#45;&gt;class -->
<g id="edge30" class="edge">
<title>group:state&#45;&gt;class:w</title>
<path fill="none" stroke="black" d="M906,-710C906,-655.08 452.1,-712.57 413,-674 412.66,-673.66 412.33,-673.29 412.01,-672.88"/>
<polygon fill="black" stroke="black" points="415.51,-672.5 412,-662.5 408.51,-672.5 415.51,-672.5"/>
</g>
<!-- group&#45;&gt;edge -->
<g id="edge31" class="edge">
<title>group:state&#45;&gt;edge:w</title>
<path fill="none" stroke="black" d="M906,-757C906,-810.49 892.76,-822.72 888,-876 887.13,-885.7 880.94,-896.95 880.04,-904.14"/>
<polygon fill="black" stroke="black" points="877.59,-906.64 887,-911.5 882.67,-901.83 877.59,-906.64"/>
</g>
<!-- group&#45;&gt;start_node -->
<g id="edge33" class="edge">
<title>group:state&#45;&gt;start_node:w</title>
<path fill="none" stroke="black" d="M937,-733.5C997.5,-733.5 1088.01,-272.83 1097,-213 1100.1,-192.34 1108.96,-183.13 1097,-166 1066.38,-122.13 922.86,-96.15 871,-83 817.23,-69.37 662.07,-87.34 624,-47 623.67,-46.65 623.35,-46.26 623.04,-45.85"/>
<polygon fill="black" stroke="black" points="626.54,-45.49 623,-35.5 619.54,-45.51 626.54,-45.49"/>
</g>
<!-- group&#45;&gt;group -->
<g id="edge32" class="edge">
<title>group:state&#45;&gt;group:w</title>
<path fill="none" stroke="black" d="M910.3,-756.65C909.71,-776.74 897.19,-798 855,-798 802.73,-798 796,-756.27 801.08,-731.29"/>
<polygon fill="black" stroke="black" points="804.49,-732.08 804,-721.5 797.79,-730.08 804.49,-732.08"/>
</g>
<!-- node&#45;&gt;node -->
<g id="edge34" class="edge">
<title>node:state&#45;&gt;node:w</title>
<path fill="none" stroke="black" d="M712.18,-401.55C710.38,-425.46 697.75,-449 661,-449 610.69,-449 605.58,-386.31 611.59,-353.75"/>
<polygon fill="black" stroke="black" points="614.99,-354.55 614,-344 608.2,-352.87 614.99,-354.55"/>
</g>
<!-- node&#45;&gt;post_node -->
<g id="edge35" class="edge">
<title>node:state&#45;&gt;post_node:w</title>
<path fill="none" stroke="black" d="M708,-332C708,-314.11 694.35,-313.35 690,-296 687.54,-286.19 681.34,-274.38 681.36,-267.16"/>
<polygon fill="black" stroke="black" points="683.76,-269.71 689,-260.5 679.16,-264.43 683.76,-269.71"/>
</g>
<!-- post_node&#45;&gt;edge -->
<g id="edge52" class="edge">
<title>post_node:state&#45;&gt;edge:w</title>
<path fill="none" stroke="black" d="M831,-272.5C843.56,-272.5 943.4,-697.54 945,-710 947.66,-730.72 948.93,-736.48 945,-757 937.53,-795.99 930.44,-804.85 912,-840 903.07,-857.03 893.83,-857.68 888,-876 884.86,-885.87 878.61,-898.07 879.15,-905.3"/>
<polygon fill="black" stroke="black" points="876.98,-908.05 887,-911.5 881.32,-902.55 876.98,-908.05"/>
</g>
<!-- post_node&#45;&gt;start_group -->
<g id="edge56" class="edge">
<title>post_node:state&#45;&gt;start_group:w</title>
<path fill="none" stroke="black" d="M785,-296C785,-428.76 764.42,-460.89 738,-591 719.6,-681.64 700.48,-701.36 688,-793 686.67,-802.77 680.44,-814.2 679.82,-821.39"/>
<polygon fill="black" stroke="black" points="677.43,-823.95 687,-828.5 682.36,-818.98 677.43,-823.95"/>
</g>
<!-- post_node&#45;&gt;start_node -->
<g id="edge57" class="edge">
<title>post_node:state&#45;&gt;start_node:w</title>
<path fill="none" stroke="black" d="M785,-249C785,-215.98 743.57,-236.13 720,-213 658.48,-152.61 543.07,-44.81 612.99,-36.07"/>
<polygon fill="black" stroke="black" points="613.21,-39.56 623,-35.5 612.82,-32.57 613.21,-39.56"/>
</g>
<!-- post_node&#45;&gt;daisy_chain -->
<g id="edge51" class="edge">
<title>post_node:state&#45;&gt;daisy_chain:w</title>
<path fill="none" stroke="black" d="M831,-272.5C842.94,-272.5 836.03,-257.89 844,-249 862.52,-228.34 874.75,-231.97 895,-213 914.6,-194.64 911.38,-181.94 933,-166 975.97,-134.32 992.91,-120.29 1041.78,-118.66"/>
<polygon fill="black" stroke="black" points="1042.06,-122.16 1052,-118.5 1041.95,-115.16 1042.06,-122.16"/>
</g>
<!-- post_node&#45;&gt;post_group -->
<g id="edge53" class="edge">
<title>post_node:state&#45;&gt;post_group:w</title>
<path fill="none" stroke="black" d="M831,-272.5C842.94,-272.5 835.15,-257.01 844,-249 874.13,-221.76 893.69,-234.73 928,-213 930.44,-211.45 931.8,-209.45 932.94,-207.55"/>
<polygon fill="black" stroke="black" points="935.1,-210.3 941,-201.5 930.9,-204.7 935.1,-210.3"/>
</g>
<!-- post_node&#45;&gt;start_attribute -->
<g id="edge55" class="edge">
<title>post_node:state&#45;&gt;start_attribute:w</title>
<path fill="none" stroke="black" d="M785,-249C785,-217.79 742.98,-235.38 728,-208 726.52,-205.29 724.85,-202.01 723.78,-198.97"/>
<polygon fill="black" stroke="black" points="727.09,-200.09 727,-189.5 720.46,-197.84 727.09,-200.09"/>
</g>
<!-- post_node&#45;&gt;post_node -->
<g id="edge54" class="edge">
<title>post_node:state&#45;&gt;post_node:w</title>
<path fill="none" stroke="black" d="M789.39,-295.65C789.02,-315.74 777.23,-337 737.5,-337 688.95,-337 682.12,-314.11 686.87,-294.02"/>
<polygon fill="black" stroke="black" points="690.2,-295.09 690,-284.5 683.55,-292.91 690.2,-295.09"/>
</g>
</g>
</svg>
