<?xml version="1.0" encoding="UTF-8" standalone="no"?>
<!DOCTYPE svg PUBLIC "-//W3C//DTD SVG 1.1//EN"
 "http://www.w3.org/Graphics/SVG/1.1/DTD/svg11.dtd">
<!-- Generated by graphviz version 2.43.0 (0)
 -->
<!-- Title: Perl Pages: 1 -->
<svg width="534pt" height="174pt"
 viewBox="0.00 0.00 534.00 174.00" xmlns="http://www.w3.org/2000/svg" xmlns:xlink="http://www.w3.org/1999/xlink">
<g id="graph0" class="graph" transform="scale(1 1) rotate(0) translate(4 170)">
<title>Perl</title>
<polygon fill="white" stroke="transparent" points="-4,4 -4,-170 530,-170 530,4 -4,4"/>
<text text-anchor="middle" x="263" y="-7.8" font-family="Times,serif" font-size="14.00">Record demo 2 &#45; Nested records using an arrayref of hashrefs as labels</text>
<!-- struct1 -->
<g id="node1" class="node">
<title>struct1</title>
<polygon fill="none" stroke="black" points="121.25,-129.5 121.25,-165.5 284.25,-165.5 284.25,-129.5 121.25,-129.5"/>
<text text-anchor="middle" x="141.75" y="-143.8" font-family="Times,serif" font-size="14.00">left</text>
<polyline fill="none" stroke="black" points="162.25,-129.5 162.25,-165.5 "/>
<text text-anchor="middle" x="197.25" y="-143.8" font-family="Times,serif" font-size="14.00">mid dle</text>
<polyline fill="none" stroke="black" points="232.25,-129.5 232.25,-165.5 "/>
<text text-anchor="middle" x="258.25" y="-143.8" font-family="Times,serif" font-size="14.00">right</text>
</g>
<!-- struct2 -->
<g id="node2" class="node">
<title>struct2</title>
<polygon fill="none" stroke="black" points="89.25,-40 89.25,-76 174.25,-76 174.25,-40 89.25,-40"/>
<text text-anchor="middle" x="110.25" y="-54.3" font-family="Times,serif" font-size="14.00">one</text>
<polyline fill="none" stroke="black" points="131.25,-40 131.25,-76 "/>
<text text-anchor="middle" x="152.75" y="-54.3" font-family="Times,serif" font-size="14.00">two</text>
</g>
<!-- struct1&#45;&gt;struct2 -->
<g id="edge1" class="edge">
<title>struct1:f1&#45;&gt;struct2:f0</title>
<path fill="none" stroke="blue" d="M196.75,-129C196.75,-87.82 124.06,-116.11 111.57,-86.88"/>
<polygon fill="blue" stroke="blue" points="115,-86.2 109.75,-77 108.12,-87.47 115,-86.2"/>
</g>
<!-- struct3 -->
<g id="node3" class="node">
<title>struct3</title>
<path fill="none" stroke="black" d="M204.75,-23.5C204.75,-23.5 424.75,-23.5 424.75,-23.5 430.75,-23.5 436.75,-29.5 436.75,-35.5 436.75,-35.5 436.75,-80.5 436.75,-80.5 436.75,-86.5 430.75,-92.5 424.75,-92.5 424.75,-92.5 204.75,-92.5 204.75,-92.5 198.75,-92.5 192.75,-86.5 192.75,-80.5 192.75,-80.5 192.75,-35.5 192.75,-35.5 192.75,-29.5 198.75,-23.5 204.75,-23.5"/>
<text text-anchor="middle" x="221.25" y="-61.8" font-family="Times,serif" font-size="14.00">hello</text>
<text text-anchor="middle" x="221.25" y="-46.8" font-family="Times,serif" font-size="14.00">world</text>
<polyline fill="none" stroke="black" points="249.75,-23.5 249.75,-92.5 "/>
<text text-anchor="middle" x="317.25" y="-77.3" font-family="Times,serif" font-size="14.00">b</text>
<polyline fill="none" stroke="black" points="249.75,-69.5 384.75,-69.5 "/>
<text text-anchor="middle" x="291.75" y="-54.3" font-family="Times,serif" font-size="14.00">c{|}&lt;&gt;&quot;&quot;</text>
<polyline fill="none" stroke="black" points="333.75,-46.5 333.75,-69.5 "/>
<text text-anchor="middle" x="346.75" y="-54.3" font-family="Times,serif" font-size="14.00">d</text>
<polyline fill="none" stroke="black" points="359.75,-46.5 359.75,-69.5 "/>
<text text-anchor="middle" x="372.25" y="-54.3" font-family="Times,serif" font-size="14.00">e</text>
<polyline fill="none" stroke="black" points="249.75,-46.5 384.75,-46.5 "/>
<text text-anchor="middle" x="317.25" y="-31.3" font-family="Times,serif" font-size="14.00">f</text>
<polyline fill="none" stroke="black" points="384.75,-23.5 384.75,-92.5 "/>
<text text-anchor="middle" x="397.75" y="-54.3" font-family="Times,serif" font-size="14.00">g</text>
<polyline fill="none" stroke="black" points="410.75,-23.5 410.75,-92.5 "/>
<text text-anchor="middle" x="423.75" y="-54.3" font-family="Times,serif" font-size="14.00">h</text>
</g>
<!-- struct1&#45;&gt;struct3 -->
<g id="edge2" class="edge">
<title>struct1:f2&#45;&gt;struct3:here</title>
<path fill="none" stroke="red" d="M258.75,-129C258.75,-95.55 297.73,-75.18 323.8,-65.29"/>
<polygon fill="red" stroke="red" points="325.12,-68.53 333.38,-61.9 322.79,-61.94 325.12,-68.53"/>
</g>
</g>
</svg>
