<?xml version="1.0" encoding="UTF-8" standalone="no"?>
<!DOCTYPE svg PUBLIC "-//W3C//DTD SVG 1.1//EN"
 "http://www.w3.org/Graphics/SVG/1.1/DTD/svg11.dtd">
<!-- Generated by graphviz version 2.43.0 (0)
 -->
<!-- Title: Perl Pages: 1 -->
<svg width="278pt" height="78pt"
 viewBox="0.00 0.00 278.00 78.42" xmlns="http://www.w3.org/2000/svg" xmlns:xlink="http://www.w3.org/1999/xlink">
<g id="graph0" class="graph" transform="scale(1 1) rotate(0) translate(4 74.42)">
<title>Perl</title>
<polygon fill="white" stroke="transparent" points="-4,4 -4,-74.42 274,-74.42 274,4 -4,4"/>
<!-- foo -->
<g id="node1" class="node">
<title>foo</title>
<ellipse fill="none" stroke="green" cx="27" cy="-19.42" rx="27" ry="18"/>
<text text-anchor="middle" x="27" y="-15.72" font-family="Times,serif" font-size="14.00">foo</text>
</g>
<!-- foo&#45;&gt;foo -->
<g id="edge6" class="edge">
<title>foo&#45;&gt;foo</title>
<path fill="none" stroke="grey" d="M17.43,-36.45C15.48,-46.27 18.67,-55.42 27,-55.42 32.21,-55.42 35.41,-51.84 36.6,-46.77"/>
<polygon fill="grey" stroke="grey" points="40.1,-46.44 36.57,-36.45 33.1,-46.46 40.1,-46.44"/>
<text text-anchor="middle" x="27" y="-59.22" font-family="Times,serif" font-size="14.00">/./</text>
</g>
<!-- bar -->
<g id="node2" class="node">
<title>bar</title>
<ellipse fill="none" stroke="green" cx="136" cy="-19.42" rx="27" ry="18"/>
<text text-anchor="middle" x="136" y="-15.72" font-family="Times,serif" font-size="14.00">bar</text>
</g>
<!-- foo&#45;&gt;bar -->
<g id="edge5" class="edge">
<title>foo&#45;&gt;bar</title>
<path fill="none" stroke="grey" d="M54.18,-19.42C67.52,-19.42 83.96,-19.42 98.52,-19.42"/>
<polygon fill="grey" stroke="grey" points="98.72,-22.92 108.72,-19.42 98.72,-15.92 98.72,-22.92"/>
<text text-anchor="middle" x="81.5" y="-23.22" font-family="Times,serif" font-size="14.00">/b/</text>
</g>
<!-- bar&#45;&gt;foo -->
<g id="edge3" class="edge">
<title>bar&#45;&gt;foo</title>
<path fill="none" stroke="grey" d="M114.5,-8.43C102.28,-3.18 86.4,1.42 72,-1.42 67.51,-2.3 62.89,-3.65 58.42,-5.21"/>
<polygon fill="grey" stroke="grey" points="57.01,-2.01 48.97,-8.9 59.56,-8.53 57.01,-2.01"/>
<text text-anchor="middle" x="81.5" y="-5.22" font-family="Times,serif" font-size="14.00">/a/</text>
</g>
<!-- bar&#45;&gt;bar -->
<g id="edge1" class="edge">
<title>bar&#45;&gt;bar</title>
<path fill="none" stroke="grey" d="M126.79,-36.45C124.91,-46.27 127.98,-55.42 136,-55.42 141.01,-55.42 144.09,-51.84 145.24,-46.77"/>
<polygon fill="grey" stroke="grey" points="148.74,-46.44 145.21,-36.45 141.74,-46.46 148.74,-46.44"/>
<text text-anchor="middle" x="136" y="-59.22" font-family="Times,serif" font-size="14.00">/b/</text>
</g>
<!-- baz -->
<g id="node3" class="node">
<title>baz</title>
<ellipse fill="none" stroke="green" cx="243" cy="-19.42" rx="27" ry="18"/>
<text text-anchor="middle" x="243" y="-15.72" font-family="Times,serif" font-size="14.00">baz</text>
</g>
<!-- bar&#45;&gt;baz -->
<g id="edge2" class="edge">
<title>bar&#45;&gt;baz</title>
<path fill="none" stroke="grey" d="M163.23,-19.42C176,-19.42 191.58,-19.42 205.5,-19.42"/>
<polygon fill="grey" stroke="grey" points="205.75,-22.92 215.75,-19.42 205.75,-15.92 205.75,-22.92"/>
<text text-anchor="middle" x="189.5" y="-23.22" font-family="Times,serif" font-size="14.00">/c/</text>
</g>
<!-- baz&#45;&gt;baz -->
<g id="edge4" class="edge">
<title>baz&#45;&gt;baz</title>
<path fill="none" stroke="grey" d="M233.79,-36.45C231.91,-46.27 234.98,-55.42 243,-55.42 248.01,-55.42 251.09,-51.84 252.24,-46.77"/>
<polygon fill="grey" stroke="grey" points="255.74,-46.44 252.21,-36.45 248.74,-46.46 255.74,-46.44"/>
<text text-anchor="middle" x="243" y="-59.22" font-family="Times,serif" font-size="14.00">/./</text>
</g>
</g>
</svg>
