<?xml version="1.0" encoding="UTF-8" standalone="no"?>
<!DOCTYPE svg PUBLIC "-//W3C//DTD SVG 1.1//EN"
 "http://www.w3.org/Graphics/SVG/1.1/DTD/svg11.dtd">
<!-- Generated by graphviz version 2.43.0 (0)
 -->
<!-- Title: Perl Pages: 1 -->
<svg width="1122pt" height="1126pt"
 viewBox="0.00 0.00 1121.95 1126.00" xmlns="http://www.w3.org/2000/svg" xmlns:xlink="http://www.w3.org/1999/xlink">
<g id="graph0" class="graph" transform="scale(1 1) rotate(0) translate(4 1122)">
<title>Perl</title>
<polygon fill="white" stroke="transparent" points="-4,4 -4,-1122 1117.95,-1122 1117.95,4 -4,4"/>
<!-- attribute -->
<g id="node1" class="node">
<title>attribute</title>
<polygon fill="none" stroke="black" points="263,-1042.5 263,-1078.5 421,-1078.5 421,-1042.5 263,-1042.5"/>
<text text-anchor="middle" x="302" y="-1056.8" font-family="Times,serif" font-size="14.00">/[\w :;]+/</text>
<polyline fill="none" stroke="black" points="341,-1042.5 341,-1078.5 "/>
<text text-anchor="middle" x="381" y="-1056.8" font-family="Times,serif" font-size="14.00">attribute</text>
</g>
<!-- attribute&#45;&gt;attribute -->
<g id="edge1" class="edge">
<title>attribute:state&#45;&gt;attribute:w</title>
<path fill="none" stroke="black" d="M385.16,-1078.75C385.2,-1097.33 371.94,-1118 322,-1118 264.09,-1118 255.5,-1090.2 259.78,-1070.11"/>
<polygon fill="black" stroke="black" points="263.14,-1071.09 263,-1060.5 256.51,-1068.87 263.14,-1071.09"/>
</g>
<!-- post_attribute -->
<g id="node2" class="node">
<title>post_attribute</title>
<polygon fill="none" stroke="black" points="604,-959.5 604,-1005.5 772,-1005.5 772,-959.5 604,-959.5"/>
<text text-anchor="middle" x="629" y="-990.3" font-family="Times,serif" font-size="14.00">/\s+/</text>
<polyline fill="none" stroke="black" points="604,-982.5 654,-982.5 "/>
<text text-anchor="middle" x="629" y="-967.3" font-family="Times,serif" font-size="14.00">/}/</text>
<polyline fill="none" stroke="black" points="654,-959.5 654,-1005.5 "/>
<text text-anchor="middle" x="713" y="-978.8" font-family="Times,serif" font-size="14.00">post_attribute</text>
</g>
<!-- attribute&#45;&gt;post_attribute -->
<g id="edge2" class="edge">
<title>attribute:state&#45;&gt;post_attribute:w</title>
<path fill="none" stroke="black" d="M422,-1060.5C508.33,-1060.5 512.92,-977.39 592.87,-970.9"/>
<polygon fill="black" stroke="black" points="593.15,-974.39 603,-970.5 592.87,-967.4 593.15,-974.39"/>
</g>
<!-- post_attribute&#45;&gt;post_attribute -->
<g id="edge38" class="edge">
<title>post_attribute:state&#45;&gt;post_attribute:w</title>
<path fill="none" stroke="black" d="M717.18,-1005.58C716.11,-1024.86 702.65,-1045 658.5,-1045 604.43,-1045 596.4,-1023.49 600.77,-1004.24"/>
<polygon fill="black" stroke="black" points="604.17,-1005.09 604,-994.5 597.53,-1002.89 604.17,-1005.09"/>
</g>
<!-- edge -->
<g id="node5" class="node">
<title>edge</title>
<polygon fill="none" stroke="black" points="713,-876.5 713,-922.5 869,-922.5 869,-876.5 713,-876.5"/>
<text text-anchor="middle" x="765.5" y="-907.3" font-family="Times,serif" font-size="14.00">/[&#45;&lt;=&gt;~.]+/</text>
<polyline fill="none" stroke="black" points="713,-899.5 818,-899.5 "/>
<text text-anchor="middle" x="765.5" y="-884.3" font-family="Times,serif" font-size="14.00">/\s+/</text>
<polyline fill="none" stroke="black" points="818,-876.5 818,-922.5 "/>
<text text-anchor="middle" x="843.5" y="-895.8" font-family="Times,serif" font-size="14.00">edge</text>
</g>
<!-- post_attribute&#45;&gt;edge -->
<g id="edge37" class="edge">
<title>post_attribute:state&#45;&gt;edge:w</title>
<path fill="none" stroke="black" d="M773,-982.5C783.45,-982.5 777.31,-968.01 772,-959 756.4,-932.54 729.18,-949.11 713,-923 712.75,-922.59 712.49,-922.16 712.23,-921.71"/>
<polygon fill="black" stroke="black" points="715.72,-921.42 712,-911.5 708.72,-921.58 715.72,-921.42"/>
</g>
<!-- start_node -->
<g id="node8" class="node">
<title>start_node</title>
<polygon fill="none" stroke="black" points="900,-0.5 900,-46.5 1042,-46.5 1042,-0.5 900,-0.5"/>
<text text-anchor="middle" x="925" y="-31.3" font-family="Times,serif" font-size="14.00">/\[/</text>
<polyline fill="none" stroke="black" points="900,-23.5 950,-23.5 "/>
<text text-anchor="middle" x="925" y="-8.3" font-family="Times,serif" font-size="14.00">/\s+/</text>
<polyline fill="none" stroke="black" points="950,-0.5 950,-46.5 "/>
<text text-anchor="middle" x="996" y="-19.8" font-family="Times,serif" font-size="14.00">start_node</text>
</g>
<!-- post_attribute&#45;&gt;start_node -->
<g id="edge40" class="edge">
<title>post_attribute:state&#45;&gt;start_node:w</title>
<path fill="none" stroke="black" d="M1104,-188.5C1092.76,-154.3 1119.45,-140.02 1104,-107.5"/>
</g>
<!-- daisy_chain -->
<g id="node13" class="node">
<title>daisy_chain</title>
<polygon fill="none" stroke="black" points="927.5,-83.5 927.5,-129.5 1076.5,-129.5 1076.5,-83.5 927.5,-83.5"/>
<text text-anchor="middle" x="952.5" y="-114.3" font-family="Times,serif" font-size="14.00">/,/</text>
<polyline fill="none" stroke="black" points="927.5,-106.5 977.5,-106.5 "/>
<text text-anchor="middle" x="952.5" y="-91.3" font-family="Times,serif" font-size="14.00">/\s+/</text>
<polyline fill="none" stroke="black" points="977.5,-83.5 977.5,-129.5 "/>
<text text-anchor="middle" x="1027" y="-102.8" font-family="Times,serif" font-size="14.00">daisy_chain</text>
</g>
<!-- post_attribute&#45;&gt;daisy_chain -->
<g id="edge36" class="edge">
<title>post_attribute:state&#45;&gt;daisy_chain:w</title>
<path fill="none" stroke="black" d="M1104,-188.5C1081.46,-108.77 978.83,-194.64 927,-130 926.71,-129.64 926.42,-129.24 926.14,-128.83"/>
<polygon fill="black" stroke="black" points="929.61,-128.3 925.54,-118.52 922.63,-128.71 929.61,-128.3"/>
<path fill="none" stroke="black" d="M1066,-898.5C1115.64,-842.52 1104,-809.32 1104,-734.5 1104,-734.5 1104,-734.5 1104,-366 1104,-288 1125.22,-265.56 1104,-190.5"/>
</g>
<!-- post_group -->
<g id="node14" class="node">
<title>post_group</title>
<polygon fill="none" stroke="black" points="778,-166.5 778,-212.5 924,-212.5 924,-166.5 778,-166.5"/>
<text text-anchor="middle" x="803" y="-197.3" font-family="Times,serif" font-size="14.00">/\)/</text>
<polyline fill="none" stroke="black" points="778,-189.5 828,-189.5 "/>
<text text-anchor="middle" x="803" y="-174.3" font-family="Times,serif" font-size="14.00">/\s+/</text>
<polyline fill="none" stroke="black" points="828,-166.5 828,-212.5 "/>
<text text-anchor="middle" x="876" y="-185.8" font-family="Times,serif" font-size="14.00">post_group</text>
</g>
<!-- post_attribute&#45;&gt;post_group -->
<g id="edge39" class="edge">
<title>post_attribute:state&#45;&gt;post_group:w</title>
<path fill="none" stroke="black" d="M773,-982.5C840.61,-982.5 1023.63,-953.19 1066,-900.5"/>
<path fill="none" stroke="black" d="M1066,-898.5C1071.93,-891.13 867.33,-256.03 861,-249 834.08,-219.13 801.5,-245.63 778,-213 777.72,-212.61 777.44,-212.19 777.16,-211.75"/>
<polygon fill="black" stroke="black" points="780.66,-211.44 777,-201.5 773.66,-211.55 780.66,-211.44"/>
</g>
<!-- class -->
<g id="node3" class="node">
<title>class</title>
<polygon fill="none" stroke="black" points="404.5,-627.5 404.5,-673.5 579.5,-673.5 579.5,-627.5 404.5,-627.5"/>
<text text-anchor="middle" x="466" y="-658.3" font-family="Times,serif" font-size="14.00">/[a&#45;z][a&#45;z0&#45;9_]*/</text>
<polyline fill="none" stroke="black" points="404.5,-650.5 527.5,-650.5 "/>
<text text-anchor="middle" x="466" y="-635.3" font-family="Times,serif" font-size="14.00">/\s+/</text>
<polyline fill="none" stroke="black" points="527.5,-627.5 527.5,-673.5 "/>
<text text-anchor="middle" x="553.5" y="-646.8" font-family="Times,serif" font-size="14.00">class</text>
</g>
<!-- class&#45;&gt;class -->
<g id="edge3" class="edge">
<title>class:state&#45;&gt;class:w</title>
<path fill="none" stroke="black" d="M557.67,-673.65C555.6,-693.74 538.06,-715 479,-715 405.83,-715 396.4,-673.27 401.13,-648.29"/>
<polygon fill="black" stroke="black" points="404.55,-649.08 404,-638.5 397.83,-647.11 404.55,-649.08"/>
</g>
<!-- class_daisy_chain -->
<g id="node4" class="node">
<title>class_daisy_chain</title>
<polygon fill="none" stroke="black" points="390.5,-544.5 390.5,-590.5 581.5,-590.5 581.5,-544.5 390.5,-544.5"/>
<text text-anchor="middle" x="415.5" y="-575.3" font-family="Times,serif" font-size="14.00">/,/</text>
<polyline fill="none" stroke="black" points="390.5,-567.5 440.5,-567.5 "/>
<text text-anchor="middle" x="415.5" y="-552.3" font-family="Times,serif" font-size="14.00">/\s+/</text>
<polyline fill="none" stroke="black" points="440.5,-544.5 440.5,-590.5 "/>
<text text-anchor="middle" x="511" y="-563.8" font-family="Times,serif" font-size="14.00">class_daisy_chain</text>
</g>
<!-- class&#45;&gt;class_daisy_chain -->
<g id="edge4" class="edge">
<title>class:state&#45;&gt;class_daisy_chain:w</title>
<path fill="none" stroke="black" d="M554,-627C554,-552.38 439.25,-647.07 390,-591 389.68,-590.64 389.37,-590.24 389.07,-589.83"/>
<polygon fill="black" stroke="black" points="392.57,-589.48 389,-579.5 385.57,-589.52 392.57,-589.48"/>
</g>
<!-- class&#45;&gt;edge -->
<g id="edge5" class="edge">
<title>class:state&#45;&gt;edge:w</title>
<path fill="none" stroke="black" d="M554,-674C554,-748.26 530.77,-778.91 573,-840 610.5,-894.25 639.45,-909.93 701.72,-911.39"/>
<polygon fill="black" stroke="black" points="701.96,-914.89 712,-911.5 702.04,-907.89 701.96,-914.89"/>
</g>
<!-- start_class_attribute -->
<g id="node6" class="node">
<title>start_class_attribute</title>
<polygon fill="none" stroke="black" points="190.5,-349 190.5,-385 389.5,-385 389.5,-349 190.5,-349"/>
<text text-anchor="middle" x="208" y="-363.3" font-family="Times,serif" font-size="14.00">/{/</text>
<polyline fill="none" stroke="black" points="225.5,-349 225.5,-385 "/>
<text text-anchor="middle" x="307.5" y="-363.3" font-family="Times,serif" font-size="14.00">start_class_attribute</text>
</g>
<!-- class&#45;&gt;start_class_attribute -->
<g id="edge6" class="edge">
<title>class:state&#45;&gt;start_class_attribute:w</title>
<path fill="none" stroke="black" d="M456,-472C442.56,-461.09 450.93,-448.27 437,-438 346.67,-371.4 262.96,-470.78 190,-385.5 187.94,-383.09 186.1,-379.8 185.08,-376.66"/>
<polygon fill="black" stroke="black" points="188.47,-377.6 188.62,-367.01 181.89,-375.19 188.47,-377.6"/>
<path fill="none" stroke="black" d="M581,-650.5C628.54,-650.5 615.7,-584.62 591,-544 555.89,-486.25 508.47,-516.6 456,-474"/>
</g>
<!-- start_group -->
<g id="node7" class="node">
<title>start_group</title>
<polygon fill="none" stroke="black" points="582,-793.5 582,-839.5 732,-839.5 732,-793.5 582,-793.5"/>
<text text-anchor="middle" x="607" y="-824.3" font-family="Times,serif" font-size="14.00">/\(/</text>
<polyline fill="none" stroke="black" points="582,-816.5 632,-816.5 "/>
<text text-anchor="middle" x="607" y="-801.3" font-family="Times,serif" font-size="14.00">/\s+/</text>
<polyline fill="none" stroke="black" points="632,-793.5 632,-839.5 "/>
<text text-anchor="middle" x="682" y="-812.8" font-family="Times,serif" font-size="14.00">start_group</text>
</g>
<!-- class&#45;&gt;start_group -->
<g id="edge7" class="edge">
<title>class:state&#45;&gt;start_group:w</title>
<path fill="none" stroke="black" d="M612,-734.5C625.5,-760.41 589.26,-764.7 582,-793 578.08,-808.29 565.22,-828.5 581,-828.5"/>
<path fill="none" stroke="black" d="M554,-674C554,-707.04 587.45,-701.65 606.41,-724.13"/>
<polygon fill="black" stroke="black" points="603.54,-726.13 612,-732.5 609.36,-722.24 603.54,-726.13"/>
</g>
<!-- class&#45;&gt;start_node -->
<g id="edge8" class="edge">
<title>class:state&#45;&gt;start_node:w</title>
<path fill="none" stroke="black" d="M456,-472C441.09,-458.29 433.56,-115.86 452,-107.5"/>
</g>
<!-- start_subclass -->
<g id="node9" class="node">
<title>start_subclass</title>
<polygon fill="none" stroke="black" points="218,-549.5 218,-585.5 372,-585.5 372,-549.5 218,-549.5"/>
<text text-anchor="middle" x="235.5" y="-563.8" font-family="Times,serif" font-size="14.00">/\./</text>
<polyline fill="none" stroke="black" points="253,-549.5 253,-585.5 "/>
<text text-anchor="middle" x="312.5" y="-563.8" font-family="Times,serif" font-size="14.00">start_subclass</text>
</g>
<!-- class&#45;&gt;start_subclass -->
<g id="edge9" class="edge">
<title>class:state&#45;&gt;start_subclass:w</title>
<path fill="none" stroke="black" d="M554,-627C554,-551.78 269.37,-640.95 218,-586 215.72,-583.56 213.76,-580.04 212.8,-576.74"/>
<polygon fill="black" stroke="black" points="216.05,-578.05 217,-567.5 209.68,-575.16 216.05,-578.05"/>
</g>
<!-- class_daisy_chain&#45;&gt;class -->
<g id="edge12" class="edge">
<title>class_daisy_chain:state&#45;&gt;class:w</title>
<path fill="none" stroke="black" d="M511,-591C511,-641.18 433.85,-586.67 404,-627 397.54,-635.72 392.03,-649.23 394.35,-656.82"/>
<polygon fill="black" stroke="black" points="392.72,-659.94 403,-662.5 396.56,-654.09 392.72,-659.94"/>
</g>
<!-- class_daisy_chain&#45;&gt;class_daisy_chain -->
<g id="edge13" class="edge">
<title>class_daisy_chain:state&#45;&gt;class_daisy_chain:w</title>
<path fill="none" stroke="black" d="M515.05,-590.65C513.87,-610.74 499.37,-632 450.5,-632 389.96,-632 382.15,-590.27 387.1,-565.29"/>
<polygon fill="black" stroke="black" points="390.51,-566.08 390,-555.5 383.8,-564.09 390.51,-566.08"/>
</g>
<!-- subclass -->
<g id="node12" class="node">
<title>subclass</title>
<polygon fill="none" stroke="black" points="228,-438.5 228,-507.5 428,-507.5 428,-438.5 228,-438.5"/>
<text text-anchor="middle" x="289.5" y="-492.3" font-family="Times,serif" font-size="14.00">/[a&#45;z][a&#45;z0&#45;9_]*/</text>
<polyline fill="none" stroke="black" points="228,-484.5 351,-484.5 "/>
<text text-anchor="middle" x="289.5" y="-469.3" font-family="Times,serif" font-size="14.00">/\./</text>
<polyline fill="none" stroke="black" points="228,-461.5 351,-461.5 "/>
<text text-anchor="middle" x="289.5" y="-446.3" font-family="Times,serif" font-size="14.00">/\s+/</text>
<polyline fill="none" stroke="black" points="351,-438.5 351,-507.5 "/>
<text text-anchor="middle" x="389.5" y="-469.3" font-family="Times,serif" font-size="14.00">subclass</text>
</g>
<!-- class_daisy_chain&#45;&gt;subclass -->
<g id="edge14" class="edge">
<title>class_daisy_chain:state&#45;&gt;subclass:w</title>
<path fill="none" stroke="black" d="M511,-544C511,-480.6 270.58,-554.97 228,-508 220.65,-499.89 215.45,-485.88 218.42,-478.28"/>
<polygon fill="black" stroke="black" points="220.32,-481.22 227,-473 216.65,-475.26 220.32,-481.22"/>
</g>
<!-- edge&#45;&gt;edge -->
<g id="edge19" class="edge">
<title>edge:state&#45;&gt;edge:w</title>
<path fill="none" stroke="black" d="M847.92,-922.65C846.43,-942.74 830.88,-964 778.5,-964 713.6,-964 705.24,-922.27 710.11,-897.29"/>
<polygon fill="black" stroke="black" points="713.53,-898.08 713,-887.5 706.81,-896.1 713.53,-898.08"/>
</g>
<!-- edge&#45;&gt;start_group -->
<g id="edge22" class="edge">
<title>edge:state&#45;&gt;start_group:w</title>
<path fill="none" stroke="black" d="M844,-876C844,-817.23 622.51,-882.58 582,-840 581.67,-839.65 581.35,-839.27 581.04,-838.86"/>
<polygon fill="black" stroke="black" points="584.53,-838.49 581,-828.5 577.53,-838.51 584.53,-838.49"/>
</g>
<!-- edge&#45;&gt;start_node -->
<g id="edge23" class="edge">
<title>edge:state&#45;&gt;start_node:w</title>
<path fill="none" stroke="black" d="M1104,-105.5C1099.08,-93.67 1096.96,-89.62 1086,-83 1013.94,-39.45 956.35,-109.57 900,-47 899.69,-46.65 899.38,-46.28 899.09,-45.87"/>
<polygon fill="black" stroke="black" points="902.56,-45.32 898.54,-35.52 895.57,-45.69 902.56,-45.32"/>
<path fill="none" stroke="black" d="M870,-899.5C983.87,-899.5 1066,-848.37 1066,-734.5 1066,-734.5 1066,-734.5 1066,-271.5 1066,-223.41 1079.07,-212.83 1090,-166 1096.08,-139.97 1114.26,-132.19 1104,-107.5"/>
</g>
<!-- edge&#45;&gt;daisy_chain -->
<g id="edge18" class="edge">
<title>edge:state&#45;&gt;daisy_chain:w</title>
<path fill="none" stroke="black" d="M870,-899.5C960.68,-899.5 990,-825.18 990,-734.5 990,-734.5 990,-734.5 990,-271.5 990,-221.03 970.11,-211.37 948,-166 941.07,-151.78 922.65,-134.95 918.87,-125.62"/>
<polygon fill="black" stroke="black" points="921.4,-128.04 926,-118.5 916.45,-123.09 921.4,-128.04"/>
</g>
<!-- edge&#45;&gt;post_group -->
<g id="edge20" class="edge">
<title>edge:state&#45;&gt;post_group:w</title>
<path fill="none" stroke="black" d="M876,-732.5C837.63,-556.51 853.95,-507.63 814,-332 808.35,-307.18 764.37,-231.24 768.97,-208.2"/>
<polygon fill="black" stroke="black" points="771.41,-210.71 776.65,-201.5 766.81,-205.43 771.41,-210.71"/>
</g>
<!-- start_attribute -->
<g id="node15" class="node">
<title>start_attribute</title>
<polygon fill="none" stroke="black" points="564.5,-171.5 564.5,-207.5 721.5,-207.5 721.5,-171.5 564.5,-171.5"/>
<text text-anchor="middle" x="582" y="-185.8" font-family="Times,serif" font-size="14.00">/{/</text>
<polyline fill="none" stroke="black" points="599.5,-171.5 599.5,-207.5 "/>
<text text-anchor="middle" x="660.5" y="-185.8" font-family="Times,serif" font-size="14.00">start_attribute</text>
</g>
<!-- edge&#45;&gt;start_attribute -->
<g id="edge21" class="edge">
<title>edge:state&#45;&gt;start_attribute:w</title>
<path fill="none" stroke="black" d="M844,-876C844,-859.88 880.04,-750.11 876,-734.5"/>
<path fill="none" stroke="black" d="M876,-732.5C870.15,-692.76 800,-608.67 800,-568.5 800,-568.5 800,-568.5 800,-472 800,-364.27 793.06,-311.06 705,-249 651.66,-211.4 604.57,-259.12 564,-208 562,-205.48 560.15,-202.11 559.14,-198.93"/>
<polygon fill="black" stroke="black" points="562.45,-200.08 563,-189.5 555.97,-197.43 562.45,-200.08"/>
</g>
<!-- class_attribute -->
<g id="node10" class="node">
<title>class_attribute</title>
<polygon fill="none" stroke="black" points="164,-254.5 164,-290.5 364,-290.5 364,-254.5 164,-254.5"/>
<text text-anchor="middle" x="203" y="-268.8" font-family="Times,serif" font-size="14.00">/[\w :;]+/</text>
<polyline fill="none" stroke="black" points="242,-254.5 242,-290.5 "/>
<text text-anchor="middle" x="303" y="-268.8" font-family="Times,serif" font-size="14.00">class_attribute</text>
</g>
<!-- start_class_attribute&#45;&gt;class_attribute -->
<g id="edge59" class="edge">
<title>start_class_attribute:state&#45;&gt;class_attribute:w</title>
<path fill="none" stroke="black" d="M308,-348C308,-279.17 204.21,-346.86 164,-291 162.12,-288.39 160.3,-285 159.27,-281.83"/>
<polygon fill="black" stroke="black" points="162.54,-283.08 163,-272.5 156.04,-280.49 162.54,-283.08"/>
</g>
<!-- start_group&#45;&gt;edge -->
<g id="edge60" class="edge">
<title>start_group:state&#45;&gt;edge:w</title>
<path fill="none" stroke="black" d="M733,-816.5C743.45,-816.5 734.73,-829.91 732,-840 729.08,-850.78 696.87,-892.74 702.79,-906.85"/>
<polygon fill="black" stroke="black" points="701.5,-910.11 712,-911.5 704.65,-903.87 701.5,-910.11"/>
</g>
<!-- start_group&#45;&gt;start_group -->
<g id="edge63" class="edge">
<title>start_group:state&#45;&gt;start_group:w</title>
<path fill="none" stroke="black" d="M686.33,-839.65C685.8,-859.74 673.48,-881 632,-881 580.61,-881 573.98,-839.27 579.08,-814.29"/>
<polygon fill="black" stroke="black" points="582.49,-815.08 582,-804.5 575.79,-813.08 582.49,-815.08"/>
</g>
<!-- start_group&#45;&gt;post_group -->
<g id="edge62" class="edge">
<title>start_group:state&#45;&gt;post_group:w</title>
<path fill="none" stroke="black" d="M682,-793C682,-776.13 672.7,-773.65 670,-757 666.65,-736.38 667.43,-730.73 670,-710 676.72,-655.87 688.04,-644.22 700,-591 704.41,-571.37 746.48,-263.51 770.58,-209.54"/>
<polygon fill="black" stroke="black" points="773.5,-211.5 777,-201.5 768.03,-207.13 773.5,-211.5"/>
</g>
<!-- group -->
<g id="node17" class="node">
<title>group</title>
<polygon fill="none" stroke="black" points="678.5,-710.5 678.5,-756.5 809.5,-756.5 809.5,-710.5 678.5,-710.5"/>
<text text-anchor="middle" x="714.5" y="-741.3" font-family="Times,serif" font-size="14.00">/[\w.]+:/</text>
<polyline fill="none" stroke="black" points="678.5,-733.5 750.5,-733.5 "/>
<text text-anchor="middle" x="714.5" y="-718.3" font-family="Times,serif" font-size="14.00">/\s+/</text>
<polyline fill="none" stroke="black" points="750.5,-710.5 750.5,-756.5 "/>
<text text-anchor="middle" x="780" y="-729.8" font-family="Times,serif" font-size="14.00">group</text>
</g>
<!-- start_group&#45;&gt;group -->
<g id="edge61" class="edge">
<title>start_group:state&#45;&gt;group:w</title>
<path fill="none" stroke="black" d="M733,-816.5C743.45,-816.5 737.13,-802.11 732,-793 717.85,-767.86 692.7,-781.82 678,-757 677.75,-756.59 677.5,-756.15 677.25,-755.7"/>
<polygon fill="black" stroke="black" points="680.74,-755.41 677,-745.5 673.75,-755.58 680.74,-755.41"/>
</g>
<!-- start_node&#45;&gt;start_node -->
<g id="edge66" class="edge">
<title>start_node:state&#45;&gt;start_node:w</title>
<path fill="none" stroke="black" d="M1000.38,-46.65C999.98,-66.74 988.08,-88 948,-88 898.35,-88 891.95,-46.27 897.07,-21.29"/>
<polygon fill="black" stroke="black" points="900.49,-22.08 900,-11.5 893.78,-20.08 900.49,-22.08"/>
</g>
<!-- node -->
<g id="node18" class="node">
<title>node</title>
<polygon fill="none" stroke="black" points="484.5,-332.5 484.5,-401.5 603.5,-401.5 603.5,-332.5 484.5,-332.5"/>
<text text-anchor="middle" x="518.5" y="-386.3" font-family="Times,serif" font-size="14.00">/[\w.]+/</text>
<polyline fill="none" stroke="black" points="484.5,-378.5 552.5,-378.5 "/>
<text text-anchor="middle" x="518.5" y="-363.3" font-family="Times,serif" font-size="14.00">/\[/</text>
<polyline fill="none" stroke="black" points="484.5,-355.5 552.5,-355.5 "/>
<text text-anchor="middle" x="518.5" y="-340.3" font-family="Times,serif" font-size="14.00">/\s+/</text>
<polyline fill="none" stroke="black" points="552.5,-332.5 552.5,-401.5 "/>
<text text-anchor="middle" x="578" y="-363.3" font-family="Times,serif" font-size="14.00">node</text>
</g>
<!-- start_node&#45;&gt;node -->
<g id="edge64" class="edge">
<title>start_node:state&#45;&gt;node:w</title>
<path fill="none" stroke="black" d="M996,-47C996,-60.4 565.6,-156.81 498.67,-183.21"/>
<polygon fill="black" stroke="black" points="496.71,-180.3 490,-188.5 500.36,-186.28 496.71,-180.3"/>
<path fill="none" stroke="black" d="M490,-190.5C497.46,-211.39 460.82,-390 483,-390"/>
</g>
<!-- post_node -->
<g id="node19" class="node">
<title>post_node</title>
<polygon fill="none" stroke="black" points="556.5,-249.5 556.5,-295.5 695.5,-295.5 695.5,-249.5 556.5,-249.5"/>
<text text-anchor="middle" x="581.5" y="-280.3" font-family="Times,serif" font-size="14.00">/\s+/</text>
<polyline fill="none" stroke="black" points="556.5,-272.5 606.5,-272.5 "/>
<text text-anchor="middle" x="581.5" y="-257.3" font-family="Times,serif" font-size="14.00">/]/</text>
<polyline fill="none" stroke="black" points="606.5,-249.5 606.5,-295.5 "/>
<text text-anchor="middle" x="651" y="-268.8" font-family="Times,serif" font-size="14.00">post_node</text>
</g>
<!-- start_node&#45;&gt;post_node -->
<g id="edge65" class="edge">
<title>start_node:state&#45;&gt;post_node:w</title>
<path fill="none" stroke="black" d="M490,-190.5C504.29,-230.48 512.54,-260.5 555,-260.5"/>
</g>
<!-- start_subclass&#45;&gt;subclass -->
<g id="edge67" class="edge">
<title>start_subclass:state&#45;&gt;subclass:w</title>
<path fill="none" stroke="black" d="M313,-548.5C313,-506.65 251.79,-542.43 228,-508 227.62,-507.45 227.24,-506.85 226.86,-506.22"/>
<polygon fill="black" stroke="black" points="230.37,-506.05 227,-496 223.37,-505.95 230.37,-506.05"/>
</g>
<!-- class_attribute&#45;&gt;class_attribute -->
<g id="edge10" class="edge">
<title>class_attribute:state&#45;&gt;class_attribute:w</title>
<path fill="none" stroke="black" d="M306.98,-290.78C306.78,-310.15 291.76,-332 233.5,-332 166.35,-332 156.64,-302.97 160.87,-282.16"/>
<polygon fill="black" stroke="black" points="164.25,-283.09 164,-272.5 157.59,-280.94 164.25,-283.09"/>
</g>
<!-- post_class_attribute -->
<g id="node11" class="node">
<title>post_class_attribute</title>
<polygon fill="none" stroke="black" points="214,-166.5 214,-212.5 424,-212.5 424,-166.5 214,-166.5"/>
<text text-anchor="middle" x="239" y="-197.3" font-family="Times,serif" font-size="14.00">/\s+/</text>
<polyline fill="none" stroke="black" points="214,-189.5 264,-189.5 "/>
<text text-anchor="middle" x="239" y="-174.3" font-family="Times,serif" font-size="14.00">/}/</text>
<polyline fill="none" stroke="black" points="264,-166.5 264,-212.5 "/>
<text text-anchor="middle" x="344" y="-185.8" font-family="Times,serif" font-size="14.00">post_class_attribute</text>
</g>
<!-- class_attribute&#45;&gt;post_class_attribute -->
<g id="edge11" class="edge">
<title>class_attribute:state&#45;&gt;post_class_attribute:w</title>
<path fill="none" stroke="black" d="M303,-253.5C303,-210.04 238.03,-249.21 214,-213 208,-203.96 202.32,-190.57 204.48,-183.08"/>
<polygon fill="black" stroke="black" points="206.56,-185.91 213,-177.5 202.72,-180.05 206.56,-185.91"/>
</g>
<!-- post_class_attribute&#45;&gt;class -->
<g id="edge41" class="edge">
<title>post_class_attribute:state&#45;&gt;class:w</title>
<path fill="none" stroke="black" d="M114,-474C84.86,-624.56 249.65,-662.5 403,-662.5"/>
</g>
<!-- post_class_attribute&#45;&gt;edge -->
<g id="edge43" class="edge">
<title>post_class_attribute:state&#45;&gt;edge:w</title>
<path fill="none" stroke="black" d="M344,-213C344,-298.51 215.27,-188.34 155,-249 86.4,-318.04 109.58,-367.77 113.65,-461.84"/>
<polygon fill="black" stroke="black" points="110.15,-462.13 114,-472 117.15,-461.88 110.15,-462.13"/>
<path fill="none" stroke="black" d="M114,-474C95.1,-592.25 114.76,-639.34 190,-732.5"/>
<path fill="none" stroke="black" d="M190,-734.5C220.66,-853.09 589.51,-911.5 712,-911.5"/>
</g>
<!-- post_class_attribute&#45;&gt;start_group -->
<g id="edge45" class="edge">
<title>post_class_attribute:state&#45;&gt;start_group:w</title>
<path fill="none" stroke="black" d="M425,-189.5C437.14,-189.5 468.09,-392.79 476,-402 527.48,-461.9 594.36,-409.51 641.74,-464"/>
<polygon fill="black" stroke="black" points="639.08,-466.28 648,-472 644.6,-461.97 639.08,-466.28"/>
<path fill="none" stroke="black" d="M648,-474C673.64,-510.31 696.62,-523.34 686,-566.5"/>
<path fill="none" stroke="black" d="M686,-568.5C676.54,-606.93 657.59,-610.86 649,-649.5"/>
</g>
<!-- post_class_attribute&#45;&gt;start_node -->
<g id="edge46" class="edge">
<title>post_class_attribute:state&#45;&gt;start_node:w</title>
<path fill="none" stroke="black" d="M425,-189.5C444.18,-189.5 434.59,-115.56 452,-107.5"/>
</g>
<!-- post_class_attribute&#45;&gt;post_class_attribute -->
<g id="edge44" class="edge">
<title>post_class_attribute:state&#45;&gt;post_class_attribute:w</title>
<path fill="none" stroke="black" d="M347.94,-212.65C346.48,-232.74 331.03,-254 279,-254 215.41,-254 206.46,-231.11 210.92,-211.02"/>
<polygon fill="black" stroke="black" points="214.25,-212.09 214,-201.5 207.59,-209.94 214.25,-212.09"/>
</g>
<!-- post_class_attribute&#45;&gt;daisy_chain -->
<g id="edge42" class="edge">
<title>post_class_attribute:state&#45;&gt;daisy_chain:w</title>
<path fill="none" stroke="black" d="M425,-189.5C484.15,-189.5 497.42,-174.19 556,-166 714.37,-143.87 768.79,-196.98 914,-130 916.31,-128.94 917.57,-127.25 918.54,-125.48"/>
<polygon fill="black" stroke="black" points="921.09,-127.89 926,-118.5 916.31,-122.78 921.09,-127.89"/>
</g>
<!-- subclass&#45;&gt;class_daisy_chain -->
<g id="edge68" class="edge">
<title>subclass:state&#45;&gt;class_daisy_chain:w</title>
<path fill="none" stroke="black" d="M429,-473C444.56,-473 434.35,-493.79 428,-508 418.5,-529.24 399.49,-522.76 390,-544 387.99,-548.5 385.02,-561.24 385,-570.17"/>
<polygon fill="black" stroke="black" points="381.84,-571.69 389,-579.5 388.28,-568.93 381.84,-571.69"/>
</g>
<!-- subclass&#45;&gt;edge -->
<g id="edge69" class="edge">
<title>subclass:state&#45;&gt;edge:w</title>
<path fill="none" stroke="black" d="M390,-508C390,-590.02 264.15,-483.29 209,-544 154.7,-603.77 170.58,-646.6 187.79,-722.57"/>
<polygon fill="black" stroke="black" points="184.41,-723.5 190,-732.5 191.24,-721.98 184.41,-723.5"/>
</g>
<!-- subclass&#45;&gt;start_class_attribute -->
<g id="edge71" class="edge">
<title>subclass:state&#45;&gt;start_class_attribute:w</title>
<path fill="none" stroke="black" d="M390,-438C390,-346.1 248.07,-456.72 190,-385.5 187.97,-383.01 186.11,-379.64 185.1,-376.46"/>
<polygon fill="black" stroke="black" points="188.42,-377.58 189,-367 181.95,-374.91 188.42,-377.58"/>
</g>
<!-- subclass&#45;&gt;start_group -->
<g id="edge72" class="edge">
<title>subclass:state&#45;&gt;start_group:w</title>
<path fill="none" stroke="black" d="M429,-473C445.59,-473 429.59,-496.98 442,-508 492.94,-553.23 536.87,-502.63 591,-544 630.69,-574.34 656.26,-594.31 650.67,-639.47"/>
<polygon fill="black" stroke="black" points="647.19,-639.06 649,-649.5 654.1,-640.21 647.19,-639.06"/>
<path fill="none" stroke="black" d="M649,-651.5C641,-690.26 593.72,-697.4 612,-732.5"/>
</g>
<!-- subclass&#45;&gt;subclass -->
<g id="edge73" class="edge">
<title>subclass:state&#45;&gt;subclass:w</title>
<path fill="none" stroke="black" d="M392.8,-507.55C388.37,-531.46 368.06,-555 309,-555 228.14,-555 219.93,-492.31 225.62,-459.75"/>
<polygon fill="black" stroke="black" points="229.03,-460.54 228,-450 222.23,-458.89 229.03,-460.54"/>
</g>
<!-- subclass&#45;&gt;node -->
<g id="edge70" class="edge">
<title>subclass:state&#45;&gt;node:w</title>
<path fill="none" stroke="black" d="M429,-473C445.59,-473 434.94,-453.02 442,-438 455.87,-408.5 448.58,-374.96 472.97,-368.22"/>
<polygon fill="black" stroke="black" points="473.49,-371.68 483,-367 472.65,-364.73 473.49,-371.68"/>
</g>
<!-- daisy_chain&#45;&gt;edge -->
<g id="edge16" class="edge">
<title>daisy_chain:state&#45;&gt;edge:w</title>
<path fill="none" stroke="black" d="M1027,-130C1027,-192.89 1028,-208.61 1028,-271.5 1028,-651.5 1028,-651.5 1028,-651.5 1028,-760.25 964.65,-783.06 872,-840 810.27,-877.94 759.02,-820.03 713,-876 705.95,-884.57 700.52,-898.64 703.4,-906.24"/>
<polygon fill="black" stroke="black" points="701.64,-909.27 712,-911.5 705.3,-903.3 701.64,-909.27"/>
</g>
<!-- daisy_chain&#45;&gt;start_node -->
<g id="edge17" class="edge">
<title>daisy_chain:state&#45;&gt;start_node:w</title>
<path fill="none" stroke="black" d="M1027,-83C1027,-24.33 937.37,-92.22 900,-47 899.69,-46.63 899.39,-46.23 899.1,-45.8"/>
<polygon fill="black" stroke="black" points="902.59,-45.47 899,-35.5 895.6,-45.53 902.59,-45.47"/>
</g>
<!-- daisy_chain&#45;&gt;daisy_chain -->
<g id="edge15" class="edge">
<title>daisy_chain:state&#45;&gt;daisy_chain:w</title>
<path fill="none" stroke="black" d="M1031.33,-129.65C1030.8,-149.74 1018.48,-171 977,-171 925.61,-171 918.98,-129.27 924.08,-104.29"/>
<polygon fill="black" stroke="black" points="927.49,-105.08 927,-94.5 920.79,-103.08 927.49,-105.08"/>
</g>
<!-- post_group&#45;&gt;edge -->
<g id="edge47" class="edge">
<title>post_group:state&#45;&gt;edge:w</title>
<path fill="none" stroke="black" d="M876,-213C876,-220.21 926.52,-324.94 928,-332 934.36,-362.45 929.66,-370.93 928,-402 919.54,-560.45 954.22,-611.9 890,-757 877.46,-785.33 851.59,-782.58 841.11,-805.7"/>
<polygon fill="black" stroke="black" points="837.69,-804.91 838,-815.5 844.36,-807.03 837.69,-804.91"/>
</g>
<!-- post_group&#45;&gt;start_group -->
<g id="edge49" class="edge">
<title>post_group:state&#45;&gt;start_group:w</title>
<path fill="none" stroke="black" d="M876,-213C876,-233.64 718.97,-500.83 690.28,-557.24"/>
<polygon fill="black" stroke="black" points="687.01,-555.95 686,-566.5 693.37,-558.89 687.01,-555.95"/>
</g>
<!-- post_group&#45;&gt;start_node -->
<g id="edge50" class="edge">
<title>post_group:state&#45;&gt;start_node:w</title>
<path fill="none" stroke="black" d="M900,-105.5C908.76,-81.12 880.66,-48.81 888.98,-38.68"/>
<polygon fill="black" stroke="black" points="890.23,-41.95 898.64,-35.5 888.05,-35.3 890.23,-41.95"/>
<path fill="none" stroke="black" d="M876,-166C876,-137.9 890.5,-133.95 900,-107.5"/>
</g>
<!-- post_group&#45;&gt;post_group -->
<g id="edge48" class="edge">
<title>post_group:state&#45;&gt;post_group:w</title>
<path fill="none" stroke="black" d="M880.35,-212.65C879.89,-232.74 867.78,-254 827,-254 776.48,-254 769.96,-212.27 775.07,-187.29"/>
<polygon fill="black" stroke="black" points="778.49,-188.08 778,-177.5 771.78,-186.08 778.49,-188.08"/>
</g>
<!-- start_attribute&#45;&gt;attribute -->
<g id="edge58" class="edge">
<title>start_attribute:state&#45;&gt;attribute:w</title>
<path fill="none" stroke="black" d="M661,-208.5C661,-216.86 381.12,-294.01 373,-296 289.11,-316.59 246.39,-274.41 182,-332 121.01,-386.55 154.12,-430.46 128,-508 106.61,-571.49 76,-582.5 76,-649.5 76,-900.5 76,-900.5 76,-900.5 76,-1006.14 148.22,-1057.26 251.87,-1060.35"/>
<polygon fill="black" stroke="black" points="251.95,-1063.85 262,-1060.5 252.05,-1056.85 251.95,-1063.85"/>
</g>
<!-- global -->
<g id="node16" class="node">
<title>global</title>
<polygon fill="none" stroke="black" points="148,-964.5 148,-1000.5 258,-1000.5 258,-964.5 148,-964.5"/>
<text text-anchor="middle" x="173" y="-978.8" font-family="Times,serif" font-size="14.00">/\s+/</text>
<polyline fill="none" stroke="black" points="198,-964.5 198,-1000.5 "/>
<text text-anchor="middle" x="228" y="-978.8" font-family="Times,serif" font-size="14.00">global</text>
</g>
<!-- global&#45;&gt;class -->
<g id="edge24" class="edge">
<title>global:state&#45;&gt;class:w</title>
<path fill="none" stroke="black" d="M228,-898.5C302.19,-795.56 274.14,-669.84 392.3,-662.81"/>
<polygon fill="black" stroke="black" points="392.73,-666.3 402.62,-662.5 392.52,-659.3 392.73,-666.3"/>
</g>
<!-- global&#45;&gt;edge -->
<g id="edge25" class="edge">
<title>global:state&#45;&gt;edge:w</title>
<path fill="none" stroke="black" d="M259,-982.5C459.41,-982.5 506.66,-913.84 701.98,-911.56"/>
<polygon fill="black" stroke="black" points="702.02,-915.06 712,-911.5 701.98,-908.06 702.02,-915.06"/>
</g>
<!-- global&#45;&gt;start_class_attribute -->
<g id="edge27" class="edge">
<title>global:state&#45;&gt;start_class_attribute:w</title>
<path fill="none" stroke="black" d="M228,-963.5C228,-935.5 211.07,-922.8 228,-900.5"/>
<path fill="none" stroke="black" d="M228,-898.5C249.03,-870.79 191.91,-870.93 176,-840 154,-797.24 152,-782.59 152,-734.5 152,-734.5 152,-734.5 152,-649.5 152,-642.47 174.97,-424.83 185.64,-376.46"/>
<polygon fill="black" stroke="black" points="188.95,-377.59 189,-367 182.35,-375.25 188.95,-377.59"/>
</g>
<!-- global&#45;&gt;start_group -->
<g id="edge28" class="edge">
<title>global:state&#45;&gt;start_group:w</title>
<path fill="none" stroke="black" d="M228,-898.5C272.85,-836.28 482.8,-829.02 570.46,-828.53"/>
<polygon fill="black" stroke="black" points="570.54,-832.03 580.53,-828.5 570.52,-825.03 570.54,-832.03"/>
</g>
<!-- global&#45;&gt;start_node -->
<g id="edge29" class="edge">
<title>global:state&#45;&gt;start_node:w</title>
<path fill="none" stroke="black" d="M452,-105.5C540.78,-65.9 781.74,-37.44 888.5,-35.6"/>
<polygon fill="black" stroke="black" points="888.74,-39.09 898.7,-35.5 888.67,-32.09 888.74,-39.09"/>
<path fill="none" stroke="black" d="M228,-963.5C228,-903.34 0,-877.66 0,-817.5 0,-817.5 0,-817.5 0,-649.5 0,-464.06 20.16,-407.15 117,-249 145.08,-203.15 157.67,-191.51 205,-166 304.31,-112.47 348.97,-153.46 452,-107.5"/>
</g>
<!-- global&#45;&gt;global -->
<g id="edge26" class="edge">
<title>global:state&#45;&gt;global:w</title>
<path fill="none" stroke="black" d="M232.52,-1000.75C233.54,-1019.33 223.98,-1040 188,-1040 146.27,-1040 140.08,-1012.2 144.72,-992.11"/>
<polygon fill="black" stroke="black" points="148.08,-993.09 148,-982.5 141.46,-990.83 148.08,-993.09"/>
</g>
<!-- group&#45;&gt;class -->
<g id="edge30" class="edge">
<title>group:state&#45;&gt;class:w</title>
<path fill="none" stroke="black" d="M780,-710C780,-626.06 463.09,-733.61 404,-674 403.66,-673.66 403.33,-673.28 403.02,-672.87"/>
<polygon fill="black" stroke="black" points="406.52,-672.49 403,-662.5 399.52,-672.51 406.52,-672.49"/>
</g>
<!-- group&#45;&gt;edge -->
<g id="edge31" class="edge">
<title>group:state&#45;&gt;edge:w</title>
<path fill="none" stroke="black" d="M838,-817.5C824.52,-877.34 746.65,-824.71 713,-876 704.34,-889.2 696.22,-911.5 712,-911.5"/>
<path fill="none" stroke="black" d="M780,-757C780,-789.61 832.39,-782.2 838.16,-805.43"/>
<polygon fill="black" stroke="black" points="834.66,-805.44 838,-815.5 841.66,-805.56 834.66,-805.44"/>
</g>
<!-- group&#45;&gt;start_node -->
<g id="edge33" class="edge">
<title>group:state&#45;&gt;start_node:w</title>
<path fill="none" stroke="black" d="M780,-710C780,-478.88 898.62,-441.55 933,-213 936.11,-192.34 938.31,-186.2 933,-166 925.42,-137.13 889.91,-135.59 900,-107.5"/>
</g>
<!-- group&#45;&gt;group -->
<g id="edge32" class="edge">
<title>group:state&#45;&gt;group:w</title>
<path fill="none" stroke="black" d="M784.3,-756.65C783.71,-776.74 771.19,-798 729,-798 676.73,-798 670,-756.27 675.08,-731.29"/>
<polygon fill="black" stroke="black" points="678.49,-732.08 678,-721.5 671.79,-730.08 678.49,-732.08"/>
</g>
<!-- node&#45;&gt;node -->
<g id="edge34" class="edge">
<title>node:state&#45;&gt;node:w</title>
<path fill="none" stroke="black" d="M582.18,-401.55C580.38,-425.46 567.75,-449 531,-449 480.69,-449 475.58,-386.31 481.59,-353.75"/>
<polygon fill="black" stroke="black" points="484.99,-354.55 484,-344 478.2,-352.87 484.99,-354.55"/>
</g>
<!-- node&#45;&gt;post_node -->
<g id="edge35" class="edge">
<title>node:state&#45;&gt;post_node:w</title>
<path fill="none" stroke="black" d="M578,-332C578,-313.25 561.33,-313.98 556,-296 553.09,-286.19 546.9,-274.17 547.2,-266.94"/>
<polygon fill="black" stroke="black" points="549.52,-269.57 555,-260.5 545.06,-264.17 549.52,-269.57"/>
</g>
<!-- post_node&#45;&gt;edge -->
<g id="edge52" class="edge">
<title>post_node:state&#45;&gt;edge:w</title>
<path fill="none" stroke="black" d="M697,-272.5C788.39,-272.5 743.8,-592.94 786,-674 796.02,-693.25 809.36,-690.55 819,-710 838.58,-749.52 847.16,-766.45 840.02,-805.63"/>
<polygon fill="black" stroke="black" points="836.58,-805 838,-815.5 843.44,-806.41 836.58,-805"/>
</g>
<!-- post_node&#45;&gt;start_group -->
<g id="edge56" class="edge">
<title>post_node:state&#45;&gt;start_group:w</title>
<path fill="none" stroke="black" d="M651,-296C651,-370.72 607.72,-404.53 642.55,-463.5"/>
<polygon fill="black" stroke="black" points="639.66,-465.47 648,-472 645.55,-461.69 639.66,-465.47"/>
</g>
<!-- post_node&#45;&gt;start_node -->
<g id="edge57" class="edge">
<title>post_node:state&#45;&gt;start_node:w</title>
<path fill="none" stroke="black" d="M651,-249C651,-203.85 593.83,-237.65 556,-213 500.83,-177.06 392.26,-135.18 452,-107.5"/>
</g>
<!-- post_node&#45;&gt;daisy_chain -->
<g id="edge51" class="edge">
<title>post_node:state&#45;&gt;daisy_chain:w</title>
<path fill="none" stroke="black" d="M697,-272.5C708.94,-272.5 703.64,-259.1 710,-249 722.05,-229.85 750.3,-178.74 769,-166 823.87,-128.61 855.85,-162.05 914,-130 916.22,-128.77 917.46,-127.03 918.43,-125.27"/>
<polygon fill="black" stroke="black" points="920.88,-127.78 926,-118.5 916.22,-122.56 920.88,-127.78"/>
</g>
<!-- post_node&#45;&gt;post_group -->
<g id="edge53" class="edge">
<title>post_node:state&#45;&gt;post_group:w</title>
<path fill="none" stroke="black" d="M697,-272.5C708.94,-272.5 701.92,-257.78 710,-249 729.54,-227.78 741.14,-230.6 764,-213 766.29,-211.24 767.61,-209.18 768.77,-207.29"/>
<polygon fill="black" stroke="black" points="770.84,-210.12 777,-201.5 766.81,-204.39 770.84,-210.12"/>
</g>
<!-- post_node&#45;&gt;start_attribute -->
<g id="edge55" class="edge">
<title>post_node:state&#45;&gt;start_attribute:w</title>
<path fill="none" stroke="black" d="M651,-249C651,-206.25 587.86,-243.47 564,-208 562.28,-205.44 560.55,-202.2 559.49,-199.14"/>
<polygon fill="black" stroke="black" points="562.87,-200.09 563,-189.5 556.29,-197.7 562.87,-200.09"/>
</g>
<!-- post_node&#45;&gt;post_node -->
<g id="edge54" class="edge">
<title>post_node:state&#45;&gt;post_node:w</title>
<path fill="none" stroke="black" d="M655.39,-295.65C655.02,-315.74 643.23,-337 603.5,-337 554.95,-337 548.12,-314.11 552.87,-294.02"/>
<polygon fill="black" stroke="black" points="556.2,-295.09 556,-284.5 549.55,-292.91 556.2,-295.09"/>
</g>
</g>
</svg>
