<?xml version="1.0" encoding="UTF-8" standalone="no"?>
<!DOCTYPE svg PUBLIC "-//W3C//DTD SVG 1.1//EN"
 "http://www.w3.org/Graphics/SVG/1.1/DTD/svg11.dtd">
<!-- Generated by graphviz version 2.43.0 (0)
 -->
<!-- Title: Perl Pages: 1 -->
<svg width="534pt" height="174pt"
 viewBox="0.00 0.00 534.00 174.00" xmlns="http://www.w3.org/2000/svg" xmlns:xlink="http://www.w3.org/1999/xlink">
<g id="graph0" class="graph" transform="scale(1 1) rotate(0) translate(4 170)">
<title>Perl</title>
<polygon fill="white" stroke="transparent" points="-4,4 -4,-170 530,-170 530,4 -4,4"/>
<text text-anchor="middle" x="263" y="-7.8" font-family="Times,serif" font-size="14.00">Record demo 2 &#45; Nested records using an arrayref of hashrefs as labels</text>
<!-- struct1 -->
<g id="node1" class="node">
<title>struct1</title>
<polygon fill="none" stroke="black" points="121.25,-129.5 121.25,-165.5 284.25,-165.5 284.25,-129.5 121.25,-129.5"/>
<text text-anchor="middle" x="141.75" y="-143.8" font-family="Times,serif" font-size="14.00">left</text>
<polyline fill="none" stroke="black" points="162.25,-129.5 162.25,-165.5 "/>
<text text-anchor="middle" x="197.25" y="-143.8" font-family="Times,serif" font-size="14.00">mid dle</text>
<polyline fill="none" stroke="black" points="232.25,-129.5 232.25,-165.5 "/>
<text text-anchor="middle" x="258.25" y="-143.8" font-family="Times,serif" font-size="14.00">right</text>
</g>
<!-- struct2 -->
<g id="node2" class="node">
<title>struct2</title>
<polygon fill="none" stroke="black" points="119.25,-40 119.25,-76 204.25,-76 204.25,-40 119.25,-40"/>
<text text-anchor="middle" x="140.25" y="-54.3" font-family="Times,serif" font-size="14.00">one</text>
<polyline fill="none" stroke="black" points="161.25,-40 161.25,-76 "/>
<text text-anchor="middle" x="182.75" y="-54.3" font-family="Times,serif" font-size="14.00">two</text>
</g>
<!-- struct1&#45;&gt;struct2 -->
<g id="edge1" class="edge">
<title>struct1:f1&#45;&gt;struct2:f0</title>
<path fill="none" stroke="blue" d="M196.75,-129C196.75,-98.59 151.93,-108.19 141.78,-86.84"/>
<polygon fill="blue" stroke="blue" points="145.2,-86.09 139.75,-77 138.34,-87.5 145.2,-86.09"/>
</g>
<!-- struct3 -->
<g id="node3" class="node">
<title>struct3</title>
<path fill="none" stroke="black" d="M234.75,-23.5C234.75,-23.5 394.75,-23.5 394.75,-23.5 400.75,-23.5 406.75,-29.5 406.75,-35.5 406.75,-35.5 406.75,-80.5 406.75,-80.5 406.75,-86.5 400.75,-92.5 394.75,-92.5 394.75,-92.5 234.75,-92.5 234.75,-92.5 228.75,-92.5 222.75,-86.5 222.75,-80.5 222.75,-80.5 222.75,-35.5 222.75,-35.5 222.75,-29.5 228.75,-23.5 234.75,-23.5"/>
<text text-anchor="middle" x="251.25" y="-61.8" font-family="Times,serif" font-size="14.00">hello</text>
<text text-anchor="middle" x="251.25" y="-46.8" font-family="Times,serif" font-size="14.00">world</text>
<polyline fill="none" stroke="black" points="279.75,-23.5 279.75,-92.5 "/>
<text text-anchor="middle" x="317.25" y="-77.3" font-family="Times,serif" font-size="14.00">b</text>
<polyline fill="none" stroke="black" points="279.75,-69.5 354.75,-69.5 "/>
<text text-anchor="middle" x="291.75" y="-54.3" font-family="Times,serif" font-size="14.00">c</text>
<polyline fill="none" stroke="black" points="303.75,-46.5 303.75,-69.5 "/>
<text text-anchor="middle" x="316.75" y="-54.3" font-family="Times,serif" font-size="14.00">d</text>
<polyline fill="none" stroke="black" points="329.75,-46.5 329.75,-69.5 "/>
<text text-anchor="middle" x="342.25" y="-54.3" font-family="Times,serif" font-size="14.00">e</text>
<polyline fill="none" stroke="black" points="279.75,-46.5 354.75,-46.5 "/>
<text text-anchor="middle" x="317.25" y="-31.3" font-family="Times,serif" font-size="14.00">f</text>
<polyline fill="none" stroke="black" points="354.75,-23.5 354.75,-92.5 "/>
<text text-anchor="middle" x="367.75" y="-54.3" font-family="Times,serif" font-size="14.00">g</text>
<polyline fill="none" stroke="black" points="380.75,-23.5 380.75,-92.5 "/>
<text text-anchor="middle" x="393.75" y="-54.3" font-family="Times,serif" font-size="14.00">h</text>
</g>
<!-- struct1&#45;&gt;struct3 -->
<g id="edge2" class="edge">
<title>struct1:f2&#45;&gt;struct3:here</title>
<path fill="none" stroke="red" d="M258.75,-129C258.75,-116.65 280.07,-93.17 296.86,-76.6"/>
<polygon fill="red" stroke="red" points="299.41,-79.01 304.16,-69.54 294.54,-73.98 299.41,-79.01"/>
</g>
</g>
</svg>
