<?xml version="1.0" encoding="UTF-8" standalone="no"?>
<!DOCTYPE svg PUBLIC "-//W3C//DTD SVG 1.1//EN"
 "http://www.w3.org/Graphics/SVG/1.1/DTD/svg11.dtd">
<!-- Generated by graphviz version 2.43.0 (0)
 -->
<!-- Title: Perl Pages: 1 -->
<svg width="444pt" height="113pt"
 viewBox="0.00 0.00 443.99 113.02" xmlns="http://www.w3.org/2000/svg" xmlns:xlink="http://www.w3.org/1999/xlink">
<g id="graph0" class="graph" transform="scale(1 1) rotate(0) translate(4 109.02)">
<title>Perl</title>
<polygon fill="white" stroke="transparent" points="-4,4 -4,-109.02 439.99,-109.02 439.99,4 -4,4"/>
<text text-anchor="middle" x="218" y="-7.8" font-family="Times,serif" font-size="14.00">HTML label demo # 3 &#45; Fixing newlines</text>
<!-- One -->
<g id="node1" class="node">
<title>One</title>
<ellipse fill="none" stroke="black" cx="34.65" cy="-64.01" rx="34.8" ry="26.74"/>
<text text-anchor="start" x="20.15" y="-67.81" font-family="Times,serif" font-size="14.00">One</text>
<text text-anchor="start" x="18.15" y="-52.81" font-family="Times,serif" font-size="14.00" fill="#0000ff">Blue</text>
</g>
<!-- Two -->
<g id="node2" class="node">
<title>Two</title>
<ellipse fill="none" stroke="black" cx="129.65" cy="-64.01" rx="42.35" ry="26.74"/>
<text text-anchor="start" x="114.65" y="-67.81" font-family="Times,serif" font-size="14.00">Two</text>
<text text-anchor="start" x="107.65" y="-52.81" font-family="Times,serif" font-size="14.00" fill="#00ff00">Green</text>
</g>
<!-- Three -->
<g id="node3" class="node">
<title>Three</title>
<ellipse fill="none" stroke="red" cx="239.65" cy="-64.01" rx="49.49" ry="41.02"/>
<polygon fill="none" stroke="red" points="215.65,-65.01 215.65,-86.01 263.65,-86.01 263.65,-65.01 215.65,-65.01"/>
<text text-anchor="start" x="218.65" y="-71.81" font-family="Times,serif" font-size="14.00">Three</text>
<polygon fill="none" stroke="red" points="215.65,-42.01 215.65,-63.01 263.65,-63.01 263.65,-42.01 215.65,-42.01"/>
<text text-anchor="start" x="225.65" y="-48.81" font-family="Times,serif" font-size="14.00">Red</text>
<polygon fill="none" stroke="red" points="212.65,-39.01 212.65,-89.01 266.65,-89.01 266.65,-39.01 212.65,-39.01"/>
</g>
<!-- Four -->
<g id="node4" class="node">
<title>Four</title>
<ellipse fill="none" stroke="magenta" cx="371.65" cy="-64.01" rx="64.19" ry="35.21"/>
<polygon fill="none" stroke="magenta" points="337.65,-46.01 337.65,-82.01 406.65,-82.01 406.65,-46.01 337.65,-46.01"/>
<text text-anchor="start" x="355.15" y="-67.81" font-family="Times,serif" font-size="14.00">Four</text>
<text text-anchor="start" x="340.65" y="-52.81" font-family="Times,serif" font-size="14.00">magenta</text>
<polygon fill="none" stroke="magenta" points="334.15,-43.01 334.15,-85.01 409.15,-85.01 409.15,-43.01 334.15,-43.01"/>
</g>
</g>
</svg>
