<?xml version="1.0" encoding="UTF-8" standalone="no"?>
<!DOCTYPE svg PUBLIC "-//W3C//DTD SVG 1.1//EN"
 "http://www.w3.org/Graphics/SVG/1.1/DTD/svg11.dtd">
<!-- Generated by graphviz version 2.43.0 (0)
 -->
<!-- Title: Perl Pages: 1 -->
<svg width="1701pt" height="1088pt"
 viewBox="0.00 0.00 1701.00 1088.00" xmlns="http://www.w3.org/2000/svg" xmlns:xlink="http://www.w3.org/1999/xlink">
<g id="graph0" class="graph" transform="scale(1 1) rotate(0) translate(4 1084)">
<title>Perl</title>
<polygon fill="white" stroke="transparent" points="-4,4 -4,-1084 1697,-1084 1697,4 -4,4"/>
<!-- attribute -->
<g id="node1" class="node">
<title>attribute</title>
<ellipse fill="none" stroke="green" cx="860" cy="-1062" rx="51.99" ry="18"/>
<text text-anchor="middle" x="860" y="-1058.3" font-family="Times,serif" font-size="14.00">attribute</text>
</g>
<!-- attribute&#45;&gt;attribute -->
<g id="edge1" class="edge">
<title>attribute&#45;&gt;attribute</title>
<path fill="none" stroke="grey" d="M907.11,-1069.83C920.08,-1069.45 930,-1066.84 930,-1062 930,-1058.52 924.87,-1056.2 917.18,-1055.02"/>
<polygon fill="grey" stroke="grey" points="917.37,-1051.53 907.11,-1054.17 916.78,-1058.5 917.37,-1051.53"/>
<text text-anchor="middle" x="961" y="-1058.3" font-family="Times,serif" font-size="14.00">/[\w :;]+/</text>
</g>
<!-- post_attribute -->
<g id="node2" class="node">
<title>post_attribute</title>
<ellipse fill="none" stroke="green" cx="88" cy="-975" rx="76.89" ry="18"/>
<text text-anchor="middle" x="88" y="-971.3" font-family="Times,serif" font-size="14.00">post_attribute</text>
</g>
<!-- attribute&#45;&gt;post_attribute -->
<g id="edge2" class="edge">
<title>attribute&#45;&gt;post_attribute</title>
<path fill="none" stroke="grey" d="M811.12,-1055.62C680.9,-1041.28 324.75,-1002.07 166.07,-984.6"/>
<polygon fill="grey" stroke="grey" points="166.23,-981.09 155.91,-983.48 165.47,-988.05 166.23,-981.09"/>
<text text-anchor="middle" x="530.5" y="-1014.8" font-family="Times,serif" font-size="14.00">/}/</text>
</g>
<!-- post_attribute&#45;&gt;post_attribute -->
<g id="edge38" class="edge">
<title>post_attribute&#45;&gt;post_attribute</title>
<path fill="none" stroke="grey" d="M157.79,-982.6C172.27,-981.8 182.69,-979.27 182.69,-975 182.69,-971.8 176.83,-969.58 167.79,-968.33"/>
<polygon fill="grey" stroke="grey" points="168.07,-964.84 157.79,-967.4 167.42,-971.81 168.07,-964.84"/>
<text text-anchor="middle" x="199.69" y="-971.3" font-family="Times,serif" font-size="14.00">/\s+/</text>
</g>
<!-- edge -->
<g id="node5" class="node">
<title>edge</title>
<ellipse fill="none" stroke="green" cx="619" cy="-888" rx="33.29" ry="18"/>
<text text-anchor="middle" x="619" y="-884.3" font-family="Times,serif" font-size="14.00">edge</text>
</g>
<!-- post_attribute&#45;&gt;edge -->
<g id="edge37" class="edge">
<title>post_attribute&#45;&gt;edge</title>
<path fill="none" stroke="grey" d="M149.43,-964.17C258.78,-946.66 484.44,-910.54 577.49,-895.64"/>
<polygon fill="grey" stroke="grey" points="578.32,-899.06 587.64,-894.02 577.22,-892.14 578.32,-899.06"/>
<text text-anchor="middle" x="430.5" y="-927.8" font-family="Times,serif" font-size="14.00">/[&#45;&lt;=&gt;~.]+/</text>
</g>
<!-- start_node -->
<g id="node8" class="node">
<title>start_node</title>
<ellipse fill="none" stroke="green" cx="1195" cy="-18" rx="59.59" ry="18"/>
<text text-anchor="middle" x="1195" y="-14.3" font-family="Times,serif" font-size="14.00">start_node</text>
</g>
<!-- post_attribute&#45;&gt;start_node -->
<g id="edge40" class="edge">
<title>post_attribute&#45;&gt;start_node</title>
<path fill="none" stroke="grey" d="M54.98,-958.59C30.01,-944.41 0,-920.76 0,-889 0,-889 0,-889 0,-104 0,-47.23 869.34,-25.47 1125.05,-20.29"/>
<polygon fill="grey" stroke="grey" points="1125.4,-23.79 1135.33,-20.09 1125.26,-16.79 1125.4,-23.79"/>
<text text-anchor="middle" x="9.5" y="-492.8" font-family="Times,serif" font-size="14.00">/\[/</text>
</g>
<!-- daisy_chain -->
<g id="node13" class="node">
<title>daisy_chain</title>
<ellipse fill="none" stroke="green" cx="427" cy="-105" rx="64.19" ry="18"/>
<text text-anchor="middle" x="427" y="-101.3" font-family="Times,serif" font-size="14.00">daisy_chain</text>
</g>
<!-- post_attribute&#45;&gt;daisy_chain -->
<g id="edge36" class="edge">
<title>post_attribute&#45;&gt;daisy_chain</title>
<path fill="none" stroke="grey" d="M74.01,-957.29C61.8,-940.96 46,-914.84 46,-889 46,-889 46,-889 46,-191 46,-128.81 241.8,-112.1 352.67,-107.63"/>
<polygon fill="grey" stroke="grey" points="352.94,-111.12 362.8,-107.24 352.67,-104.13 352.94,-111.12"/>
<text text-anchor="middle" x="53" y="-536.3" font-family="Times,serif" font-size="14.00">/,/</text>
</g>
<!-- post_group -->
<g id="node14" class="node">
<title>post_group</title>
<ellipse fill="none" stroke="green" cx="494" cy="-192" rx="62.29" ry="18"/>
<text text-anchor="middle" x="494" y="-188.3" font-family="Times,serif" font-size="14.00">post_group</text>
</g>
<!-- post_attribute&#45;&gt;post_group -->
<g id="edge39" class="edge">
<title>post_attribute&#45;&gt;post_group</title>
<path fill="none" stroke="grey" d="M88,-956.74C88,-939.57 88,-912.46 88,-889 88,-889 88,-889 88,-495.5 88,-347.85 151.86,-291.84 285,-228 327.6,-207.57 380.05,-198.83 421.75,-195.19"/>
<polygon fill="grey" stroke="grey" points="422.14,-198.67 431.83,-194.39 421.59,-191.7 422.14,-198.67"/>
<text text-anchor="middle" x="97.5" y="-579.8" font-family="Times,serif" font-size="14.00">/\)/</text>
</g>
<!-- class -->
<g id="node3" class="node">
<title>class</title>
<ellipse fill="none" stroke="green" cx="902" cy="-627" rx="33.6" ry="18"/>
<text text-anchor="middle" x="902" y="-623.3" font-family="Times,serif" font-size="14.00">class</text>
</g>
<!-- class&#45;&gt;class -->
<g id="edge3" class="edge">
<title>class&#45;&gt;class</title>
<path fill="none" stroke="grey" d="M932.58,-634.85C944.19,-635.15 953.8,-632.54 953.8,-627 953.8,-623.19 949.26,-620.77 942.65,-619.72"/>
<polygon fill="grey" stroke="grey" points="942.77,-616.22 932.58,-619.15 942.37,-623.21 942.77,-616.22"/>
<text text-anchor="middle" x="970.8" y="-623.3" font-family="Times,serif" font-size="14.00">/\s+/</text>
</g>
<!-- class_daisy_chain -->
<g id="node4" class="node">
<title>class_daisy_chain</title>
<ellipse fill="none" stroke="green" cx="898" cy="-540" rx="91.78" ry="18"/>
<text text-anchor="middle" x="898" y="-536.3" font-family="Times,serif" font-size="14.00">class_daisy_chain</text>
</g>
<!-- class&#45;&gt;class_daisy_chain -->
<g id="edge4" class="edge">
<title>class&#45;&gt;class_daisy_chain</title>
<path fill="none" stroke="grey" d="M891.5,-609.55C888.46,-603.89 885.54,-597.38 884,-591 882.14,-583.32 883.2,-575.05 885.38,-567.48"/>
<polygon fill="grey" stroke="grey" points="888.69,-568.64 888.77,-558.05 882.1,-566.28 888.69,-568.64"/>
<text text-anchor="middle" x="891" y="-579.8" font-family="Times,serif" font-size="14.00">/,/</text>
</g>
<!-- class&#45;&gt;edge -->
<g id="edge5" class="edge">
<title>class&#45;&gt;edge</title>
<path fill="none" stroke="grey" d="M883.89,-642.6C856.23,-665.08 802.02,-709.77 758,-750 715.25,-789.07 667.62,-837.05 640.68,-864.61"/>
<polygon fill="grey" stroke="grey" points="638.13,-862.22 633.66,-871.82 643.14,-867.11 638.13,-862.22"/>
<text text-anchor="middle" x="802.5" y="-753.8" font-family="Times,serif" font-size="14.00">/[&#45;&lt;=&gt;~.]+/</text>
</g>
<!-- start_class_attribute -->
<g id="node6" class="node">
<title>start_class_attribute</title>
<ellipse fill="none" stroke="green" cx="837" cy="-366" rx="106.68" ry="18"/>
<text text-anchor="middle" x="837" y="-362.3" font-family="Times,serif" font-size="14.00">start_class_attribute</text>
</g>
<!-- class&#45;&gt;start_class_attribute -->
<g id="edge6" class="edge">
<title>class&#45;&gt;start_class_attribute</title>
<path fill="none" stroke="grey" d="M873.86,-616.6C848.63,-606.5 813.18,-587.76 797,-558 781.69,-529.85 810.86,-438.99 827.12,-393.48"/>
<polygon fill="grey" stroke="grey" points="830.45,-394.58 830.57,-383.98 823.87,-392.19 830.45,-394.58"/>
<text text-anchor="middle" x="807.5" y="-492.8" font-family="Times,serif" font-size="14.00">/{/</text>
</g>
<!-- start_group -->
<g id="node7" class="node">
<title>start_group</title>
<ellipse fill="none" stroke="green" cx="838" cy="-801" rx="64.99" ry="18"/>
<text text-anchor="middle" x="838" y="-797.3" font-family="Times,serif" font-size="14.00">start_group</text>
</g>
<!-- class&#45;&gt;start_group -->
<g id="edge7" class="edge">
<title>class&#45;&gt;start_group</title>
<path fill="none" stroke="grey" d="M895.75,-644.8C884.64,-674.65 861.38,-737.16 848.02,-773.08"/>
<polygon fill="grey" stroke="grey" points="844.58,-772.29 844.37,-782.88 851.14,-774.73 844.58,-772.29"/>
<text text-anchor="middle" x="885.5" y="-710.3" font-family="Times,serif" font-size="14.00">/\(/</text>
</g>
<!-- class&#45;&gt;start_node -->
<g id="edge8" class="edge">
<title>class&#45;&gt;start_node</title>
<path fill="none" stroke="grey" d="M935.39,-624.09C1010.13,-619.04 1187.14,-602.54 1223,-558 1256.79,-516.03 1197.67,-507.25 1153,-384 1125.96,-309.4 1121.95,-288.84 1113,-210 1111.2,-194.1 1109.15,-189.53 1113,-174 1125.23,-124.73 1156.32,-73.88 1176.51,-44.42"/>
<polygon fill="grey" stroke="grey" points="1179.54,-46.19 1182.39,-35.98 1173.8,-42.18 1179.54,-46.19"/>
<text text-anchor="middle" x="1143.5" y="-318.8" font-family="Times,serif" font-size="14.00">/\[/</text>
</g>
<!-- start_subclass -->
<g id="node9" class="node">
<title>start_subclass</title>
<ellipse fill="none" stroke="green" cx="1137" cy="-540" rx="77.19" ry="18"/>
<text text-anchor="middle" x="1137" y="-536.3" font-family="Times,serif" font-size="14.00">start_subclass</text>
</g>
<!-- class&#45;&gt;start_subclass -->
<g id="edge9" class="edge">
<title>class&#45;&gt;start_subclass</title>
<path fill="none" stroke="grey" d="M930.86,-617.31C952.94,-610.53 984.06,-600.66 1011,-591 1037.97,-581.33 1067.78,-569.55 1091.63,-559.86"/>
<polygon fill="grey" stroke="grey" points="1093.19,-563 1101.13,-555.98 1090.55,-556.52 1093.19,-563"/>
<text text-anchor="middle" x="1058.5" y="-579.8" font-family="Times,serif" font-size="14.00">/\./</text>
</g>
<!-- class_daisy_chain&#45;&gt;class -->
<g id="edge12" class="edge">
<title>class_daisy_chain&#45;&gt;class</title>
<path fill="none" stroke="grey" d="M898.81,-558.18C899.36,-569.81 900.09,-585.42 900.72,-598.73"/>
<polygon fill="grey" stroke="grey" points="897.22,-598.97 901.19,-608.8 904.22,-598.65 897.22,-598.97"/>
<text text-anchor="middle" x="953.5" y="-579.8" font-family="Times,serif" font-size="14.00">/[a&#45;z][a&#45;z0&#45;9_]*/</text>
</g>
<!-- class_daisy_chain&#45;&gt;class_daisy_chain -->
<g id="edge13" class="edge">
<title>class_daisy_chain&#45;&gt;class_daisy_chain</title>
<path fill="none" stroke="grey" d="M981.66,-547.44C996.93,-546.5 1007.64,-544.02 1007.64,-540 1007.64,-536.95 1001.49,-534.79 991.86,-533.51"/>
<polygon fill="grey" stroke="grey" points="991.94,-530 981.66,-532.56 991.29,-536.97 991.94,-530"/>
<text text-anchor="middle" x="1024.64" y="-536.3" font-family="Times,serif" font-size="14.00">/\s+/</text>
</g>
<!-- subclass -->
<g id="node12" class="node">
<title>subclass</title>
<ellipse fill="none" stroke="green" cx="940" cy="-453" rx="50.09" ry="18"/>
<text text-anchor="middle" x="940" y="-449.3" font-family="Times,serif" font-size="14.00">subclass</text>
</g>
<!-- class_daisy_chain&#45;&gt;subclass -->
<g id="edge14" class="edge">
<title>class_daisy_chain&#45;&gt;subclass</title>
<path fill="none" stroke="grey" d="M894.98,-522C893.99,-511.94 894.17,-499.2 899,-489 901.24,-484.26 904.47,-479.91 908.15,-476.02"/>
<polygon fill="grey" stroke="grey" points="910.65,-478.47 915.61,-469.11 905.9,-473.33 910.65,-478.47"/>
<text text-anchor="middle" x="908.5" y="-492.8" font-family="Times,serif" font-size="14.00">/\./</text>
</g>
<!-- edge&#45;&gt;edge -->
<g id="edge19" class="edge">
<title>edge&#45;&gt;edge</title>
<path fill="none" stroke="grey" d="M648.95,-895.84C660.52,-896.19 670.15,-893.58 670.15,-888 670.15,-884.17 665.6,-881.73 658.99,-880.7"/>
<polygon fill="grey" stroke="grey" points="659.12,-877.2 648.95,-880.16 658.74,-884.19 659.12,-877.2"/>
<text text-anchor="middle" x="687.15" y="-884.3" font-family="Times,serif" font-size="14.00">/\s+/</text>
</g>
<!-- edge&#45;&gt;start_group -->
<g id="edge22" class="edge">
<title>edge&#45;&gt;start_group</title>
<path fill="none" stroke="grey" d="M639.89,-873.85C658.11,-862.82 685.54,-847.27 711,-837 732.61,-828.28 757.14,-820.96 778.84,-815.3"/>
<polygon fill="grey" stroke="grey" points="779.76,-818.68 788.59,-812.82 778.03,-811.9 779.76,-818.68"/>
<text text-anchor="middle" x="720.5" y="-840.8" font-family="Times,serif" font-size="14.00">/\(/</text>
</g>
<!-- edge&#45;&gt;start_node -->
<g id="edge23" class="edge">
<title>edge&#45;&gt;start_node</title>
<path fill="none" stroke="grey" d="M652.03,-886.18C744.18,-883.66 1011.82,-874.77 1233,-852 1331.79,-841.83 1361.23,-854.45 1454,-819 1499.71,-801.53 1546,-807.44 1546,-758.5 1546,-758.5 1546,-758.5 1546,-408.5 1546,-330.98 1575,-314.02 1575,-236.5 1575,-236.5 1575,-236.5 1575,-104 1575,-41.15 1374.52,-24.76 1264.8,-20.49"/>
<polygon fill="grey" stroke="grey" points="1264.91,-16.99 1254.79,-20.13 1264.66,-23.99 1264.91,-16.99"/>
<text text-anchor="middle" x="1555.5" y="-449.3" font-family="Times,serif" font-size="14.00">/\[/</text>
</g>
<!-- edge&#45;&gt;daisy_chain -->
<g id="edge18" class="edge">
<title>edge&#45;&gt;daisy_chain</title>
<path fill="none" stroke="grey" d="M586.04,-885.05C509.2,-880.26 322.86,-867.21 299,-852 284.54,-842.78 285.11,-835.03 279,-819 255.46,-757.22 176.62,-285.07 210,-228 244.24,-169.47 318.01,-136.86 370,-120.38"/>
<polygon fill="grey" stroke="grey" points="371.23,-123.67 379.77,-117.39 369.18,-116.97 371.23,-123.67"/>
<text text-anchor="middle" x="228" y="-492.8" font-family="Times,serif" font-size="14.00">/,/</text>
</g>
<!-- edge&#45;&gt;post_group -->
<g id="edge20" class="edge">
<title>edge&#45;&gt;post_group</title>
<path fill="none" stroke="grey" d="M586.11,-885.71C520.54,-882.7 376.06,-873.74 332,-852 304.1,-838.23 283,-833.11 283,-802 283,-802 283,-802 283,-669.5 283,-573.27 262,-550.23 262,-454 262,-454 262,-454 262,-278 262,-239.77 297.04,-243.47 332,-228 361.91,-214.77 397.19,-206.39 427.18,-201.16"/>
<polygon fill="grey" stroke="grey" points="427.84,-204.6 437.13,-199.5 426.69,-197.69 427.84,-204.6"/>
<text text-anchor="middle" x="281.5" y="-536.3" font-family="Times,serif" font-size="14.00">/\)/</text>
</g>
<!-- start_attribute -->
<g id="node15" class="node">
<title>start_attribute</title>
<ellipse fill="none" stroke="green" cx="1468" cy="-192" rx="79.09" ry="18"/>
<text text-anchor="middle" x="1468" y="-188.3" font-family="Times,serif" font-size="14.00">start_attribute</text>
</g>
<!-- edge&#45;&gt;start_attribute -->
<g id="edge21" class="edge">
<title>edge&#45;&gt;start_attribute</title>
<path fill="none" stroke="grey" d="M652.37,-886.71C737.88,-885.55 971.64,-879.88 1164,-852 1229.41,-842.52 1253.31,-854.59 1309,-819 1435.11,-738.42 1499,-690.66 1499,-541 1499,-541 1499,-541 1499,-278 1499,-257.25 1490.75,-235.29 1482.76,-218.89"/>
<polygon fill="grey" stroke="grey" points="1485.84,-217.21 1478.15,-209.92 1479.61,-220.41 1485.84,-217.21"/>
<text text-anchor="middle" x="1508.5" y="-536.3" font-family="Times,serif" font-size="14.00">/{/</text>
</g>
<!-- class_attribute -->
<g id="node10" class="node">
<title>class_attribute</title>
<ellipse fill="none" stroke="green" cx="837" cy="-279" rx="79.09" ry="18"/>
<text text-anchor="middle" x="837" y="-275.3" font-family="Times,serif" font-size="14.00">class_attribute</text>
</g>
<!-- start_class_attribute&#45;&gt;class_attribute -->
<g id="edge59" class="edge">
<title>start_class_attribute&#45;&gt;class_attribute</title>
<path fill="none" stroke="grey" d="M837,-347.8C837,-336.16 837,-320.55 837,-307.24"/>
<polygon fill="grey" stroke="grey" points="840.5,-307.18 837,-297.18 833.5,-307.18 840.5,-307.18"/>
<text text-anchor="middle" x="868" y="-318.8" font-family="Times,serif" font-size="14.00">/[\w :;]+/</text>
</g>
<!-- start_group&#45;&gt;edge -->
<g id="edge60" class="edge">
<title>start_group&#45;&gt;edge</title>
<path fill="none" stroke="grey" d="M808.19,-817.06C786.75,-827.58 756.97,-841.55 730,-852 706.41,-861.13 679.35,-869.7 657.86,-876.08"/>
<polygon fill="grey" stroke="grey" points="656.71,-872.77 648.1,-878.93 658.68,-879.48 656.71,-872.77"/>
<text text-anchor="middle" x="807.5" y="-840.8" font-family="Times,serif" font-size="14.00">/[&#45;&lt;=&gt;~.]+/</text>
</g>
<!-- start_group&#45;&gt;start_group -->
<g id="edge63" class="edge">
<title>start_group&#45;&gt;start_group</title>
<path fill="none" stroke="grey" d="M896.93,-808.72C910.78,-808.08 920.99,-805.51 920.99,-801 920.99,-797.69 915.48,-795.42 907.07,-794.2"/>
<polygon fill="grey" stroke="grey" points="907.21,-790.69 896.93,-793.28 906.58,-797.67 907.21,-790.69"/>
<text text-anchor="middle" x="937.99" y="-797.3" font-family="Times,serif" font-size="14.00">/\s+/</text>
</g>
<!-- start_group&#45;&gt;post_group -->
<g id="edge62" class="edge">
<title>start_group&#45;&gt;post_group</title>
<path fill="none" stroke="grey" d="M797.45,-786.91C765.6,-775.45 721.07,-756.76 687,-732 660.79,-712.95 656.78,-704.41 638,-678 583.22,-600.96 518.75,-310.59 499.62,-220.1"/>
<polygon fill="grey" stroke="grey" points="503,-219.15 497.52,-210.08 496.15,-220.59 503,-219.15"/>
<text text-anchor="middle" x="578.5" y="-492.8" font-family="Times,serif" font-size="14.00">/\)/</text>
</g>
<!-- group -->
<g id="node17" class="node">
<title>group</title>
<ellipse fill="none" stroke="green" cx="1193" cy="-714" rx="38.19" ry="18"/>
<text text-anchor="middle" x="1193" y="-710.3" font-family="Times,serif" font-size="14.00">group</text>
</g>
<!-- start_group&#45;&gt;group -->
<g id="edge61" class="edge">
<title>start_group&#45;&gt;group</title>
<path fill="none" stroke="grey" d="M903.12,-800.11C960.95,-798.3 1046.92,-790.85 1117,-765 1117.68,-764.75 1142.27,-748.55 1163.29,-734.65"/>
<polygon fill="grey" stroke="grey" points="1165.3,-737.52 1171.71,-729.09 1161.44,-731.68 1165.3,-737.52"/>
<text text-anchor="middle" x="1167" y="-753.8" font-family="Times,serif" font-size="14.00">/[\w.]+:/</text>
</g>
<!-- start_node&#45;&gt;start_node -->
<g id="edge66" class="edge">
<title>start_node&#45;&gt;start_node</title>
<path fill="none" stroke="grey" d="M1249.17,-25.77C1262.69,-25.22 1272.79,-22.63 1272.79,-18 1272.79,-14.63 1267.46,-12.35 1259.36,-11.14"/>
<polygon fill="grey" stroke="grey" points="1259.44,-7.63 1249.17,-10.23 1258.82,-14.6 1259.44,-7.63"/>
<text text-anchor="middle" x="1289.79" y="-14.3" font-family="Times,serif" font-size="14.00">/\s+/</text>
</g>
<!-- node -->
<g id="node18" class="node">
<title>node</title>
<ellipse fill="none" stroke="green" cx="1195" cy="-366" rx="33.29" ry="18"/>
<text text-anchor="middle" x="1195" y="-362.3" font-family="Times,serif" font-size="14.00">node</text>
</g>
<!-- start_node&#45;&gt;node -->
<g id="edge64" class="edge">
<title>start_node&#45;&gt;node</title>
<path fill="none" stroke="grey" d="M1195,-36.26C1195,-53.43 1195,-80.54 1195,-104 1195,-280 1195,-280 1195,-280 1195,-299.25 1195,-320.95 1195,-337.6"/>
<polygon fill="grey" stroke="grey" points="1191.5,-337.74 1195,-347.74 1198.5,-337.74 1191.5,-337.74"/>
<text text-anchor="middle" x="1221" y="-188.3" font-family="Times,serif" font-size="14.00">/[\w.]+/</text>
</g>
<!-- post_node -->
<g id="node19" class="node">
<title>post_node</title>
<ellipse fill="none" stroke="green" cx="1361" cy="-279" rx="57.69" ry="18"/>
<text text-anchor="middle" x="1361" y="-275.3" font-family="Times,serif" font-size="14.00">post_node</text>
</g>
<!-- start_node&#45;&gt;post_node -->
<g id="edge65" class="edge">
<title>start_node&#45;&gt;post_node</title>
<path fill="none" stroke="grey" d="M1248.81,-26.07C1269.28,-31.05 1291.59,-39.54 1308,-54 1364.75,-104 1366.56,-202.5 1363.64,-250.46"/>
<polygon fill="grey" stroke="grey" points="1360.13,-250.47 1362.9,-260.7 1367.11,-250.98 1360.13,-250.47"/>
<text text-anchor="middle" x="1365.5" y="-144.8" font-family="Times,serif" font-size="14.00">/]/</text>
</g>
<!-- start_subclass&#45;&gt;subclass -->
<g id="edge67" class="edge">
<title>start_subclass&#45;&gt;subclass</title>
<path fill="none" stroke="grey" d="M1101.78,-523.8C1067.69,-509.09 1016.06,-486.82 980.34,-471.4"/>
<polygon fill="grey" stroke="grey" points="981.28,-468 970.71,-467.25 978.5,-474.43 981.28,-468"/>
<text text-anchor="middle" x="1103.5" y="-492.8" font-family="Times,serif" font-size="14.00">/[a&#45;z][a&#45;z0&#45;9_]*/</text>
</g>
<!-- class_attribute&#45;&gt;class_attribute -->
<g id="edge10" class="edge">
<title>class_attribute&#45;&gt;class_attribute</title>
<path fill="none" stroke="grey" d="M909.13,-286.57C923.79,-285.75 934.29,-283.22 934.29,-279 934.29,-275.83 928.39,-273.62 919.25,-272.36"/>
<polygon fill="grey" stroke="grey" points="919.41,-268.86 909.13,-271.43 918.76,-275.83 919.41,-268.86"/>
<text text-anchor="middle" x="965.29" y="-275.3" font-family="Times,serif" font-size="14.00">/[\w :;]+/</text>
</g>
<!-- post_class_attribute -->
<g id="node11" class="node">
<title>post_class_attribute</title>
<ellipse fill="none" stroke="green" cx="730" cy="-192" rx="103.98" ry="18"/>
<text text-anchor="middle" x="730" y="-188.3" font-family="Times,serif" font-size="14.00">post_class_attribute</text>
</g>
<!-- class_attribute&#45;&gt;post_class_attribute -->
<g id="edge11" class="edge">
<title>class_attribute&#45;&gt;post_class_attribute</title>
<path fill="none" stroke="grey" d="M816.37,-261.61C800.15,-248.73 777.35,-230.61 759.25,-216.23"/>
<polygon fill="grey" stroke="grey" points="761.31,-213.4 751.3,-209.92 756.95,-218.88 761.31,-213.4"/>
<text text-anchor="middle" x="798.5" y="-231.8" font-family="Times,serif" font-size="14.00">/}/</text>
</g>
<!-- post_class_attribute&#45;&gt;class -->
<g id="edge41" class="edge">
<title>post_class_attribute&#45;&gt;class</title>
<path fill="none" stroke="grey" d="M721.84,-210.09C719.54,-215.67 717.3,-221.99 716,-228 665.55,-460.99 703.18,-398.63 708,-417 730.51,-502.85 738.33,-533.57 806,-591 821.41,-604.08 842.11,-612.44 860.34,-617.71"/>
<polygon fill="grey" stroke="grey" points="859.61,-621.13 870.17,-620.32 861.41,-614.37 859.61,-621.13"/>
<text text-anchor="middle" x="761.5" y="-405.8" font-family="Times,serif" font-size="14.00">/[a&#45;z][a&#45;z0&#45;9_]*/</text>
</g>
<!-- post_class_attribute&#45;&gt;edge -->
<g id="edge43" class="edge">
<title>post_class_attribute&#45;&gt;edge</title>
<path fill="none" stroke="grey" d="M707.92,-209.69C645.28,-259.11 471,-411.97 471,-582.5 471,-802 471,-802 471,-802 471,-851.21 533.28,-872.34 577.04,-881.12"/>
<polygon fill="grey" stroke="grey" points="576.41,-884.56 586.89,-882.95 577.7,-877.68 576.41,-884.56"/>
<text text-anchor="middle" x="522.5" y="-536.3" font-family="Times,serif" font-size="14.00">/[&#45;&lt;=&gt;~.]+/</text>
</g>
<!-- post_class_attribute&#45;&gt;start_group -->
<g id="edge45" class="edge">
<title>post_class_attribute&#45;&gt;start_group</title>
<path fill="none" stroke="grey" d="M725.42,-210C713.52,-254.94 682.83,-376.23 687,-417 701.61,-559.75 786.17,-714.15 821.98,-774.14"/>
<polygon fill="grey" stroke="grey" points="819.13,-776.18 827.29,-782.94 825.12,-772.57 819.13,-776.18"/>
<text text-anchor="middle" x="711.5" y="-492.8" font-family="Times,serif" font-size="14.00">/\(/</text>
</g>
<!-- post_class_attribute&#45;&gt;start_node -->
<g id="edge46" class="edge">
<title>post_class_attribute&#45;&gt;start_node</title>
<path fill="none" stroke="grey" d="M772.09,-175.43C859.34,-143.16 1059.3,-69.19 1149.45,-35.85"/>
<polygon fill="grey" stroke="grey" points="1150.69,-39.12 1158.86,-32.37 1148.26,-32.56 1150.69,-39.12"/>
<text text-anchor="middle" x="1017.5" y="-101.3" font-family="Times,serif" font-size="14.00">/\[/</text>
</g>
<!-- post_class_attribute&#45;&gt;post_class_attribute -->
<g id="edge44" class="edge">
<title>post_class_attribute&#45;&gt;post_class_attribute</title>
<path fill="none" stroke="grey" d="M825.13,-199.32C841.03,-198.3 851.99,-195.86 851.99,-192 851.99,-189.02 845.43,-186.88 835.11,-185.59"/>
<polygon fill="grey" stroke="grey" points="835.41,-182.11 825.13,-184.68 834.77,-189.08 835.41,-182.11"/>
<text text-anchor="middle" x="868.99" y="-188.3" font-family="Times,serif" font-size="14.00">/\s+/</text>
</g>
<!-- post_class_attribute&#45;&gt;daisy_chain -->
<g id="edge42" class="edge">
<title>post_class_attribute&#45;&gt;daisy_chain</title>
<path fill="none" stroke="grey" d="M677.91,-176.39C622.84,-160.94 536.4,-136.69 480.72,-121.07"/>
<polygon fill="grey" stroke="grey" points="481.61,-117.68 471.04,-118.35 479.72,-124.42 481.61,-117.68"/>
<text text-anchor="middle" x="604" y="-144.8" font-family="Times,serif" font-size="14.00">/,/</text>
</g>
<!-- subclass&#45;&gt;class_daisy_chain -->
<g id="edge68" class="edge">
<title>subclass&#45;&gt;class_daisy_chain</title>
<path fill="none" stroke="grey" d="M933.1,-470.87C928.96,-480.66 923.46,-493.16 918,-504 916.49,-507 914.84,-510.11 913.16,-513.17"/>
<polygon fill="grey" stroke="grey" points="909.99,-511.67 908.13,-522.11 916.09,-515.11 909.99,-511.67"/>
<text text-anchor="middle" x="932" y="-492.8" font-family="Times,serif" font-size="14.00">/,/</text>
</g>
<!-- subclass&#45;&gt;edge -->
<g id="edge69" class="edge">
<title>subclass&#45;&gt;edge</title>
<path fill="none" stroke="grey" d="M905.78,-466.27C875.59,-478 831.19,-497.5 797,-522 725.98,-572.9 700.04,-585.34 660,-663 626.51,-727.95 620.01,-815.88 618.98,-859.75"/>
<polygon fill="grey" stroke="grey" points="615.48,-859.86 618.82,-869.91 622.48,-859.97 615.48,-859.86"/>
<text text-anchor="middle" x="704.5" y="-666.8" font-family="Times,serif" font-size="14.00">/[&#45;&lt;=&gt;~.]+/</text>
</g>
<!-- subclass&#45;&gt;start_class_attribute -->
<g id="edge71" class="edge">
<title>subclass&#45;&gt;start_class_attribute</title>
<path fill="none" stroke="grey" d="M920.63,-436.01C904.96,-423.08 882.69,-404.71 865.07,-390.17"/>
<polygon fill="grey" stroke="grey" points="867.28,-387.45 857.34,-383.79 862.83,-392.85 867.28,-387.45"/>
<text text-anchor="middle" x="903.5" y="-405.8" font-family="Times,serif" font-size="14.00">/{/</text>
</g>
<!-- subclass&#45;&gt;start_group -->
<g id="edge72" class="edge">
<title>subclass&#45;&gt;start_group</title>
<path fill="none" stroke="grey" d="M989.89,-455.28C1089.88,-460.14 1301.47,-483.1 1255,-591 1232.74,-642.69 1210.73,-648.19 1163,-678 1076.7,-731.9 962.87,-767.77 895.36,-785.95"/>
<polygon fill="grey" stroke="grey" points="894.11,-782.66 885.34,-788.61 895.91,-789.42 894.11,-782.66"/>
<text text-anchor="middle" x="1254.5" y="-623.3" font-family="Times,serif" font-size="14.00">/\(/</text>
</g>
<!-- subclass&#45;&gt;subclass -->
<g id="edge73" class="edge">
<title>subclass&#45;&gt;subclass</title>
<path fill="none" stroke="grey" d="M985.15,-460.84C998.08,-460.54 1008.05,-457.92 1008.05,-453 1008.05,-449.46 1002.9,-447.12 995.2,-445.96"/>
<polygon fill="grey" stroke="grey" points="995.4,-442.47 985.15,-445.16 994.84,-449.45 995.4,-442.47"/>
<text text-anchor="middle" x="1025.05" y="-449.3" font-family="Times,serif" font-size="14.00">/\s+/</text>
</g>
<!-- subclass&#45;&gt;node -->
<g id="edge70" class="edge">
<title>subclass&#45;&gt;node</title>
<path fill="none" stroke="grey" d="M975.46,-440.18C1023.47,-424.18 1108.76,-395.75 1157.7,-379.43"/>
<polygon fill="grey" stroke="grey" points="1158.9,-382.72 1167.28,-376.24 1156.68,-376.08 1158.9,-382.72"/>
<text text-anchor="middle" x="1091.5" y="-405.8" font-family="Times,serif" font-size="14.00">/\[/</text>
</g>
<!-- daisy_chain&#45;&gt;edge -->
<g id="edge16" class="edge">
<title>daisy_chain&#45;&gt;edge</title>
<path fill="none" stroke="grey" d="M364.75,-109.71C300.28,-114.4 204.52,-124 172,-141 145.24,-154.99 126,-160.8 126,-191 126,-410.5 126,-410.5 126,-410.5 126,-445.43 122.89,-454.08 122,-489 121.83,-495.66 121.05,-497.4 122,-504 139.29,-623.7 160.99,-650.18 199,-765 211.95,-804.11 198.31,-826.93 231,-852 237.8,-857.21 476.8,-876.09 576.25,-883.74"/>
<polygon fill="grey" stroke="grey" points="576.03,-887.24 586.27,-884.51 576.57,-880.26 576.03,-887.24"/>
<text text-anchor="middle" x="166.5" y="-492.8" font-family="Times,serif" font-size="14.00">/[&#45;&lt;=&gt;~.]+/</text>
</g>
<!-- daisy_chain&#45;&gt;start_node -->
<g id="edge17" class="edge">
<title>daisy_chain&#45;&gt;start_node</title>
<path fill="none" stroke="grey" d="M468.42,-91.07C507.96,-79.31 569.44,-62.52 624,-54 802.96,-26.06 1016.71,-20.16 1124.87,-19.09"/>
<polygon fill="grey" stroke="grey" points="1125.04,-22.58 1135.01,-19 1124.97,-15.59 1125.04,-22.58"/>
<text text-anchor="middle" x="633.5" y="-57.8" font-family="Times,serif" font-size="14.00">/\[/</text>
</g>
<!-- daisy_chain&#45;&gt;daisy_chain -->
<g id="edge15" class="edge">
<title>daisy_chain&#45;&gt;daisy_chain</title>
<path fill="none" stroke="grey" d="M485.47,-112.72C499.21,-112.08 509.34,-109.51 509.34,-105 509.34,-101.69 503.88,-99.42 495.53,-98.2"/>
<polygon fill="grey" stroke="grey" points="495.75,-94.7 485.47,-97.28 495.11,-101.67 495.75,-94.7"/>
<text text-anchor="middle" x="526.34" y="-101.3" font-family="Times,serif" font-size="14.00">/\s+/</text>
</g>
<!-- post_group&#45;&gt;edge -->
<g id="edge47" class="edge">
<title>post_group&#45;&gt;edge</title>
<path fill="none" stroke="grey" d="M440.57,-201.39C398.18,-211.44 346,-232.96 346,-278 346,-802 346,-802 346,-802 346,-849.65 499.52,-873.63 576.31,-882.65"/>
<polygon fill="grey" stroke="grey" points="576.28,-886.17 586.61,-883.82 577.07,-879.21 576.28,-886.17"/>
<text text-anchor="middle" x="390.5" y="-536.3" font-family="Times,serif" font-size="14.00">/[&#45;&lt;=&gt;~.]+/</text>
</g>
<!-- post_group&#45;&gt;start_group -->
<g id="edge49" class="edge">
<title>post_group&#45;&gt;start_group</title>
<path fill="none" stroke="grey" d="M534.82,-205.77C545.78,-211.03 556.62,-218.25 564,-228 625.45,-309.17 588.11,-597.16 650,-678 661.12,-692.52 671.2,-686.79 687,-696 730.8,-721.54 778.55,-755.56 808.38,-777.62"/>
<polygon fill="grey" stroke="grey" points="806.55,-780.62 816.67,-783.78 810.73,-775.01 806.55,-780.62"/>
<text text-anchor="middle" x="620.5" y="-492.8" font-family="Times,serif" font-size="14.00">/\(/</text>
</g>
<!-- post_group&#45;&gt;start_node -->
<g id="edge50" class="edge">
<title>post_group&#45;&gt;start_node</title>
<path fill="none" stroke="grey" d="M537.86,-179.05C611.2,-159.19 763.44,-118.46 893,-87 978.09,-66.34 1077.2,-44.43 1138.01,-31.23"/>
<polygon fill="grey" stroke="grey" points="1138.77,-34.65 1147.81,-29.11 1137.29,-27.81 1138.77,-34.65"/>
<text text-anchor="middle" x="902.5" y="-101.3" font-family="Times,serif" font-size="14.00">/\[/</text>
</g>
<!-- post_group&#45;&gt;post_group -->
<g id="edge48" class="edge">
<title>post_group&#45;&gt;post_group</title>
<path fill="none" stroke="grey" d="M550.35,-199.75C564.14,-199.18 574.39,-196.59 574.39,-192 574.39,-188.63 568.86,-186.34 560.46,-185.13"/>
<polygon fill="grey" stroke="grey" points="560.62,-181.63 550.35,-184.25 560.01,-188.6 560.62,-181.63"/>
<text text-anchor="middle" x="591.39" y="-188.3" font-family="Times,serif" font-size="14.00">/\s+/</text>
</g>
<!-- start_attribute&#45;&gt;attribute -->
<g id="edge58" class="edge">
<title>start_attribute&#45;&gt;attribute</title>
<path fill="none" stroke="grey" d="M1487.07,-209.74C1492.63,-215.21 1498.43,-221.55 1503,-228 1579.13,-335.58 1631,-363.7 1631,-495.5 1631,-976 1631,-976 1631,-976 1631,-1047.16 1105.35,-1058.76 922.11,-1060.64"/>
<polygon fill="grey" stroke="grey" points="922.05,-1057.14 912.09,-1060.74 922.12,-1064.14 922.05,-1057.14"/>
<text text-anchor="middle" x="1662" y="-623.3" font-family="Times,serif" font-size="14.00">/[\w :;]+/</text>
</g>
<!-- global -->
<g id="node16" class="node">
<title>global</title>
<ellipse fill="none" stroke="green" cx="1340" cy="-975" rx="38.99" ry="18"/>
<text text-anchor="middle" x="1340" y="-971.3" font-family="Times,serif" font-size="14.00">global</text>
</g>
<!-- global&#45;&gt;class -->
<g id="edge24" class="edge">
<title>global&#45;&gt;class</title>
<path fill="none" stroke="grey" d="M1342.67,-957.02C1349.15,-909.21 1360.52,-772.04 1292,-696 1246.42,-645.42 1037.82,-632.4 945.81,-629.1"/>
<polygon fill="grey" stroke="grey" points="945.82,-625.6 935.71,-628.76 945.59,-632.59 945.82,-625.6"/>
<text text-anchor="middle" x="1396.5" y="-797.3" font-family="Times,serif" font-size="14.00">/[a&#45;z][a&#45;z0&#45;9_]*/</text>
</g>
<!-- global&#45;&gt;edge -->
<g id="edge25" class="edge">
<title>global&#45;&gt;edge</title>
<path fill="none" stroke="grey" d="M1302.75,-969.61C1180.33,-955.18 790.78,-909.25 661.3,-893.99"/>
<polygon fill="grey" stroke="grey" points="661.35,-890.47 651.01,-892.77 660.53,-897.42 661.35,-890.47"/>
<text text-anchor="middle" x="1066.5" y="-927.8" font-family="Times,serif" font-size="14.00">/[&#45;&lt;=&gt;~.]+/</text>
</g>
<!-- global&#45;&gt;start_class_attribute -->
<g id="edge27" class="edge">
<title>global&#45;&gt;start_class_attribute</title>
<path fill="none" stroke="grey" d="M1301.21,-972.67C1117.04,-965.95 336.89,-932.83 269,-852 216.34,-789.31 272.53,-545.28 332,-489 390.52,-433.62 613.32,-396.12 742.6,-378.51"/>
<polygon fill="grey" stroke="grey" points="743.45,-381.93 752.89,-377.13 742.52,-374.99 743.45,-381.93"/>
<text text-anchor="middle" x="269.5" y="-666.8" font-family="Times,serif" font-size="14.00">/{/</text>
</g>
<!-- global&#45;&gt;start_group -->
<g id="edge28" class="edge">
<title>global&#45;&gt;start_group</title>
<path fill="none" stroke="grey" d="M1309.73,-963.63C1225.84,-934.89 989.82,-854.02 886.95,-818.77"/>
<polygon fill="grey" stroke="grey" points="888.02,-815.44 877.42,-815.51 885.75,-822.06 888.02,-815.44"/>
<text text-anchor="middle" x="1147.5" y="-884.3" font-family="Times,serif" font-size="14.00">/\(/</text>
</g>
<!-- global&#45;&gt;start_node -->
<g id="edge29" class="edge">
<title>global&#45;&gt;start_node</title>
<path fill="none" stroke="grey" d="M1376.94,-969.02C1445.39,-958.76 1585,-932.5 1585,-889 1585,-889 1585,-889 1585,-669.5 1585,-589.07 1589.33,-568.96 1598,-489 1606.01,-415.11 1622,-397.82 1622,-323.5 1622,-323.5 1622,-323.5 1622,-104 1622,-32.11 1386.28,-20.13 1265.12,-18.71"/>
<polygon fill="grey" stroke="grey" points="1264.85,-15.21 1254.82,-18.62 1264.79,-22.21 1264.85,-15.21"/>
<text text-anchor="middle" x="1607.5" y="-492.8" font-family="Times,serif" font-size="14.00">/\[/</text>
</g>
<!-- global&#45;&gt;global -->
<g id="edge26" class="edge">
<title>global&#45;&gt;global</title>
<path fill="none" stroke="grey" d="M1375.34,-982.87C1387.35,-982.92 1397,-980.29 1397,-975 1397,-971.36 1392.44,-968.99 1385.69,-967.87"/>
<polygon fill="grey" stroke="grey" points="1385.57,-964.35 1375.34,-967.13 1385.07,-971.33 1385.57,-964.35"/>
<text text-anchor="middle" x="1414" y="-971.3" font-family="Times,serif" font-size="14.00">/\s+/</text>
</g>
<!-- group&#45;&gt;class -->
<g id="edge30" class="edge">
<title>group&#45;&gt;class</title>
<path fill="none" stroke="grey" d="M1161.3,-703.74C1107.66,-688.07 999.16,-656.38 940.97,-639.38"/>
<polygon fill="grey" stroke="grey" points="941.63,-635.93 931.05,-636.49 939.67,-642.65 941.63,-635.93"/>
<text text-anchor="middle" x="1117.5" y="-666.8" font-family="Times,serif" font-size="14.00">/[a&#45;z][a&#45;z0&#45;9_]*/</text>
</g>
<!-- group&#45;&gt;edge -->
<g id="edge31" class="edge">
<title>group&#45;&gt;edge</title>
<path fill="none" stroke="grey" d="M1199.26,-731.97C1201.99,-742.53 1203.15,-755.8 1196,-765 1100.35,-888.21 1008.91,-821.23 856,-852 788.38,-865.61 708.92,-876.27 661.33,-882.1"/>
<polygon fill="grey" stroke="grey" points="660.89,-878.62 651.38,-883.3 661.73,-885.57 660.89,-878.62"/>
<text text-anchor="middle" x="1224.5" y="-797.3" font-family="Times,serif" font-size="14.00">/[&#45;&lt;=&gt;~.]+/</text>
</g>
<!-- group&#45;&gt;start_node -->
<g id="edge33" class="edge">
<title>group&#45;&gt;start_node</title>
<path fill="none" stroke="grey" d="M1226.83,-705.5C1263.85,-695.05 1318,-672.22 1318,-628 1318,-628 1318,-628 1318,-452 1318,-354.33 1275,-334.17 1275,-236.5 1275,-236.5 1275,-236.5 1275,-104 1275,-76.75 1252.93,-54.67 1231.97,-39.86"/>
<polygon fill="grey" stroke="grey" points="1233.69,-36.8 1223.43,-34.15 1229.8,-42.62 1233.69,-36.8"/>
<text text-anchor="middle" x="1318.5" y="-362.3" font-family="Times,serif" font-size="14.00">/\[/</text>
</g>
<!-- group&#45;&gt;group -->
<g id="edge32" class="edge">
<title>group&#45;&gt;group</title>
<path fill="none" stroke="grey" d="M1227.66,-721.87C1239.66,-721.96 1249.35,-719.33 1249.35,-714 1249.35,-710.33 1244.77,-707.95 1238.01,-706.84"/>
<polygon fill="grey" stroke="grey" points="1237.88,-703.33 1227.66,-706.13 1237.4,-710.31 1237.88,-703.33"/>
<text text-anchor="middle" x="1266.35" y="-710.3" font-family="Times,serif" font-size="14.00">/\s+/</text>
</g>
<!-- node&#45;&gt;node -->
<g id="edge34" class="edge">
<title>node&#45;&gt;node</title>
<path fill="none" stroke="grey" d="M1224.95,-373.84C1236.52,-374.19 1246.15,-371.58 1246.15,-366 1246.15,-362.17 1241.6,-359.73 1234.99,-358.7"/>
<polygon fill="grey" stroke="grey" points="1235.12,-355.2 1224.95,-358.16 1234.74,-362.19 1235.12,-355.2"/>
<text text-anchor="middle" x="1263.15" y="-362.3" font-family="Times,serif" font-size="14.00">/\s+/</text>
</g>
<!-- node&#45;&gt;post_node -->
<g id="edge35" class="edge">
<title>node&#45;&gt;post_node</title>
<path fill="none" stroke="grey" d="M1218.43,-353C1245.6,-339.09 1290.76,-315.96 1322.98,-299.47"/>
<polygon fill="grey" stroke="grey" points="1324.8,-302.47 1332.11,-294.79 1321.61,-296.24 1324.8,-302.47"/>
<text text-anchor="middle" x="1294.5" y="-318.8" font-family="Times,serif" font-size="14.00">/]/</text>
</g>
<!-- post_node&#45;&gt;edge -->
<g id="edge52" class="edge">
<title>post_node&#45;&gt;edge</title>
<path fill="none" stroke="grey" d="M1377.65,-296.24C1392.19,-312.24 1411,-338.12 1411,-365 1411,-497.5 1411,-497.5 1411,-497.5 1411,-531.29 1384.33,-612.82 1374,-645 1346.68,-730.14 1348.57,-771.2 1273,-819 1221.41,-851.64 799.34,-877.21 662.01,-884.74"/>
<polygon fill="grey" stroke="grey" points="661.66,-881.25 651.86,-885.29 662.04,-888.24 661.66,-881.25"/>
<text text-anchor="middle" x="1439.5" y="-579.8" font-family="Times,serif" font-size="14.00">/[&#45;&lt;=&gt;~.]+/</text>
</g>
<!-- post_node&#45;&gt;start_group -->
<g id="edge56" class="edge">
<title>post_node&#45;&gt;start_group</title>
<path fill="none" stroke="grey" d="M1361.97,-297.25C1362.84,-314.42 1364,-341.52 1364,-365 1364,-497.5 1364,-497.5 1364,-497.5 1364,-606.52 1379.64,-667.14 1292,-732 1233.22,-775.5 1025.4,-791.58 912.43,-797.2"/>
<polygon fill="grey" stroke="grey" points="911.96,-793.71 902.14,-797.69 912.29,-800.71 911.96,-793.71"/>
<text text-anchor="middle" x="1373.5" y="-536.3" font-family="Times,serif" font-size="14.00">/\(/</text>
</g>
<!-- post_node&#45;&gt;start_node -->
<g id="edge57" class="edge">
<title>post_node&#45;&gt;start_node</title>
<path fill="none" stroke="grey" d="M1352.17,-261.14C1349.37,-255.46 1346.38,-249.03 1344,-243 1329.11,-205.35 1328.36,-194.86 1317,-156 1303.81,-110.88 1320.74,-88.68 1289,-54 1279.82,-43.97 1267.49,-36.8 1254.79,-31.68"/>
<polygon fill="grey" stroke="grey" points="1255.65,-28.27 1245.05,-28.15 1253.26,-34.85 1255.65,-28.27"/>
<text text-anchor="middle" x="1326.5" y="-144.8" font-family="Times,serif" font-size="14.00">/\[/</text>
</g>
<!-- post_node&#45;&gt;daisy_chain -->
<g id="edge51" class="edge">
<title>post_node&#45;&gt;daisy_chain</title>
<path fill="none" stroke="grey" d="M1317.22,-267.07C1234.91,-246.78 1051.32,-202.76 895,-174 753.35,-147.94 586.07,-125.67 494.81,-114.22"/>
<polygon fill="grey" stroke="grey" points="495.22,-110.75 484.87,-112.98 494.36,-117.7 495.22,-110.75"/>
<text text-anchor="middle" x="1073" y="-188.3" font-family="Times,serif" font-size="14.00">/,/</text>
</g>
<!-- post_node&#45;&gt;post_group -->
<g id="edge53" class="edge">
<title>post_node&#45;&gt;post_group</title>
<path fill="none" stroke="grey" d="M1306.41,-273.03C1136.13,-257.51 625.59,-210.99 617,-210 597.85,-207.8 577.07,-205.07 558.13,-202.43"/>
<polygon fill="grey" stroke="grey" points="558.51,-198.95 548.12,-201.03 557.54,-205.89 558.51,-198.95"/>
<text text-anchor="middle" x="979.5" y="-231.8" font-family="Times,serif" font-size="14.00">/\)/</text>
</g>
<!-- post_node&#45;&gt;start_attribute -->
<g id="edge55" class="edge">
<title>post_node&#45;&gt;start_attribute</title>
<path fill="none" stroke="grey" d="M1381.13,-262.01C1397.51,-249 1420.83,-230.47 1439.19,-215.88"/>
<polygon fill="grey" stroke="grey" points="1441.58,-218.46 1447.23,-209.5 1437.23,-212.98 1441.58,-218.46"/>
<text text-anchor="middle" x="1429.5" y="-231.8" font-family="Times,serif" font-size="14.00">/{/</text>
</g>
<!-- post_node&#45;&gt;post_node -->
<g id="edge54" class="edge">
<title>post_node&#45;&gt;post_node</title>
<path fill="none" stroke="grey" d="M1413.46,-286.78C1426.82,-286.27 1436.84,-283.68 1436.84,-279 1436.84,-275.6 1431.55,-273.3 1423.53,-272.11"/>
<polygon fill="grey" stroke="grey" points="1423.73,-268.61 1413.46,-271.22 1423.12,-275.58 1423.73,-268.61"/>
<text text-anchor="middle" x="1453.84" y="-275.3" font-family="Times,serif" font-size="14.00">/\s+/</text>
</g>
</g>
</svg>
