<?xml version="1.0" encoding="UTF-8" standalone="no"?>
<!DOCTYPE svg PUBLIC "-//W3C//DTD SVG 1.1//EN"
 "http://www.w3.org/Graphics/SVG/1.1/DTD/svg11.dtd">
<!-- Generated by graphviz version 2.43.0 (0)
 -->
<!-- Title: Perl Pages: 1 -->
<svg width="232pt" height="278pt"
 viewBox="9.00 9.00 223.27 269.10" xmlns="http://www.w3.org/2000/svg" xmlns:xlink="http://www.w3.org/1999/xlink">
<g id="graph0" class="graph" transform="scale(1 1) rotate(-90) translate(-265.1 219.27)">
<title>Perl</title>
<polygon fill="white" stroke="transparent" points="-4,4 -4,-210.27 256.1,-210.27 256.1,4 -4,4"/>
<!-- Here -->
<g id="node1" class="node">
<title>Here</title>
<ellipse fill="none" stroke="black" cx="37.7" cy="-18" rx="33.6" ry="18"/>
<text text-anchor="middle" x="37.7" y="-14.3" font-family="Times,serif" font-size="14.00">Here</text>
</g>
<!-- There -->
<g id="node2" class="node">
<title>There</title>
<ellipse fill="none" stroke="black" cx="37.7" cy="-188.27" rx="37.89" ry="18"/>
<text text-anchor="middle" x="37.7" y="-184.57" font-family="Times,serif" font-size="14.00">There</text>
</g>
<!-- Here&#45;&gt;There -->
<g id="edge1" class="edge">
<title>Here&#45;&gt;There</title>
<path fill="none" stroke="grey" d="M37.7,-36.22C37.7,-65.92 37.7,-124.97 37.7,-160.1"/>
<polygon fill="grey" stroke="grey" points="34.2,-160.18 37.7,-170.18 41.2,-160.18 34.2,-160.18"/>
</g>
<!-- Everywhere -->
<g id="node3" class="node">
<title>Everywhere</title>
<ellipse fill="none" stroke="black" cx="185.15" cy="-103.13" rx="66.89" ry="18"/>
<text text-anchor="middle" x="185.15" y="-99.43" font-family="Times,serif" font-size="14.00">Everywhere</text>
</g>
<!-- There&#45;&gt;Everywhere -->
<g id="edge2" class="edge">
<title>There&#45;&gt;Everywhere</title>
<path fill="none" stroke="grey" d="M62.05,-174.21C85.42,-160.72 121.04,-140.15 147.96,-124.61"/>
<polygon fill="grey" stroke="grey" points="149.82,-127.58 156.73,-119.55 146.32,-121.51 149.82,-127.58"/>
</g>
<!-- Everywhere&#45;&gt;Here -->
<g id="edge3" class="edge">
<title>Everywhere&#45;&gt;Here</title>
<path fill="none" stroke="grey" d="M156.72,-86.72C131.72,-72.28 95.36,-51.29 69.42,-36.32"/>
<polygon fill="grey" stroke="grey" points="71.13,-33.26 60.72,-31.29 67.63,-39.32 71.13,-33.26"/>
</g>
</g>
</svg>
