<?xml version="1.0" encoding="UTF-8" standalone="no"?>
<!DOCTYPE svg PUBLIC "-//W3C//DTD SVG 1.1//EN"
 "http://www.w3.org/Graphics/SVG/1.1/DTD/svg11.dtd">
<!-- Generated by graphviz version 2.43.0 (0)
 -->
<!-- Title: Perl Pages: 1 -->
<svg width="250pt" height="476pt"
 viewBox="0.00 0.00 249.79 476.00" xmlns="http://www.w3.org/2000/svg" xmlns:xlink="http://www.w3.org/1999/xlink">
<g id="graph0" class="graph" transform="scale(1 1) rotate(0) translate(4 472)">
<title>Perl</title>
<polygon fill="white" stroke="transparent" points="-4,4 -4,-472 245.79,-472 245.79,4 -4,4"/>
<!-- 1 -->
<g id="node1" class="node">
<title>1</title>
<ellipse fill="none" stroke="blue" cx="120.9" cy="-450" rx="55.79" ry="18"/>
<text text-anchor="middle" x="120.9" y="-446.3" font-family="Times,serif" font-size="14.00">START $1</text>
</g>
<!-- 3 -->
<g id="node2" class="node">
<title>3</title>
<polygon fill="none" stroke="blue" points="120.9,-396 93.9,-378 120.9,-360 147.9,-378 120.9,-396"/>
</g>
<!-- 1&#45;&gt;3 -->
<g id="edge1" class="edge">
<title>1&#45;&gt;3</title>
<path fill="none" stroke="grey" d="M120.9,-431.7C120.9,-423.98 120.9,-414.71 120.9,-406.11"/>
<polygon fill="grey" stroke="grey" points="124.4,-406.1 120.9,-396.1 117.4,-406.1 124.4,-406.1"/>
</g>
<!-- 4 -->
<g id="node3" class="node">
<title>4</title>
<ellipse fill="none" stroke="blue" cx="55.9" cy="-306" rx="55.79" ry="18"/>
<text text-anchor="middle" x="55.9" y="-302.3" font-family="Times,serif" font-size="14.00">START $2</text>
</g>
<!-- 3&#45;&gt;4 -->
<g id="edge2" class="edge">
<title>3&#45;&gt;4</title>
<path fill="none" stroke="grey" d="M111.02,-366.37C102.34,-357.02 89.38,-343.06 78.21,-331.03"/>
<polygon fill="grey" stroke="grey" points="80.56,-328.42 71.19,-323.47 75.43,-333.18 80.56,-328.42"/>
</g>
<!-- 20 -->
<g id="node4" class="node">
<title>20</title>
<ellipse fill="none" stroke="blue" cx="185.9" cy="-306" rx="55.79" ry="18"/>
<text text-anchor="middle" x="185.9" y="-302.3" font-family="Times,serif" font-size="14.00">START $3</text>
</g>
<!-- 3&#45;&gt;20 -->
<g id="edge3" class="edge">
<title>3&#45;&gt;20</title>
<path fill="none" stroke="grey" d="M130.77,-366.37C139.45,-357.02 152.41,-343.06 163.58,-331.03"/>
<polygon fill="grey" stroke="grey" points="166.36,-333.18 170.6,-323.47 161.23,-328.42 166.36,-333.18"/>
</g>
<!-- 6 -->
<g id="node9" class="node">
<title>6</title>
<polygon fill="none" stroke="blue" points="95.4,-252 24.4,-252 24.4,-216 95.4,-216 95.4,-252"/>
<text text-anchor="middle" x="59.9" y="-230.3" font-family="Times,serif" font-size="14.00">[0&#45;9a&#45;d]</text>
</g>
<!-- 4&#45;&gt;6 -->
<g id="edge8" class="edge">
<title>4&#45;&gt;6</title>
<path fill="none" stroke="grey" d="M56.88,-287.7C57.32,-279.98 57.85,-270.71 58.35,-262.11"/>
<polygon fill="grey" stroke="grey" points="61.84,-262.29 58.92,-252.1 54.85,-261.89 61.84,-262.29"/>
</g>
<!-- 22 -->
<g id="node5" class="node">
<title>22</title>
<polygon fill="none" stroke="blue" points="210.9,-252 156.9,-252 156.9,-216 210.9,-216 210.9,-252"/>
<text text-anchor="middle" x="183.9" y="-230.3" font-family="Times,serif" font-size="14.00">foo</text>
</g>
<!-- 20&#45;&gt;22 -->
<g id="edge4" class="edge">
<title>20&#45;&gt;22</title>
<path fill="none" stroke="grey" d="M185.4,-287.7C185.18,-279.98 184.92,-270.71 184.67,-262.11"/>
<polygon fill="grey" stroke="grey" points="188.17,-262 184.38,-252.1 181.17,-262.2 188.17,-262"/>
</g>
<!-- 24 -->
<g id="node6" class="node">
<title>24</title>
<ellipse fill="none" stroke="blue" cx="182.9" cy="-162" rx="47.39" ry="18"/>
<text text-anchor="middle" x="182.9" y="-158.3" font-family="Times,serif" font-size="14.00">END $3</text>
</g>
<!-- 22&#45;&gt;24 -->
<g id="edge5" class="edge">
<title>22&#45;&gt;24</title>
<path fill="none" stroke="grey" d="M183.65,-215.7C183.54,-207.98 183.41,-198.71 183.28,-190.11"/>
<polygon fill="grey" stroke="grey" points="186.78,-190.05 183.14,-180.1 179.78,-190.15 186.78,-190.05"/>
</g>
<!-- 26 -->
<g id="node7" class="node">
<title>26</title>
<ellipse fill="none" stroke="blue" cx="123.9" cy="-90" rx="47.39" ry="18"/>
<text text-anchor="middle" x="123.9" y="-86.3" font-family="Times,serif" font-size="14.00">END $1</text>
</g>
<!-- 24&#45;&gt;26 -->
<g id="edge6" class="edge">
<title>24&#45;&gt;26</title>
<path fill="none" stroke="grey" d="M169.21,-144.76C161.87,-136.06 152.68,-125.15 144.49,-115.43"/>
<polygon fill="grey" stroke="grey" points="147.04,-113.02 137.91,-107.63 141.68,-117.54 147.04,-113.02"/>
</g>
<!-- 28 -->
<g id="node8" class="node">
<title>28</title>
<ellipse fill="none" stroke="blue" cx="123.9" cy="-18" rx="32.49" ry="18"/>
<text text-anchor="middle" x="123.9" y="-14.3" font-family="Times,serif" font-size="14.00">END</text>
</g>
<!-- 26&#45;&gt;28 -->
<g id="edge7" class="edge">
<title>26&#45;&gt;28</title>
<path fill="none" stroke="grey" d="M123.9,-71.7C123.9,-63.98 123.9,-54.71 123.9,-46.11"/>
<polygon fill="grey" stroke="grey" points="127.4,-46.1 123.9,-36.1 120.4,-46.1 127.4,-46.1"/>
</g>
<!-- 17 -->
<g id="node10" class="node">
<title>17</title>
<ellipse fill="none" stroke="blue" cx="67.9" cy="-162" rx="47.39" ry="18"/>
<text text-anchor="middle" x="67.9" y="-158.3" font-family="Times,serif" font-size="14.00">END $2</text>
</g>
<!-- 6&#45;&gt;17 -->
<g id="edge9" class="edge">
<title>6&#45;&gt;17</title>
<path fill="none" stroke="grey" d="M61.87,-215.7C62.75,-207.98 63.81,-198.71 64.8,-190.11"/>
<polygon fill="grey" stroke="grey" points="68.28,-190.44 65.94,-180.1 61.33,-189.64 68.28,-190.44"/>
</g>
<!-- 17&#45;&gt;26 -->
<g id="edge10" class="edge">
<title>17&#45;&gt;26</title>
<path fill="none" stroke="grey" d="M81.17,-144.41C88.07,-135.78 96.65,-125.06 104.3,-115.5"/>
<polygon fill="grey" stroke="grey" points="107.21,-117.47 110.72,-107.47 101.74,-113.09 107.21,-117.47"/>
</g>
</g>
</svg>
