<?xml version="1.0" encoding="UTF-8" standalone="no"?>
<!DOCTYPE svg PUBLIC "-//W3C//DTD SVG 1.1//EN"
 "http://www.w3.org/Graphics/SVG/1.1/DTD/svg11.dtd">
<!-- Generated by graphviz version 2.43.0 (0)
 -->
<!-- Title: Perl Pages: 1 -->
<svg width="578pt" height="298pt"
 viewBox="0.00 0.00 578.25 297.74" xmlns="http://www.w3.org/2000/svg" xmlns:xlink="http://www.w3.org/1999/xlink">
<g id="graph0" class="graph" transform="scale(1 1) rotate(0) translate(4 293.74)">
<title>Perl</title>
<polygon fill="white" stroke="transparent" points="-4,4 -4,-293.74 574.25,-293.74 574.25,4 -4,4"/>
<g id="clust1" class="cluster">
<title>cluster_Europe</title>
<polygon fill="grey" stroke="black" points="344,-8 344,-187.74 450,-187.74 450,-8 344,-8"/>
<text text-anchor="middle" x="397" y="-172.54" font-family="Times,serif" font-size="14.00">Europe</text>
</g>
<g id="clust2" class="cluster">
<title>cluster_Australia</title>
<polygon fill="grey" stroke="black" points="8,-112.74 8,-281.74 336,-281.74 336,-112.74 8,-112.74"/>
<text text-anchor="middle" x="172" y="-266.54" font-family="Times,serif" font-size="14.00">Australia</text>
</g>
<!-- London -->
<g id="node1" class="node">
<title>London</title>
<ellipse fill="none" stroke="blue" cx="397" cy="-138.74" rx="44.69" ry="18"/>
<text text-anchor="middle" x="397" y="-135.04" font-family="Times,serif" font-size="14.00">London</text>
</g>
<!-- Paris -->
<g id="node2" class="node">
<title>Paris</title>
<ellipse fill="none" stroke="green" cx="397" cy="-42.87" rx="45.01" ry="26.74"/>
<text text-anchor="middle" x="397" y="-46.67" font-family="Times,serif" font-size="14.00">City of</text>
<text text-anchor="middle" x="397" y="-31.67" font-family="Times,serif" font-size="14.00">lurve</text>
</g>
<!-- London&#45;&gt;Paris -->
<g id="edge1" class="edge">
<title>London&#45;&gt;Paris</title>
<path fill="none" stroke="grey" d="M391.64,-120.52C390.4,-109.22 389.99,-94.01 390.41,-80.12"/>
<polygon fill="grey" stroke="grey" points="393.92,-79.99 390.89,-69.84 386.93,-79.66 393.92,-79.99"/>
</g>
<!-- New York -->
<g id="node3" class="node">
<title>New York</title>
<ellipse fill="none" stroke="yellow" cx="515" cy="-42.87" rx="55.49" ry="18"/>
<text text-anchor="middle" x="515" y="-39.17" font-family="Times,serif" font-size="14.00">New York</text>
</g>
<!-- London&#45;&gt;New York -->
<g id="edge3" class="edge">
<title>London&#45;&gt;New York</title>
<path fill="none" stroke="grey" d="M416.22,-122.45C435.45,-107.16 465.22,-83.47 487.06,-66.1"/>
<polygon fill="grey" stroke="grey" points="489.35,-68.75 495,-59.78 484.99,-63.27 489.35,-68.75"/>
<text text-anchor="middle" x="471.5" y="-91.54" font-family="Times,serif" font-size="14.00">Far</text>
</g>
<!-- Paris&#45;&gt;London -->
<g id="edge2" class="edge">
<title>Paris&#45;&gt;London</title>
<path fill="none" stroke="grey" d="M403.11,-69.84C403.93,-82.47 403.96,-97.64 403.2,-110.44"/>
<polygon fill="grey" stroke="grey" points="399.7,-110.27 402.36,-120.52 406.67,-110.84 399.7,-110.27"/>
</g>
<!-- Victoria -->
<g id="node4" class="node">
<title>Victoria</title>
<ellipse fill="none" stroke="blue" cx="273" cy="-232.74" rx="46.59" ry="18"/>
<text text-anchor="middle" x="273" y="-229.04" font-family="Times,serif" font-size="14.00">Victoria</text>
</g>
<!-- Victoria&#45;&gt;London -->
<g id="edge6" class="edge">
<title>Victoria&#45;&gt;London</title>
<path fill="none" stroke="grey" d="M336,-190.81C338,-189.29 340,-187.76 342,-186.24"/>
<polygon fill="grey" stroke="grey" points="338.17,-193.56 344,-184.72 333.93,-187.99 338.17,-193.56"/>
</g>
<!-- New South Wales -->
<g id="node5" class="node">
<title>New South Wales</title>
<ellipse fill="none" stroke="green" cx="108" cy="-138.74" rx="92.08" ry="18"/>
<text text-anchor="middle" x="108" y="-135.04" font-family="Times,serif" font-size="14.00">New South Wales</text>
</g>
<!-- Victoria&#45;&gt;New South Wales -->
<g id="edge4" class="edge">
<title>Victoria&#45;&gt;New South Wales</title>
<path fill="none" stroke="grey" d="M247.58,-217.57C220.43,-202.43 177.1,-178.27 145.92,-160.88"/>
<polygon fill="grey" stroke="grey" points="147.5,-157.76 137.06,-155.95 144.09,-163.87 147.5,-157.76"/>
</g>
<!-- Tasmania -->
<g id="node6" class="node">
<title>Tasmania</title>
<ellipse fill="none" stroke="red" cx="273" cy="-138.74" rx="54.69" ry="18"/>
<text text-anchor="middle" x="273" y="-135.04" font-family="Times,serif" font-size="14.00">Tasmania</text>
</g>
<!-- Victoria&#45;&gt;Tasmania -->
<g id="edge5" class="edge">
<title>Victoria&#45;&gt;Tasmania</title>
<path fill="none" stroke="grey" d="M273,-214.44C273,-201.2 273,-182.69 273,-167.4"/>
<polygon fill="grey" stroke="grey" points="276.5,-166.97 273,-156.97 269.5,-166.97 276.5,-166.97"/>
</g>
</g>
</svg>
