<?xml version="1.0" encoding="UTF-8" standalone="no"?>
<!DOCTYPE svg PUBLIC "-//W3C//DTD SVG 1.1//EN"
 "http://www.w3.org/Graphics/SVG/1.1/DTD/svg11.dtd">
<!-- Generated by graphviz version 2.43.0 (0)
 -->
<!-- Title: Perl Pages: 1 -->
<svg width="417pt" height="619pt"
 viewBox="0.00 0.00 417.00 618.62" xmlns="http://www.w3.org/2000/svg" xmlns:xlink="http://www.w3.org/1999/xlink">
<g id="graph0" class="graph" transform="scale(1 1) rotate(0) translate(4 614.62)">
<title>Perl</title>
<polygon fill="white" stroke="transparent" points="-4,4 -4,-614.62 413,-614.62 413,4 -4,4"/>
<!-- $accept -->
<g id="node1" class="node">
<title>$accept</title>
<path fill="none" stroke="blue" d="M12,-574.12C12,-574.12 139,-574.12 139,-574.12 145,-574.12 151,-580.12 151,-586.12 151,-586.12 151,-598.12 151,-598.12 151,-604.12 145,-610.12 139,-610.12 139,-610.12 12,-610.12 12,-610.12 6,-610.12 0,-604.12 0,-598.12 0,-598.12 0,-586.12 0,-586.12 0,-580.12 6,-574.12 12,-574.12"/>
<text text-anchor="middle" x="36" y="-588.42" font-family="Times,serif" font-size="14.00">$accept</text>
<polyline fill="none" stroke="blue" points="72,-574.12 72,-610.12 "/>
<text text-anchor="start" x="80" y="-588.42" font-family="Times,serif" font-size="14.00">list $end</text>
</g>
<!-- list -->
<g id="node2" class="node">
<title>list</title>
<path fill="none" stroke="blue" d="M68,-468.12C68,-468.12 189,-468.12 189,-468.12 195,-468.12 201,-474.12 201,-480.12 201,-480.12 201,-525.12 201,-525.12 201,-531.12 195,-537.12 189,-537.12 189,-537.12 68,-537.12 68,-537.12 62,-537.12 56,-531.12 56,-525.12 56,-525.12 56,-480.12 56,-480.12 56,-474.12 62,-468.12 68,-468.12"/>
<text text-anchor="middle" x="75.5" y="-498.92" font-family="Times,serif" font-size="14.00">list</text>
<polyline fill="none" stroke="blue" points="95,-468.12 95,-537.12 "/>
<text text-anchor="start" x="103" y="-521.92" font-family="Times,serif" font-size="14.00">(empty)</text>
<polyline fill="none" stroke="blue" points="95,-514.12 201,-514.12 "/>
<text text-anchor="start" x="103" y="-498.92" font-family="Times,serif" font-size="14.00">list stat &#39;\n&#39;</text>
<polyline fill="none" stroke="blue" points="95,-491.12 201,-491.12 "/>
<text text-anchor="start" x="103" y="-475.92" font-family="Times,serif" font-size="14.00">list error &#39;\n&#39;</text>
</g>
<!-- $accept&#45;&gt;list -->
<g id="edge1" class="edge">
<title>$accept&#45;&gt;list:port1</title>
<path fill="none" stroke="grey" d="M75.5,-573.77C75.5,-566.16 75.5,-556.9 75.5,-547.77"/>
<polygon fill="grey" stroke="grey" points="79,-547.62 75.5,-537.62 72,-547.62 79,-547.62"/>
</g>
<!-- list&#45;&gt;list -->
<g id="edge4" class="edge">
<title>list&#45;&gt;list:port1</title>
<path fill="none" stroke="grey" d="M55.71,-517.51C45.13,-515.14 38,-510.18 38,-502.62 38,-492.34 40.62,-486.86 46.01,-486.19"/>
<polygon fill="grey" stroke="grey" points="45.36,-489.63 55.91,-488.63 47.04,-482.84 45.36,-489.63"/>
</g>
<!-- stat -->
<g id="node5" class="node">
<title>stat</title>
<path fill="none" stroke="blue" d="M119,-385.12C119,-385.12 276,-385.12 276,-385.12 282,-385.12 288,-391.12 288,-397.12 288,-397.12 288,-419.12 288,-419.12 288,-425.12 282,-431.12 276,-431.12 276,-431.12 119,-431.12 119,-431.12 113,-431.12 107,-425.12 107,-419.12 107,-419.12 107,-397.12 107,-397.12 107,-391.12 113,-385.12 119,-385.12"/>
<text text-anchor="middle" x="129" y="-404.42" font-family="Times,serif" font-size="14.00">stat</text>
<polyline fill="none" stroke="blue" points="151,-385.12 151,-431.12 "/>
<text text-anchor="start" x="159" y="-415.92" font-family="Times,serif" font-size="14.00">expr</text>
<polyline fill="none" stroke="blue" points="151,-408.12 288,-408.12 "/>
<text text-anchor="start" x="159" y="-392.92" font-family="Times,serif" font-size="14.00">LETTER &#39;=&#39; expr</text>
</g>
<!-- list&#45;&gt;stat -->
<g id="edge5" class="edge">
<title>list&#45;&gt;stat:port1</title>
<path fill="none" stroke="grey" d="M128.5,-467.79C128.5,-459.54 128.5,-450.55 128.5,-441.77"/>
<polygon fill="grey" stroke="grey" points="132,-441.62 128.5,-431.62 125,-441.62 132,-441.62"/>
</g>
<!-- expr -->
<g id="node3" class="node">
<title>expr</title>
<path fill="none" stroke="blue" d="M185.5,-95.12C185.5,-95.12 321.5,-95.12 321.5,-95.12 327.5,-95.12 333.5,-101.12 333.5,-107.12 333.5,-107.12 333.5,-336.12 333.5,-336.12 333.5,-342.12 327.5,-348.12 321.5,-348.12 321.5,-348.12 185.5,-348.12 185.5,-348.12 179.5,-348.12 173.5,-342.12 173.5,-336.12 173.5,-336.12 173.5,-107.12 173.5,-107.12 173.5,-101.12 179.5,-95.12 185.5,-95.12"/>
<text text-anchor="middle" x="198" y="-217.92" font-family="Times,serif" font-size="14.00">expr</text>
<polyline fill="none" stroke="blue" points="222.5,-95.12 222.5,-348.12 "/>
<text text-anchor="start" x="230.5" y="-332.92" font-family="Times,serif" font-size="14.00">&#39;(&#39; expr &#39;)&#39;</text>
<polyline fill="none" stroke="blue" points="222.5,-325.12 333.5,-325.12 "/>
<text text-anchor="start" x="230.5" y="-309.92" font-family="Times,serif" font-size="14.00">expr &#39;+&#39; expr</text>
<polyline fill="none" stroke="blue" points="222.5,-302.12 333.5,-302.12 "/>
<text text-anchor="start" x="230.5" y="-286.92" font-family="Times,serif" font-size="14.00">expr &#39;&#45;&#39; expr</text>
<polyline fill="none" stroke="blue" points="222.5,-279.12 333.5,-279.12 "/>
<text text-anchor="start" x="230.5" y="-263.92" font-family="Times,serif" font-size="14.00">expr &#39;*&#39; expr</text>
<polyline fill="none" stroke="blue" points="222.5,-256.12 333.5,-256.12 "/>
<text text-anchor="start" x="230.5" y="-240.92" font-family="Times,serif" font-size="14.00">expr &#39;/&#39; expr</text>
<polyline fill="none" stroke="blue" points="222.5,-233.12 333.5,-233.12 "/>
<text text-anchor="start" x="230.5" y="-217.92" font-family="Times,serif" font-size="14.00">expr &#39;%&#39; expr</text>
<polyline fill="none" stroke="blue" points="222.5,-210.12 333.5,-210.12 "/>
<text text-anchor="start" x="230.5" y="-194.92" font-family="Times,serif" font-size="14.00">expr &#39;&amp;&#39; expr</text>
<polyline fill="none" stroke="blue" points="222.5,-187.12 333.5,-187.12 "/>
<text text-anchor="start" x="230.5" y="-171.92" font-family="Times,serif" font-size="14.00">expr &#39;|&#39; expr</text>
<polyline fill="none" stroke="blue" points="222.5,-164.12 333.5,-164.12 "/>
<text text-anchor="start" x="230.5" y="-148.92" font-family="Times,serif" font-size="14.00">&#39;&#45;&#39; expr</text>
<polyline fill="none" stroke="blue" points="222.5,-141.12 333.5,-141.12 "/>
<text text-anchor="start" x="230.5" y="-125.92" font-family="Times,serif" font-size="14.00">LETTER</text>
<polyline fill="none" stroke="blue" points="222.5,-118.12 333.5,-118.12 "/>
<text text-anchor="start" x="230.5" y="-102.92" font-family="Times,serif" font-size="14.00">number</text>
</g>
<!-- expr&#45;&gt;expr -->
<g id="edge2" class="edge">
<title>expr&#45;&gt;expr:port1</title>
<path fill="none" stroke="grey" d="M173.14,-252.37C162.53,-247.13 155.5,-236.87 155.5,-221.62 155.5,-200.39 158,-188.85 163.57,-187.01"/>
<polygon fill="grey" stroke="grey" points="162.54,-190.35 173.13,-190.5 164.94,-183.78 162.54,-190.35"/>
</g>
<!-- number -->
<g id="node4" class="node">
<title>number</title>
<path fill="none" stroke="blue" d="M230,-12.12C230,-12.12 397,-12.12 397,-12.12 403,-12.12 409,-18.12 409,-24.12 409,-24.12 409,-46.12 409,-46.12 409,-52.12 403,-58.12 397,-58.12 397,-58.12 230,-58.12 230,-58.12 224,-58.12 218,-52.12 218,-46.12 218,-46.12 218,-24.12 218,-24.12 218,-18.12 224,-12.12 230,-12.12"/>
<text text-anchor="middle" x="254" y="-31.42" font-family="Times,serif" font-size="14.00">number</text>
<polyline fill="none" stroke="blue" points="290,-12.12 290,-58.12 "/>
<text text-anchor="start" x="298" y="-42.92" font-family="Times,serif" font-size="14.00">DIGIT</text>
<polyline fill="none" stroke="blue" points="290,-35.12 409,-35.12 "/>
<text text-anchor="start" x="298" y="-19.92" font-family="Times,serif" font-size="14.00">number DIGIT</text>
</g>
<!-- expr&#45;&gt;number -->
<g id="edge3" class="edge">
<title>expr&#45;&gt;number:port1</title>
<path fill="none" stroke="grey" d="M253.5,-95.03C253.5,-86.19 253.5,-77.35 253.5,-68.69"/>
<polygon fill="grey" stroke="grey" points="257,-68.62 253.5,-58.62 250,-68.62 257,-68.62"/>
</g>
<!-- number&#45;&gt;number -->
<g id="edge6" class="edge">
<title>number&#45;&gt;number:port1</title>
<path fill="none" stroke="grey" d="M285.86,-58.18C247.35,-79.59 200,-71.9 200,-35.12 200,-3.01 207.47,6.93 224.54,-5.3"/>
<polygon fill="grey" stroke="grey" points="222.53,-8.18 232.46,-11.9 227.02,-2.81 222.53,-8.18"/>
</g>
<!-- stat&#45;&gt;expr -->
<g id="edge7" class="edge">
<title>stat&#45;&gt;expr:port1</title>
<path fill="none" stroke="grey" d="M197.5,-384.89C197.5,-376.95 197.5,-367.73 197.5,-358.68"/>
<polygon fill="grey" stroke="grey" points="201,-358.62 197.5,-348.62 194,-358.62 201,-358.62"/>
</g>
</g>
</svg>
