<?xml version="1.0" encoding="UTF-8" standalone="no"?>
<!DOCTYPE svg PUBLIC "-//W3C//DTD SVG 1.1//EN"
 "http://www.w3.org/Graphics/SVG/1.1/DTD/svg11.dtd">
<!-- Generated by graphviz version 2.43.0 (0)
 -->
<!-- Title: Perl Pages: 1 -->
<svg width="353pt" height="764pt"
 viewBox="0.00 0.00 352.54 764.00" xmlns="http://www.w3.org/2000/svg" xmlns:xlink="http://www.w3.org/1999/xlink">
<g id="graph0" class="graph" transform="scale(1 1) rotate(0) translate(4 760)">
<title>Perl</title>
<polygon fill="white" stroke="transparent" points="-4,4 -4,-760 348.54,-760 348.54,4 -4,4"/>
<!-- 26 -->
<g id="node1" class="node">
<title>26</title>
<ellipse fill="none" stroke="blue" cx="78.64" cy="-306" rx="78.79" ry="18"/>
<text text-anchor="middle" x="78.64" y="-302.3" font-family="Times,serif" font-size="14.00">REPEAT {0,1}</text>
</g>
<!-- 28 -->
<g id="node2" class="node">
<title>28</title>
<polygon fill="none" stroke="black" points="229.64,-324 175.64,-324 175.64,-288 229.64,-288 229.64,-324"/>
<text text-anchor="middle" x="202.64" y="-302.3" font-family="Times,serif" font-size="14.00">n</text>
</g>
<!-- 26&#45;&gt;28 -->
<g id="edge7" class="edge">
<title>26&#45;&gt;28</title>
<path fill="none" stroke="grey" stroke-dasharray="5,2" d="M157.6,-306C160.21,-306 162.83,-306 165.45,-306"/>
<polygon fill="grey" stroke="grey" points="165.54,-309.5 175.54,-306 165.54,-302.5 165.54,-309.5"/>
</g>
<!-- 30 -->
<g id="node10" class="node">
<title>30</title>
<ellipse fill="none" stroke="blue" cx="186.64" cy="-234" rx="47.39" ry="18"/>
<text text-anchor="middle" x="186.64" y="-230.3" font-family="Times,serif" font-size="14.00">END $1</text>
</g>
<!-- 26&#45;&gt;30 -->
<g id="edge8" class="edge">
<title>26&#45;&gt;30</title>
<path fill="none" stroke="grey" d="M103.69,-288.76C118.94,-278.88 138.56,-266.17 154.89,-255.58"/>
<polygon fill="grey" stroke="grey" points="157.09,-258.33 163.57,-249.95 153.28,-252.45 157.09,-258.33"/>
</g>
<!-- 32 -->
<g id="node3" class="node">
<title>32</title>
<ellipse fill="none" stroke="blue" cx="186.64" cy="-162" rx="56.59" ry="18"/>
<text text-anchor="middle" x="186.64" y="-158.3" font-family="Times,serif" font-size="14.00">REPEAT *</text>
</g>
<!-- 33 -->
<g id="node4" class="node">
<title>33</title>
<polygon fill="none" stroke="black" points="315.64,-180 261.64,-180 261.64,-144 315.64,-144 315.64,-180"/>
<text text-anchor="middle" x="288.64" y="-158.3" font-family="Times,serif" font-size="14.00">x</text>
</g>
<!-- 32&#45;&gt;33 -->
<g id="edge10" class="edge">
<title>32&#45;&gt;33</title>
<path fill="none" stroke="grey" stroke-dasharray="5,2" d="M243.22,-162C245.86,-162 248.5,-162 251.14,-162"/>
<polygon fill="grey" stroke="grey" points="251.32,-165.5 261.32,-162 251.32,-158.5 251.32,-165.5"/>
</g>
<!-- 35 -->
<g id="node5" class="node">
<title>35</title>
<ellipse fill="none" stroke="blue" cx="186.64" cy="-90" rx="78.79" ry="18"/>
<text text-anchor="middle" x="186.64" y="-86.3" font-family="Times,serif" font-size="14.00">REPEAT {1,2}</text>
</g>
<!-- 32&#45;&gt;35 -->
<g id="edge11" class="edge">
<title>32&#45;&gt;35</title>
<path fill="none" stroke="grey" d="M186.64,-143.7C186.64,-135.98 186.64,-126.71 186.64,-118.11"/>
<polygon fill="grey" stroke="grey" points="190.14,-118.1 186.64,-108.1 183.14,-118.1 190.14,-118.1"/>
</g>
<!-- 37 -->
<g id="node6" class="node">
<title>37</title>
<polygon fill="none" stroke="black" points="337.64,-108 283.64,-108 283.64,-72 337.64,-72 337.64,-108"/>
<text text-anchor="middle" x="310.64" y="-86.3" font-family="Times,serif" font-size="14.00">y</text>
</g>
<!-- 35&#45;&gt;37 -->
<g id="edge12" class="edge">
<title>35&#45;&gt;37</title>
<path fill="none" stroke="grey" stroke-dasharray="5,2" d="M265.6,-90C268.21,-90 270.83,-90 273.45,-90"/>
<polygon fill="grey" stroke="grey" points="273.54,-93.5 283.54,-90 273.54,-86.5 273.54,-93.5"/>
</g>
<!-- 39 -->
<g id="node15" class="node">
<title>39</title>
<ellipse fill="none" stroke="blue" cx="186.64" cy="-18" rx="32.49" ry="18"/>
<text text-anchor="middle" x="186.64" y="-14.3" font-family="Times,serif" font-size="14.00">END</text>
</g>
<!-- 35&#45;&gt;39 -->
<g id="edge13" class="edge">
<title>35&#45;&gt;39</title>
<path fill="none" stroke="grey" d="M186.64,-71.7C186.64,-63.98 186.64,-54.71 186.64,-46.11"/>
<polygon fill="grey" stroke="grey" points="190.14,-46.1 186.64,-36.1 183.14,-46.1 190.14,-46.1"/>
</g>
<!-- 1 -->
<g id="node7" class="node">
<title>1</title>
<ellipse fill="none" stroke="blue" cx="218.64" cy="-738" rx="53.89" ry="18"/>
<text text-anchor="middle" x="218.64" y="-734.3" font-family="Times,serif" font-size="14.00">SBOL /^/</text>
</g>
<!-- 2 -->
<g id="node8" class="node">
<title>2</title>
<ellipse fill="none" stroke="blue" cx="218.64" cy="-666" rx="55.79" ry="18"/>
<text text-anchor="middle" x="218.64" y="-662.3" font-family="Times,serif" font-size="14.00">START $1</text>
</g>
<!-- 1&#45;&gt;2 -->
<g id="edge1" class="edge">
<title>1&#45;&gt;2</title>
<path fill="none" stroke="grey" d="M218.64,-719.7C218.64,-711.98 218.64,-702.71 218.64,-694.11"/>
<polygon fill="grey" stroke="grey" points="222.14,-694.1 218.64,-684.1 215.14,-694.1 222.14,-694.1"/>
</g>
<!-- 4 -->
<g id="node11" class="node">
<title>4</title>
<polygon fill="none" stroke="blue" points="218.64,-612 191.64,-594 218.64,-576 245.64,-594 218.64,-612"/>
</g>
<!-- 2&#45;&gt;4 -->
<g id="edge3" class="edge">
<title>2&#45;&gt;4</title>
<path fill="none" stroke="grey" d="M218.64,-647.7C218.64,-639.98 218.64,-630.71 218.64,-622.11"/>
<polygon fill="grey" stroke="grey" points="222.14,-622.1 218.64,-612.1 215.14,-622.1 222.14,-622.1"/>
</g>
<!-- 17 -->
<g id="node9" class="node">
<title>17</title>
<ellipse fill="none" stroke="blue" cx="294.64" cy="-306" rx="47.39" ry="18"/>
<text text-anchor="middle" x="294.64" y="-302.3" font-family="Times,serif" font-size="14.00">END $2</text>
</g>
<!-- 17&#45;&gt;30 -->
<g id="edge2" class="edge">
<title>17&#45;&gt;30</title>
<path fill="none" stroke="grey" d="M271.74,-290.15C256.13,-280.04 235.27,-266.52 218.1,-255.39"/>
<polygon fill="grey" stroke="grey" points="219.81,-252.33 209.51,-249.82 216,-258.2 219.81,-252.33"/>
</g>
<!-- 30&#45;&gt;32 -->
<g id="edge9" class="edge">
<title>30&#45;&gt;32</title>
<path fill="none" stroke="grey" d="M186.64,-215.7C186.64,-207.98 186.64,-198.71 186.64,-190.11"/>
<polygon fill="grey" stroke="grey" points="190.14,-190.1 186.64,-180.1 183.14,-190.1 190.14,-190.1"/>
</g>
<!-- 20 -->
<g id="node12" class="node">
<title>20</title>
<ellipse fill="none" stroke="blue" cx="153.64" cy="-522" rx="55.79" ry="18"/>
<text text-anchor="middle" x="153.64" y="-518.3" font-family="Times,serif" font-size="14.00">START $3</text>
</g>
<!-- 4&#45;&gt;20 -->
<g id="edge14" class="edge">
<title>4&#45;&gt;20</title>
<path fill="none" stroke="grey" d="M208.77,-582.37C200.09,-573.02 187.13,-559.06 175.96,-547.03"/>
<polygon fill="grey" stroke="grey" points="178.31,-544.42 168.94,-539.47 173.18,-549.18 178.31,-544.42"/>
</g>
<!-- 5 -->
<g id="node16" class="node">
<title>5</title>
<ellipse fill="none" stroke="blue" cx="288.64" cy="-522" rx="55.79" ry="18"/>
<text text-anchor="middle" x="288.64" y="-518.3" font-family="Times,serif" font-size="14.00">START $2</text>
</g>
<!-- 4&#45;&gt;5 -->
<g id="edge15" class="edge">
<title>4&#45;&gt;5</title>
<path fill="none" stroke="grey" d="M228.97,-582.67C238.42,-573.22 252.75,-558.89 265,-546.65"/>
<polygon fill="grey" stroke="grey" points="267.7,-548.9 272.29,-539.35 262.75,-543.95 267.7,-548.9"/>
</g>
<!-- 22 -->
<g id="node13" class="node">
<title>22</title>
<polygon fill="none" stroke="black" points="137.64,-468 83.64,-468 83.64,-432 137.64,-432 137.64,-468"/>
<text text-anchor="middle" x="110.64" y="-446.3" font-family="Times,serif" font-size="14.00">foo</text>
</g>
<!-- 20&#45;&gt;22 -->
<g id="edge4" class="edge">
<title>20&#45;&gt;22</title>
<path fill="none" stroke="grey" d="M143.23,-504.05C138.24,-495.92 132.14,-486 126.58,-476.94"/>
<polygon fill="grey" stroke="grey" points="129.47,-474.96 121.25,-468.28 123.51,-478.63 129.47,-474.96"/>
</g>
<!-- 24 -->
<g id="node14" class="node">
<title>24</title>
<ellipse fill="none" stroke="blue" cx="89.64" cy="-378" rx="47.39" ry="18"/>
<text text-anchor="middle" x="89.64" y="-374.3" font-family="Times,serif" font-size="14.00">END $3</text>
</g>
<!-- 22&#45;&gt;24 -->
<g id="edge5" class="edge">
<title>22&#45;&gt;24</title>
<path fill="none" stroke="grey" d="M105.45,-431.7C103.11,-423.9 100.3,-414.51 97.69,-405.83"/>
<polygon fill="grey" stroke="grey" points="101,-404.68 94.77,-396.1 94.3,-406.69 101,-404.68"/>
</g>
<!-- 24&#45;&gt;26 -->
<g id="edge6" class="edge">
<title>24&#45;&gt;26</title>
<path fill="none" stroke="grey" d="M86.92,-359.7C85.71,-351.98 84.25,-342.71 82.9,-334.11"/>
<polygon fill="grey" stroke="grey" points="86.34,-333.44 81.33,-324.1 79.43,-334.53 86.34,-333.44"/>
</g>
<!-- 7 -->
<g id="node17" class="node">
<title>7</title>
<polygon fill="none" stroke="red" points="325.14,-468 254.14,-468 254.14,-432 325.14,-432 325.14,-468"/>
<text text-anchor="middle" x="289.64" y="-446.3" font-family="Times,serif" font-size="14.00">[0&#45;9a&#45;d]</text>
</g>
<!-- 5&#45;&gt;7 -->
<g id="edge16" class="edge">
<title>5&#45;&gt;7</title>
<path fill="none" stroke="grey" d="M288.89,-503.7C289,-495.98 289.13,-486.71 289.26,-478.11"/>
<polygon fill="grey" stroke="grey" points="292.76,-478.15 289.4,-468.1 285.76,-478.05 292.76,-478.15"/>
</g>
<!-- 7&#45;&gt;17 -->
<g id="edge17" class="edge">
<title>7&#45;&gt;17</title>
<path fill="none" stroke="grey" d="M290.25,-431.87C291.1,-407.67 292.66,-363.21 293.68,-334.39"/>
<polygon fill="grey" stroke="grey" points="297.18,-334.31 294.04,-324.19 290.19,-334.06 297.18,-334.31"/>
</g>
</g>
</svg>
