<?xml version="1.0" encoding="UTF-8" standalone="no"?>
<!DOCTYPE svg PUBLIC "-//W3C//DTD SVG 1.1//EN"
 "http://www.w3.org/Graphics/SVG/1.1/DTD/svg11.dtd">
<!-- Generated by graphviz version 2.43.0 (0)
 -->
<!-- Title: Perl Pages: 1 -->
<svg width="917pt" height="482pt"
 viewBox="0.00 0.00 916.65 481.98" xmlns="http://www.w3.org/2000/svg" xmlns:xlink="http://www.w3.org/1999/xlink">
<g id="graph0" class="graph" transform="scale(1 1) rotate(0) translate(4 477.98)">
<title>Perl</title>
<polygon fill="white" stroke="transparent" points="-4,4 -4,-477.98 912.65,-477.98 912.65,4 -4,4"/>
<text text-anchor="middle" x="454.32" y="-7.8" font-family="Times,serif" font-size="14.00">sub.sub.graph.pl</text>
<g id="clust1" class="cluster">
<title>cluster_subgraph_1</title>
<polygon fill="none" stroke="black" points="358.65,-206.63 358.65,-465.98 900.65,-465.98 900.65,-206.63 358.65,-206.63"/>
<text text-anchor="middle" x="629.65" y="-450.78" font-family="Times,serif" font-size="14.00">Child</text>
</g>
<g id="clust2" class="cluster">
<title>cluster_2</title>
<polygon fill="none" stroke="black" points="528.65,-214.63 528.65,-434.98 892.65,-434.98 892.65,-214.63 528.65,-214.63"/>
<text text-anchor="middle" x="710.65" y="-419.78" font-family="Times,serif" font-size="14.00">Grandchild</text>
</g>
<!-- Carnegie -->
<g id="node1" class="node">
<title>Carnegie</title>
<ellipse fill="none" stroke="black" cx="52.65" cy="-75.65" rx="52.79" ry="52.79"/>
<text text-anchor="middle" x="52.65" y="-71.95" font-family="Times,serif" font-size="14.00">Carnegie</text>
</g>
<!-- Murrumbeena -->
<g id="node2" class="node">
<title>Murrumbeena</title>
<ellipse fill="none" stroke="green" cx="113.65" cy="-245.63" rx="77.19" ry="77.19"/>
<ellipse fill="none" stroke="green" cx="113.65" cy="-245.63" rx="81.19" ry="81.19"/>
<text text-anchor="middle" x="113.65" y="-241.93" font-family="Times,serif" font-size="14.00">Murrumbeena</text>
</g>
<!-- Murrumbeena&#45;&gt;Carnegie -->
<g id="edge1" class="edge">
<title>Murrumbeena&#45;&gt;Carnegie</title>
<path fill="none" stroke="grey" d="M86.18,-168.99C83.2,-160.78 80.18,-152.46 77.23,-144.35"/>
<polygon fill="grey" stroke="grey" points="83.75,-141.8 70.35,-125.39 70.59,-146.58 83.75,-141.8"/>
</g>
<!-- Oakleigh -->
<g id="node3" class="node">
<title>Oakleigh</title>
<ellipse fill="none" stroke="blue" cx="175.65" cy="-75.65" rx="51.99" ry="18"/>
<text text-anchor="middle" x="175.65" y="-71.95" font-family="Times,serif" font-size="14.00">Oakleigh</text>
</g>
<!-- Murrumbeena&#45;&gt;Oakleigh -->
<g id="edge2" class="edge">
<title>Murrumbeena&#45;&gt;Oakleigh</title>
<path fill="none" stroke="brown" d="M141.56,-168.99C150.25,-145.44 159.27,-121.01 165.85,-103.19"/>
<polygon fill="brown" stroke="brown" points="169.14,-104.37 169.32,-93.77 162.58,-101.94 169.14,-104.37"/>
</g>
<!-- Chadstone -->
<g id="node4" class="node">
<title>Chadstone</title>
<polygon fill="none" stroke="magenta" points="511.74,-385.98 477.19,-403.98 408.1,-403.98 373.56,-385.98 408.1,-367.98 477.19,-367.98 511.74,-385.98"/>
<text text-anchor="middle" x="442.65" y="-382.28" font-family="Times,serif" font-size="14.00">Chadstone</text>
</g>
<!-- Waverley -->
<g id="node5" class="node">
<title>Waverley</title>
<polygon fill="none" stroke="orange" points="442.65,-263.63 366.56,-245.63 442.65,-227.63 518.73,-245.63 442.65,-263.63"/>
<text text-anchor="middle" x="442.65" y="-241.93" font-family="Times,serif" font-size="14.00">Waverley</text>
</g>
<!-- Chadstone&#45;&gt;Waverley -->
<g id="edge3" class="edge">
<title>Chadstone&#45;&gt;Waverley</title>
<path fill="none" stroke="grey" d="M442.65,-367.74C442.65,-344.2 442.65,-301.78 442.65,-273.91"/>
<polygon fill="grey" stroke="grey" points="446.15,-273.66 442.65,-263.66 439.15,-273.66 446.15,-273.66"/>
</g>
<!-- Glen Waverley -->
<g id="node6" class="node">
<title>Glen Waverley</title>
<polygon fill="none" stroke="#0000cd" points="806.95,-391.54 710.65,-403.98 614.34,-391.54 651.12,-371.41 770.17,-371.41 806.95,-391.54"/>
<text text-anchor="middle" x="710.65" y="-382.28" font-family="Times,serif" font-size="14.00">Glen Waverley</text>
</g>
<!-- Mount Waverley -->
<g id="node7" class="node">
<title>Mount Waverley</title>
<polygon fill="none" stroke="darkslategrey" points="710.65,-268.63 536.28,-234.13 885.01,-234.13 710.65,-268.63"/>
<text text-anchor="middle" x="710.65" y="-241.93" font-family="Times,serif" font-size="14.00">Mount Waverley</text>
</g>
<!-- Glen Waverley&#45;&gt;Mount Waverley -->
<g id="edge4" class="edge">
<title>Glen Waverley&#45;&gt;Mount Waverley</title>
<path fill="none" stroke="grey" d="M710.65,-371.21C710.65,-349.9 710.65,-308.36 710.65,-279.13"/>
<polygon fill="grey" stroke="grey" points="714.15,-278.97 710.65,-268.97 707.15,-278.97 714.15,-278.97"/>
</g>
<!-- Malvern -->
<g id="node8" class="node">
<title>Malvern</title>
<polygon fill="none" stroke="cyan" points="182.65,-408.98 84.06,-374.48 281.23,-374.48 182.65,-408.98"/>
<text text-anchor="middle" x="182.65" y="-382.28" font-family="Times,serif" font-size="14.00">Malvern</text>
</g>
<!-- Malvern&#45;&gt;Murrumbeena -->
<g id="edge6" class="edge">
<title>Malvern&#45;&gt;Murrumbeena</title>
<path fill="none" stroke="grey" d="M177.23,-374.12C171.93,-363.5 163.35,-346.28 154.17,-327.88"/>
<polygon fill="grey" stroke="grey" points="157.22,-326.17 149.63,-318.78 150.96,-329.29 157.22,-326.17"/>
</g>
<!-- Prahran -->
<g id="node9" class="node">
<title>Prahran</title>
<polygon fill="none" stroke="cyan" points="320.38,-263.63 240.91,-263.63 212.61,-227.63 348.68,-227.63 320.38,-263.63"/>
<text text-anchor="middle" x="280.65" y="-241.93" font-family="Times,serif" font-size="14.00">Prahran</text>
</g>
<!-- Malvern&#45;&gt;Prahran -->
<g id="edge5" class="edge">
<title>Malvern&#45;&gt;Prahran</title>
<path fill="none" stroke="grey" d="M190.34,-374.12C205.78,-352.32 240.92,-302.71 262.53,-272.2"/>
<polygon fill="grey" stroke="grey" points="265.58,-273.95 268.51,-263.77 259.87,-269.91 265.58,-273.95"/>
</g>
</g>
</svg>
