<?xml version="1.0" encoding="UTF-8" standalone="no"?>
<!DOCTYPE svg PUBLIC "-//W3C//DTD SVG 1.1//EN"
 "http://www.w3.org/Graphics/SVG/1.1/DTD/svg11.dtd">
<!-- Generated by graphviz version 2.43.0 (0)
 -->
<!-- Title: Perl Pages: 1 -->
<svg width="2982pt" height="1118pt"
 viewBox="0.00 0.00 2982.35 1118.00" xmlns="http://www.w3.org/2000/svg" xmlns:xlink="http://www.w3.org/1999/xlink">
<g id="graph0" class="graph" transform="scale(1 1) rotate(0) translate(4 1114)">
<title>Perl</title>
<polygon fill="white" stroke="transparent" points="-4,4 -4,-1114 2978.35,-1114 2978.35,4 -4,4"/>
<!-- attribute -->
<g id="node1" class="node">
<title>attribute</title>
<ellipse fill="none" stroke="green" cx="52" cy="-18" rx="51.99" ry="18"/>
<text text-anchor="middle" x="52" y="-14.3" font-family="Times,serif" font-size="14.00">attribute</text>
</g>
<!-- attribute&#45;&gt;attribute -->
<g id="edge1" class="edge">
<title>attribute&#45;&gt;attribute</title>
<path fill="none" stroke="grey" d="M38.07,-35.41C35.47,-45.09 40.11,-54 52,-54 59.42,-54 64.02,-50.52 65.79,-45.54"/>
<polygon fill="grey" stroke="grey" points="69.29,-45.45 65.92,-35.41 62.29,-45.36 69.29,-45.45"/>
<text text-anchor="middle" x="52" y="-57.8" font-family="Times,serif" font-size="14.00">/[\w :;]+/</text>
</g>
<!-- post_attribute -->
<g id="node2" class="node">
<title>post_attribute</title>
<ellipse fill="none" stroke="green" cx="235.68" cy="-947" rx="76.89" ry="18"/>
<text text-anchor="middle" x="235.68" y="-943.3" font-family="Times,serif" font-size="14.00">post_attribute</text>
</g>
<!-- attribute&#45;&gt;post_attribute -->
<g id="edge2" class="edge">
<title>attribute&#45;&gt;post_attribute</title>
<path fill="none" stroke="grey" d="M56.54,-36.14C79.02,-151.06 201.53,-777.49 229.15,-918.71"/>
<polygon fill="grey" stroke="grey" points="225.76,-919.6 231.11,-928.74 232.63,-918.26 225.76,-919.6"/>
<text text-anchor="middle" x="131.49" y="-457.8" font-family="Times,serif" font-size="14.00">/}/</text>
</g>
<!-- post_attribute&#45;&gt;post_attribute -->
<g id="edge38" class="edge">
<title>post_attribute&#45;&gt;post_attribute</title>
<path fill="none" stroke="grey" d="M216.99,-964.78C213.81,-974.31 220.04,-983 235.68,-983 245.21,-983 251.25,-979.77 253.8,-975.1"/>
<polygon fill="grey" stroke="grey" points="257.31,-974.96 254.38,-964.78 250.32,-974.57 257.31,-974.96"/>
<text text-anchor="middle" x="235.68" y="-986.8" font-family="Times,serif" font-size="14.00">/\s+/</text>
</g>
<!-- edge -->
<g id="node5" class="node">
<title>edge</title>
<ellipse fill="none" stroke="green" cx="470.52" cy="-421" rx="33.29" ry="18"/>
<text text-anchor="middle" x="470.52" y="-417.3" font-family="Times,serif" font-size="14.00">edge</text>
</g>
<!-- post_attribute&#45;&gt;edge -->
<g id="edge37" class="edge">
<title>post_attribute&#45;&gt;edge</title>
<path fill="none" stroke="grey" d="M244.7,-928.89C279.34,-850.63 416.32,-541.2 457.65,-447.82"/>
<polygon fill="grey" stroke="grey" points="460.93,-449.05 461.78,-438.49 454.53,-446.22 460.93,-449.05"/>
<text text-anchor="middle" x="374.88" y="-734.8" font-family="Times,serif" font-size="14.00">/[&#45;&lt;=&gt;~.]+/</text>
</g>
<!-- start_node -->
<g id="node8" class="node">
<title>start_node</title>
<ellipse fill="none" stroke="green" cx="2914.55" cy="-565" rx="59.59" ry="18"/>
<text text-anchor="middle" x="2914.55" y="-561.3" font-family="Times,serif" font-size="14.00">start_node</text>
</g>
<!-- post_attribute&#45;&gt;start_node -->
<g id="edge40" class="edge">
<title>post_attribute&#45;&gt;start_node</title>
<path fill="none" stroke="grey" d="M250.43,-965.05C267.26,-986.06 297.59,-1020.61 330.38,-1042 385.8,-1078.16 403.35,-1095 469.52,-1095 469.52,-1095 469.52,-1095 2736.41,-1095 2843.22,-1095 2897.33,-702.98 2910.39,-593.24"/>
<polygon fill="grey" stroke="grey" points="2913.88,-593.58 2911.56,-583.24 2906.92,-592.77 2913.88,-593.58"/>
<text text-anchor="middle" x="1568.73" y="-1098.8" font-family="Times,serif" font-size="14.00">/\[/</text>
</g>
<!-- daisy_chain -->
<g id="node13" class="node">
<title>daisy_chain</title>
<ellipse fill="none" stroke="green" cx="2735.41" cy="-961" rx="64.19" ry="18"/>
<text text-anchor="middle" x="2735.41" y="-957.3" font-family="Times,serif" font-size="14.00">daisy_chain</text>
</g>
<!-- post_attribute&#45;&gt;daisy_chain -->
<g id="edge36" class="edge">
<title>post_attribute&#45;&gt;daisy_chain</title>
<path fill="none" stroke="grey" d="M258.33,-964.34C297.82,-994.16 385.27,-1052 469.52,-1052 469.52,-1052 469.52,-1052 2513.08,-1052 2585.07,-1052 2661.02,-1010.3 2702.57,-983.36"/>
<polygon fill="grey" stroke="grey" points="2704.74,-986.13 2711.15,-977.69 2700.88,-980.29 2704.74,-986.13"/>
<text text-anchor="middle" x="1405.59" y="-1055.8" font-family="Times,serif" font-size="14.00">/,/</text>
</g>
<!-- post_group -->
<g id="node14" class="node">
<title>post_group</title>
<ellipse fill="none" stroke="green" cx="2512.08" cy="-312" rx="62.29" ry="18"/>
<text text-anchor="middle" x="2512.08" y="-308.3" font-family="Times,serif" font-size="14.00">post_group</text>
</g>
<!-- post_attribute&#45;&gt;post_group -->
<g id="edge39" class="edge">
<title>post_attribute&#45;&gt;post_group</title>
<path fill="none" stroke="grey" d="M237.92,-928.59C242.53,-868.45 262.19,-673.41 330.38,-530 363.4,-460.54 377.72,-442.54 437.38,-394 462.91,-373.23 485.34,-388.33 503.67,-361 534.33,-315.3 481.9,-152.04 521.67,-114 629.55,-10.8 1716.82,-95.61 1865.32,-111 2084.43,-133.71 2150.17,-113.28 2353.09,-199 2404.48,-220.71 2455.44,-261.56 2485.05,-287.74"/>
<polygon fill="grey" stroke="grey" points="2483.04,-290.63 2492.82,-294.7 2487.71,-285.42 2483.04,-290.63"/>
<text text-anchor="middle" x="1242.45" y="-76.8" font-family="Times,serif" font-size="14.00">/\)/</text>
</g>
<!-- class -->
<g id="node3" class="node">
<title>class</title>
<ellipse fill="none" stroke="green" cx="1137.15" cy="-683" rx="33.6" ry="18"/>
<text text-anchor="middle" x="1137.15" y="-679.3" font-family="Times,serif" font-size="14.00">class</text>
</g>
<!-- class&#45;&gt;class -->
<g id="edge3" class="edge">
<title>class&#45;&gt;class</title>
<path fill="none" stroke="grey" d="M1119.37,-698.54C1114.36,-708.91 1120.29,-719 1137.15,-719 1148.21,-719 1154.57,-714.65 1156.22,-708.74"/>
<polygon fill="grey" stroke="grey" points="1159.66,-708.02 1154.93,-698.54 1152.71,-708.9 1159.66,-708.02"/>
<text text-anchor="middle" x="1137.15" y="-722.8" font-family="Times,serif" font-size="14.00">/\s+/</text>
</g>
<!-- class_daisy_chain -->
<g id="node4" class="node">
<title>class_daisy_chain</title>
<ellipse fill="none" stroke="green" cx="1405.59" cy="-645" rx="91.78" ry="18"/>
<text text-anchor="middle" x="1405.59" y="-641.3" font-family="Times,serif" font-size="14.00">class_daisy_chain</text>
</g>
<!-- class&#45;&gt;class_daisy_chain -->
<g id="edge4" class="edge">
<title>class&#45;&gt;class_daisy_chain</title>
<path fill="none" stroke="grey" d="M1154.04,-667.38C1163.38,-659.32 1175.89,-650.29 1188.95,-646 1231.09,-632.17 1280.4,-630.93 1321.23,-633.58"/>
<polygon fill="grey" stroke="grey" points="1321.18,-637.09 1331.41,-634.33 1321.7,-630.11 1321.18,-637.09"/>
<text text-anchor="middle" x="1242.45" y="-649.8" font-family="Times,serif" font-size="14.00">/,/</text>
</g>
<!-- class&#45;&gt;edge -->
<g id="edge5" class="edge">
<title>class&#45;&gt;edge</title>
<path fill="none" stroke="grey" d="M1104.33,-678.25C1008.52,-662.71 717.38,-606.34 521.67,-470 511.32,-462.79 501.13,-453.39 492.67,-444.75"/>
<polygon fill="grey" stroke="grey" points="495.14,-442.27 485.72,-437.43 490.07,-447.09 495.14,-442.27"/>
<text text-anchor="middle" x="821.16" y="-626.8" font-family="Times,serif" font-size="14.00">/[&#45;&lt;=&gt;~.]+/</text>
</g>
<!-- start_class_attribute -->
<g id="node6" class="node">
<title>start_class_attribute</title>
<ellipse fill="none" stroke="green" cx="1989.91" cy="-847" rx="106.68" ry="18"/>
<text text-anchor="middle" x="1989.91" y="-843.3" font-family="Times,serif" font-size="14.00">start_class_attribute</text>
</g>
<!-- class&#45;&gt;start_class_attribute -->
<g id="edge6" class="edge">
<title>class&#45;&gt;start_class_attribute</title>
<path fill="none" stroke="grey" d="M1145.31,-700.77C1157.33,-730.16 1180.99,-786.26 1188.95,-792 1296.3,-869.5 1685.8,-862.2 1878.87,-853.32"/>
<polygon fill="grey" stroke="grey" points="1879.22,-856.81 1889.04,-852.85 1878.89,-849.82 1879.22,-856.81"/>
<text text-anchor="middle" x="1568.73" y="-861.8" font-family="Times,serif" font-size="14.00">/{/</text>
</g>
<!-- start_group -->
<g id="node7" class="node">
<title>start_group</title>
<ellipse fill="none" stroke="green" cx="693.67" cy="-459" rx="64.99" ry="18"/>
<text text-anchor="middle" x="693.67" y="-455.3" font-family="Times,serif" font-size="14.00">start_group</text>
</g>
<!-- class&#45;&gt;start_group -->
<g id="edge7" class="edge">
<title>class&#45;&gt;start_group</title>
<path fill="none" stroke="grey" d="M1126.13,-665.72C1117.21,-651.94 1102.88,-633.31 1085.35,-623 964.81,-552.1 896.12,-634.71 776.66,-562 746.5,-543.64 722.88,-509.93 708.89,-486.08"/>
<polygon fill="grey" stroke="grey" points="711.81,-484.14 703.84,-477.16 705.72,-487.59 711.81,-484.14"/>
<text text-anchor="middle" x="922.01" y="-597.8" font-family="Times,serif" font-size="14.00">/\(/</text>
</g>
<!-- class&#45;&gt;start_node -->
<g id="edge8" class="edge">
<title>class&#45;&gt;start_node</title>
<path fill="none" stroke="grey" d="M1149.19,-666.04C1158.31,-653.48 1172.41,-637.04 1188.95,-628 1338.97,-546.02 1396.77,-561 1567.73,-561 1567.73,-561 1567.73,-561 1990.91,-561 2045.86,-561 2059.56,-558.67 2114.5,-558 2142.06,-557.67 2148.95,-557.87 2176.5,-558 2422.26,-559.17 2714.09,-562.52 2844.56,-564.13"/>
<polygon fill="grey" stroke="grey" points="2844.75,-567.63 2854.8,-564.25 2844.84,-560.63 2844.75,-567.63"/>
<text text-anchor="middle" x="2145.5" y="-561.8" font-family="Times,serif" font-size="14.00">/\[/</text>
</g>
<!-- start_subclass -->
<g id="node9" class="node">
<title>start_subclass</title>
<ellipse fill="none" stroke="green" cx="1405.59" cy="-732" rx="77.19" ry="18"/>
<text text-anchor="middle" x="1405.59" y="-728.3" font-family="Times,serif" font-size="14.00">start_subclass</text>
</g>
<!-- class&#45;&gt;start_subclass -->
<g id="edge9" class="edge">
<title>class&#45;&gt;start_subclass</title>
<path fill="none" stroke="grey" d="M1168.73,-689.82C1175.39,-691.25 1182.39,-692.71 1188.95,-694 1236.5,-703.34 1290.17,-712.8 1332.07,-719.94"/>
<polygon fill="grey" stroke="grey" points="1331.74,-723.44 1342.19,-721.66 1332.92,-716.54 1331.74,-723.44"/>
<text text-anchor="middle" x="1242.45" y="-716.8" font-family="Times,serif" font-size="14.00">/\./</text>
</g>
<!-- class_daisy_chain&#45;&gt;class -->
<g id="edge12" class="edge">
<title>class_daisy_chain&#45;&gt;class</title>
<path fill="none" stroke="grey" d="M1331.84,-655.79C1319.85,-657.55 1307.55,-659.34 1295.95,-661 1256.83,-666.61 1212.24,-672.81 1180.46,-677.19"/>
<polygon fill="grey" stroke="grey" points="1179.62,-673.77 1170.2,-678.61 1180.58,-680.71 1179.62,-673.77"/>
<text text-anchor="middle" x="1242.45" y="-678.8" font-family="Times,serif" font-size="14.00">/[a&#45;z][a&#45;z0&#45;9_]*/</text>
</g>
<!-- class_daisy_chain&#45;&gt;class_daisy_chain -->
<g id="edge13" class="edge">
<title>class_daisy_chain&#45;&gt;class_daisy_chain</title>
<path fill="none" stroke="grey" d="M1376.67,-662.41C1371.27,-672.09 1380.91,-681 1405.59,-681 1421.01,-681 1430.56,-677.52 1434.24,-672.54"/>
<polygon fill="grey" stroke="grey" points="1437.74,-672.5 1434.51,-662.41 1430.74,-672.31 1437.74,-672.5"/>
<text text-anchor="middle" x="1405.59" y="-684.8" font-family="Times,serif" font-size="14.00">/\s+/</text>
</g>
<!-- subclass -->
<g id="node12" class="node">
<title>subclass</title>
<ellipse fill="none" stroke="green" cx="1690.28" cy="-683" rx="50.09" ry="18"/>
<text text-anchor="middle" x="1690.28" y="-679.3" font-family="Times,serif" font-size="14.00">subclass</text>
</g>
<!-- class_daisy_chain&#45;&gt;subclass -->
<g id="edge14" class="edge">
<title>class_daisy_chain&#45;&gt;subclass</title>
<path fill="none" stroke="grey" d="M1479.02,-655.88C1491.11,-657.63 1503.52,-659.4 1515.23,-661 1554.34,-666.35 1598.45,-671.92 1632.48,-676.12"/>
<polygon fill="grey" stroke="grey" points="1632.35,-679.63 1642.7,-677.38 1633.2,-672.68 1632.35,-679.63"/>
<text text-anchor="middle" x="1568.73" y="-677.8" font-family="Times,serif" font-size="14.00">/\./</text>
</g>
<!-- edge&#45;&gt;edge -->
<g id="edge19" class="edge">
<title>edge&#45;&gt;edge</title>
<path fill="none" stroke="grey" d="M454.29,-436.92C450.06,-447.15 455.47,-457 470.52,-457 480.4,-457 486.13,-452.76 487.7,-446.95"/>
<polygon fill="grey" stroke="grey" points="491.18,-446.54 486.76,-436.92 484.21,-447.2 491.18,-446.54"/>
<text text-anchor="middle" x="470.52" y="-460.8" font-family="Times,serif" font-size="14.00">/\s+/</text>
</g>
<!-- edge&#45;&gt;start_group -->
<g id="edge22" class="edge">
<title>edge&#45;&gt;start_group</title>
<path fill="none" stroke="grey" d="M498.61,-430.63C506.01,-432.99 514.09,-435.32 521.67,-437 553.96,-444.17 590.24,-449.25 621.04,-452.7"/>
<polygon fill="grey" stroke="grey" points="620.94,-456.21 631.26,-453.81 621.7,-449.25 620.94,-456.21"/>
<text text-anchor="middle" x="566.17" y="-454.8" font-family="Times,serif" font-size="14.00">/\(/</text>
</g>
<!-- edge&#45;&gt;start_node -->
<g id="edge23" class="edge">
<title>edge&#45;&gt;start_node</title>
<path fill="none" stroke="grey" d="M491.38,-406.67C496.18,-402.2 500.76,-396.88 503.67,-391 521.69,-354.57 495.05,-239.71 521.67,-209 572.93,-149.87 614.41,-167 692.67,-167 692.67,-167 692.67,-167 2146.5,-167 2446.4,-167 2569.23,-144.18 2799.76,-336 2864.3,-389.7 2895.59,-489.04 2907.53,-537.28"/>
<polygon fill="grey" stroke="grey" points="2904.13,-538.11 2909.85,-547.03 2910.94,-536.49 2904.13,-538.11"/>
<text text-anchor="middle" x="1690.28" y="-170.8" font-family="Times,serif" font-size="14.00">/\[/</text>
</g>
<!-- edge&#45;&gt;daisy_chain -->
<g id="edge18" class="edge">
<title>edge&#45;&gt;daisy_chain</title>
<path fill="none" stroke="grey" d="M471.95,-439.07C473.75,-501.74 482.6,-708.8 521.67,-760 553.18,-801.29 579.33,-790.79 628.67,-807 637.94,-810.05 1304.38,-959.08 1313.95,-961 1426.25,-983.56 1453.18,-1006 1567.73,-1006 1567.73,-1006 1567.73,-1006 2513.08,-1006 2572.32,-1006 2638.72,-990.33 2683.2,-977.48"/>
<polygon fill="grey" stroke="grey" points="2684.3,-980.81 2692.91,-974.62 2682.32,-974.09 2684.3,-980.81"/>
<text text-anchor="middle" x="1568.73" y="-1009.8" font-family="Times,serif" font-size="14.00">/,/</text>
</g>
<!-- edge&#45;&gt;post_group -->
<g id="edge20" class="edge">
<title>edge&#45;&gt;post_group</title>
<path fill="none" stroke="grey" d="M489.83,-406.21C494.97,-401.23 500.12,-395.32 503.67,-389 520.45,-359.11 498.03,-338.83 521.67,-314 576.27,-256.66 613.49,-264 692.67,-264 692.67,-264 692.67,-264 2274.8,-264 2339.86,-264 2413.03,-281.7 2460.47,-295.6"/>
<polygon fill="grey" stroke="grey" points="2459.61,-299 2470.19,-298.5 2461.61,-292.29 2459.61,-299"/>
<text text-anchor="middle" x="1405.59" y="-267.8" font-family="Times,serif" font-size="14.00">/\)/</text>
</g>
<!-- start_attribute -->
<g id="node15" class="node">
<title>start_attribute</title>
<ellipse fill="none" stroke="green" cx="2512.08" cy="-91" rx="79.09" ry="18"/>
<text text-anchor="middle" x="2512.08" y="-87.3" font-family="Times,serif" font-size="14.00">start_attribute</text>
</g>
<!-- edge&#45;&gt;start_attribute -->
<g id="edge21" class="edge">
<title>edge&#45;&gt;start_attribute</title>
<path fill="none" stroke="grey" d="M490.47,-406.53C495.63,-401.56 500.64,-395.58 503.67,-389 525.69,-341.23 486.23,-191.86 521.67,-153 573.62,-96.05 615.58,-124 692.67,-124 692.67,-124 692.67,-124 1243.45,-124 1687.26,-124 2218.18,-103.54 2423.8,-94.84"/>
<polygon fill="grey" stroke="grey" points="2424.09,-98.33 2433.93,-94.41 2423.79,-91.33 2424.09,-98.33"/>
<text text-anchor="middle" x="1405.59" y="-127.8" font-family="Times,serif" font-size="14.00">/{/</text>
</g>
<!-- class_attribute -->
<g id="node10" class="node">
<title>class_attribute</title>
<ellipse fill="none" stroke="green" cx="2273.8" cy="-835" rx="79.09" ry="18"/>
<text text-anchor="middle" x="2273.8" y="-831.3" font-family="Times,serif" font-size="14.00">class_attribute</text>
</g>
<!-- start_class_attribute&#45;&gt;class_attribute -->
<g id="edge59" class="edge">
<title>start_class_attribute&#45;&gt;class_attribute</title>
<path fill="none" stroke="grey" d="M2093.48,-842.63C2123.61,-841.35 2156.28,-839.96 2185.37,-838.72"/>
<polygon fill="grey" stroke="grey" points="2185.66,-842.21 2195.5,-838.29 2185.37,-835.22 2185.66,-842.21"/>
<text text-anchor="middle" x="2145.5" y="-844.8" font-family="Times,serif" font-size="14.00">/[\w :;]+/</text>
</g>
<!-- start_group&#45;&gt;edge -->
<g id="edge60" class="edge">
<title>start_group&#45;&gt;edge</title>
<path fill="none" stroke="grey" d="M667.26,-442.44C651.64,-433.25 630.81,-422.75 610.67,-418 578.35,-410.37 540.63,-411.8 512.62,-414.76"/>
<polygon fill="grey" stroke="grey" points="511.92,-411.31 502.39,-415.95 512.73,-418.27 511.92,-411.31"/>
<text text-anchor="middle" x="566.17" y="-421.8" font-family="Times,serif" font-size="14.00">/[&#45;&lt;=&gt;~.]+/</text>
</g>
<!-- start_group&#45;&gt;start_group -->
<g id="edge63" class="edge">
<title>start_group&#45;&gt;start_group</title>
<path fill="none" stroke="grey" d="M671.34,-476.04C666.78,-485.86 674.22,-495 693.67,-495 705.82,-495 713.28,-491.43 716.06,-486.35"/>
<polygon fill="grey" stroke="grey" points="719.55,-486.02 715.99,-476.04 712.56,-486.06 719.55,-486.02"/>
<text text-anchor="middle" x="693.67" y="-498.8" font-family="Times,serif" font-size="14.00">/\s+/</text>
</g>
<!-- start_group&#45;&gt;post_group -->
<g id="edge62" class="edge">
<title>start_group&#45;&gt;post_group</title>
<path fill="none" stroke="grey" d="M748.37,-449.09C757.78,-447.57 767.49,-446.13 776.66,-445 1474.05,-359.33 1652.6,-380.84 2353.09,-326 2369.54,-324.71 2373.65,-324.41 2390.09,-323 2406.88,-321.56 2424.98,-319.94 2441.93,-318.4"/>
<polygon fill="grey" stroke="grey" points="2442.68,-321.85 2452.32,-317.46 2442.04,-314.88 2442.68,-321.85"/>
<text text-anchor="middle" x="1568.73" y="-379.8" font-family="Times,serif" font-size="14.00">/\)/</text>
</g>
<!-- group -->
<g id="node17" class="node">
<title>group</title>
<ellipse fill="none" stroke="green" cx="922.01" cy="-683" rx="38.19" ry="18"/>
<text text-anchor="middle" x="922.01" y="-679.3" font-family="Times,serif" font-size="14.00">group</text>
</g>
<!-- start_group&#45;&gt;group -->
<g id="edge61" class="edge">
<title>start_group&#45;&gt;group</title>
<path fill="none" stroke="grey" d="M696.73,-476.99C702.17,-515.66 720.59,-606.92 776.66,-653 784.35,-659.32 835.93,-669.03 875.26,-675.68"/>
<polygon fill="grey" stroke="grey" points="874.78,-679.14 885.22,-677.34 875.93,-672.24 874.78,-679.14"/>
<text text-anchor="middle" x="821.16" y="-676.8" font-family="Times,serif" font-size="14.00">/[\w.]+:/</text>
</g>
<!-- start_node&#45;&gt;start_node -->
<g id="edge66" class="edge">
<title>start_node&#45;&gt;start_node</title>
<path fill="none" stroke="grey" d="M2899.2,-582.41C2896.33,-592.09 2901.45,-601 2914.55,-601 2922.74,-601 2927.81,-597.52 2929.76,-592.54"/>
<polygon fill="grey" stroke="grey" points="2933.26,-592.46 2929.91,-582.41 2926.27,-592.36 2933.26,-592.46"/>
<text text-anchor="middle" x="2914.55" y="-604.8" font-family="Times,serif" font-size="14.00">/\s+/</text>
</g>
<!-- node -->
<g id="node18" class="node">
<title>node</title>
<ellipse fill="none" stroke="green" cx="1989.91" cy="-607" rx="33.29" ry="18"/>
<text text-anchor="middle" x="1989.91" y="-603.3" font-family="Times,serif" font-size="14.00">node</text>
</g>
<!-- start_node&#45;&gt;node -->
<g id="edge64" class="edge">
<title>start_node&#45;&gt;node</title>
<path fill="none" stroke="grey" d="M2887.02,-581.15C2853.29,-600.11 2792.66,-629 2736.41,-629 2272.8,-629 2272.8,-629 2272.8,-629 2187.25,-629 2087.55,-618.81 2032.6,-612.3"/>
<polygon fill="grey" stroke="grey" points="2032.9,-608.81 2022.55,-611.09 2032.07,-615.76 2032.9,-608.81"/>
<text text-anchor="middle" x="2512.08" y="-632.8" font-family="Times,serif" font-size="14.00">/[\w.]+/</text>
</g>
<!-- post_node -->
<g id="node19" class="node">
<title>post_node</title>
<ellipse fill="none" stroke="green" cx="2273.8" cy="-434" rx="57.69" ry="18"/>
<text text-anchor="middle" x="2273.8" y="-430.3" font-family="Times,serif" font-size="14.00">post_node</text>
</g>
<!-- start_node&#45;&gt;post_node -->
<g id="edge65" class="edge">
<title>start_node&#45;&gt;post_node</title>
<path fill="none" stroke="grey" d="M2865.42,-554.62C2806.62,-541.98 2704.11,-520.09 2616.07,-502 2516.86,-481.61 2401.24,-458.77 2333.24,-445.42"/>
<polygon fill="grey" stroke="grey" points="2333.64,-441.94 2323.15,-443.45 2332.29,-448.8 2333.64,-441.94"/>
<text text-anchor="middle" x="2643.57" y="-512.8" font-family="Times,serif" font-size="14.00">/]/</text>
</g>
<!-- start_subclass&#45;&gt;subclass -->
<g id="edge67" class="edge">
<title>start_subclass&#45;&gt;subclass</title>
<path fill="none" stroke="grey" d="M1468.28,-721.31C1517.92,-712.7 1587.03,-700.72 1634.68,-692.46"/>
<polygon fill="grey" stroke="grey" points="1635.55,-695.86 1644.81,-690.71 1634.36,-688.97 1635.55,-695.86"/>
<text text-anchor="middle" x="1568.73" y="-714.8" font-family="Times,serif" font-size="14.00">/[a&#45;z][a&#45;z0&#45;9_]*/</text>
</g>
<!-- class_attribute&#45;&gt;class_attribute -->
<g id="edge10" class="edge">
<title>class_attribute&#45;&gt;class_attribute</title>
<path fill="none" stroke="grey" d="M2254.74,-852.78C2251.5,-862.31 2257.85,-871 2273.8,-871 2283.51,-871 2289.66,-867.77 2292.26,-863.1"/>
<polygon fill="grey" stroke="grey" points="2295.77,-862.97 2292.85,-852.78 2288.78,-862.56 2295.77,-862.97"/>
<text text-anchor="middle" x="2273.8" y="-874.8" font-family="Times,serif" font-size="14.00">/[\w :;]+/</text>
</g>
<!-- post_class_attribute -->
<g id="node11" class="node">
<title>post_class_attribute</title>
<ellipse fill="none" stroke="green" cx="2512.08" cy="-752" rx="103.98" ry="18"/>
<text text-anchor="middle" x="2512.08" y="-748.3" font-family="Times,serif" font-size="14.00">post_class_attribute</text>
</g>
<!-- class_attribute&#45;&gt;post_class_attribute -->
<g id="edge11" class="edge">
<title>class_attribute&#45;&gt;post_class_attribute</title>
<path fill="none" stroke="grey" d="M2317.59,-819.97C2356.2,-806.4 2413.26,-786.36 2455.41,-771.55"/>
<polygon fill="grey" stroke="grey" points="2456.7,-774.81 2464.98,-768.2 2454.38,-768.21 2456.7,-774.81"/>
<text text-anchor="middle" x="2380.59" y="-803.8" font-family="Times,serif" font-size="14.00">/}/</text>
</g>
<!-- post_class_attribute&#45;&gt;class -->
<g id="edge41" class="edge">
<title>post_class_attribute&#45;&gt;class</title>
<path fill="none" stroke="grey" d="M2436.55,-764.43C2390.16,-771.11 2329.17,-778 2274.8,-778 1404.59,-778 1404.59,-778 1404.59,-778 1306.59,-778 1275.41,-778.13 1188.95,-732 1177.29,-725.78 1166.44,-716.11 1157.79,-707"/>
<polygon fill="grey" stroke="grey" points="1160.37,-704.63 1151.07,-699.56 1155.18,-709.33 1160.37,-704.63"/>
<text text-anchor="middle" x="1811.82" y="-781.8" font-family="Times,serif" font-size="14.00">/[a&#45;z][a&#45;z0&#45;9_]*/</text>
</g>
<!-- post_class_attribute&#45;&gt;edge -->
<g id="edge43" class="edge">
<title>post_class_attribute&#45;&gt;edge</title>
<path fill="none" stroke="grey" d="M2427.84,-741.37C2258.25,-719.62 1888.2,-671.71 1883.32,-667 1849.26,-634.11 1898.31,-595.96 1865.32,-562 1691.14,-382.71 1558,-505.06 1313.95,-451 1188.46,-423.2 1161.39,-383 1032.85,-383 692.67,-383 692.67,-383 692.67,-383 627.79,-383 553.74,-399.08 509.91,-410.32"/>
<polygon fill="grey" stroke="grey" points="509.02,-406.93 500.23,-412.85 510.79,-413.71 509.02,-406.93"/>
<text text-anchor="middle" x="1405.59" y="-469.8" font-family="Times,serif" font-size="14.00">/[&#45;&lt;=&gt;~.]+/</text>
</g>
<!-- post_class_attribute&#45;&gt;start_group -->
<g id="edge45" class="edge">
<title>post_class_attribute&#45;&gt;start_group</title>
<path fill="none" stroke="grey" d="M2411.96,-757.04C2255.63,-762.85 1961.52,-764.49 1883.32,-700 1860.53,-681.2 1885.16,-657.9 1865.32,-636 1787.43,-550.04 1735.16,-567.49 1622.23,-541 1611.8,-538.55 981.64,-483.85 766.07,-465.18"/>
<polygon fill="grey" stroke="grey" points="766.08,-461.67 755.81,-464.29 765.47,-468.64 766.08,-461.67"/>
<text text-anchor="middle" x="1568.73" y="-544.8" font-family="Times,serif" font-size="14.00">/\(/</text>
</g>
<!-- post_class_attribute&#45;&gt;start_node -->
<g id="edge46" class="edge">
<title>post_class_attribute&#45;&gt;start_node</title>
<path fill="none" stroke="grey" d="M2582.2,-738.59C2650.66,-723.13 2756.58,-693.16 2836.76,-643 2859.05,-629.06 2879.68,-607.4 2893.93,-590.44"/>
<polygon fill="grey" stroke="grey" points="2896.76,-592.5 2900.39,-582.55 2891.35,-588.07 2896.76,-592.5"/>
<text text-anchor="middle" x="2735.41" y="-717.8" font-family="Times,serif" font-size="14.00">/\[/</text>
</g>
<!-- post_class_attribute&#45;&gt;post_class_attribute -->
<g id="edge44" class="edge">
<title>post_class_attribute&#45;&gt;post_class_attribute</title>
<path fill="none" stroke="grey" d="M2488.71,-769.78C2484.74,-779.31 2492.53,-788 2512.08,-788 2523.99,-788 2531.54,-784.77 2534.72,-780.1"/>
<polygon fill="grey" stroke="grey" points="2538.23,-780 2535.45,-769.78 2531.25,-779.51 2538.23,-780"/>
<text text-anchor="middle" x="2512.08" y="-791.8" font-family="Times,serif" font-size="14.00">/\s+/</text>
</g>
<!-- post_class_attribute&#45;&gt;daisy_chain -->
<g id="edge42" class="edge">
<title>post_class_attribute&#45;&gt;daisy_chain</title>
<path fill="none" stroke="grey" d="M2531.95,-769.82C2571.68,-807.33 2663.97,-894.48 2708.91,-936.92"/>
<polygon fill="grey" stroke="grey" points="2706.54,-939.49 2716.21,-943.81 2711.35,-934.4 2706.54,-939.49"/>
<text text-anchor="middle" x="2643.57" y="-884.8" font-family="Times,serif" font-size="14.00">/,/</text>
</g>
<!-- subclass&#45;&gt;class_daisy_chain -->
<g id="edge68" class="edge">
<title>subclass&#45;&gt;class_daisy_chain</title>
<path fill="none" stroke="grey" d="M1668.95,-666.47C1656.33,-657.3 1639.3,-646.81 1622.23,-642 1579.2,-629.89 1529.41,-629.72 1488.52,-633"/>
<polygon fill="grey" stroke="grey" points="1487.98,-629.53 1478.33,-633.9 1488.6,-636.51 1487.98,-629.53"/>
<text text-anchor="middle" x="1568.73" y="-645.8" font-family="Times,serif" font-size="14.00">/,/</text>
</g>
<!-- subclass&#45;&gt;edge -->
<g id="edge69" class="edge">
<title>subclass&#45;&gt;edge</title>
<path fill="none" stroke="grey" d="M1669.96,-699.56C1657.18,-709.72 1639.63,-722.24 1622.23,-730 1570.15,-753.24 1553.77,-751.53 1497.23,-759 1114.37,-809.59 1004.9,-821.13 628.67,-734 578.41,-722.36 554.06,-729.15 521.67,-689 514.12,-679.64 486.97,-516.31 476.08,-449.32"/>
<polygon fill="grey" stroke="grey" points="479.48,-448.38 474.42,-439.07 472.57,-449.5 479.48,-448.38"/>
<text text-anchor="middle" x="1031.85" y="-801.8" font-family="Times,serif" font-size="14.00">/[&#45;&lt;=&gt;~.]+/</text>
</g>
<!-- subclass&#45;&gt;start_class_attribute -->
<g id="edge71" class="edge">
<title>subclass&#45;&gt;start_class_attribute</title>
<path fill="none" stroke="grey" d="M1733.61,-692.22C1770.09,-701.27 1823.34,-717.22 1865.32,-741 1904.16,-763 1942.11,-798.19 1965.49,-821.93"/>
<polygon fill="grey" stroke="grey" points="1963.07,-824.46 1972.55,-829.2 1968.1,-819.59 1963.07,-824.46"/>
<text text-anchor="middle" x="1811.82" y="-744.8" font-family="Times,serif" font-size="14.00">/{/</text>
</g>
<!-- subclass&#45;&gt;start_group -->
<g id="edge72" class="edge">
<title>subclass&#45;&gt;start_group</title>
<path fill="none" stroke="grey" d="M1674.02,-665.77C1661.48,-652.82 1642.53,-635.86 1622.23,-627 1274.99,-475.48 1128.58,-659.31 776.66,-519 755.92,-510.73 735.65,-495.97 720.45,-483.16"/>
<polygon fill="grey" stroke="grey" points="722.4,-480.22 712.56,-476.3 717.81,-485.5 722.4,-480.22"/>
<text text-anchor="middle" x="1137.15" y="-578.8" font-family="Times,serif" font-size="14.00">/\(/</text>
</g>
<!-- subclass&#45;&gt;subclass -->
<g id="edge73" class="edge">
<title>subclass&#45;&gt;subclass</title>
<path fill="none" stroke="grey" d="M1669.18,-699.66C1664.49,-709.62 1671.53,-719 1690.28,-719 1702.29,-719 1709.49,-715.15 1711.88,-709.77"/>
<polygon fill="grey" stroke="grey" points="1715.37,-709.47 1711.37,-699.66 1708.38,-709.83 1715.37,-709.47"/>
<text text-anchor="middle" x="1690.28" y="-722.8" font-family="Times,serif" font-size="14.00">/\s+/</text>
</g>
<!-- subclass&#45;&gt;node -->
<g id="edge70" class="edge">
<title>subclass&#45;&gt;node</title>
<path fill="none" stroke="grey" d="M1731.42,-672.75C1788.63,-658.14 1892.96,-631.5 1949.67,-617.02"/>
<polygon fill="grey" stroke="grey" points="1950.86,-620.33 1959.69,-614.46 1949.13,-613.55 1950.86,-620.33"/>
<text text-anchor="middle" x="1811.82" y="-667.8" font-family="Times,serif" font-size="14.00">/\[/</text>
</g>
<!-- daisy_chain&#45;&gt;edge -->
<g id="edge16" class="edge">
<title>daisy_chain&#45;&gt;edge</title>
<path fill="none" stroke="grey" d="M2671.94,-964.03C2627.62,-965.92 2566.71,-968 2513.08,-968 1567.73,-968 1567.73,-968 1567.73,-968 1348.41,-968 1300.19,-908.09 1085.35,-864 882.79,-822.43 824.8,-840.52 628.67,-775 578.52,-758.25 553.31,-765.36 521.67,-723 489.44,-679.84 476.81,-515.67 472.95,-449.2"/>
<polygon fill="grey" stroke="grey" points="476.43,-448.83 472.38,-439.04 469.44,-449.22 476.43,-448.83"/>
<text text-anchor="middle" x="1568.73" y="-971.8" font-family="Times,serif" font-size="14.00">/[&#45;&lt;=&gt;~.]+/</text>
</g>
<!-- daisy_chain&#45;&gt;start_node -->
<g id="edge17" class="edge">
<title>daisy_chain&#45;&gt;start_node</title>
<path fill="none" stroke="grey" d="M2786.99,-950.22C2805.1,-943.95 2824.14,-934.17 2836.76,-919 2878.45,-868.89 2902.98,-667.8 2910.8,-593.11"/>
<polygon fill="grey" stroke="grey" points="2914.29,-593.35 2911.83,-583.04 2907.33,-592.63 2914.29,-593.35"/>
<text text-anchor="middle" x="2827.26" y="-937.8" font-family="Times,serif" font-size="14.00">/\[/</text>
</g>
<!-- daisy_chain&#45;&gt;daisy_chain -->
<g id="edge15" class="edge">
<title>daisy_chain&#45;&gt;daisy_chain</title>
<path fill="none" stroke="grey" d="M2719.24,-978.78C2716.49,-988.31 2721.88,-997 2735.41,-997 2743.66,-997 2748.89,-993.77 2751.09,-989.1"/>
<polygon fill="grey" stroke="grey" points="2754.6,-988.94 2751.59,-978.78 2747.61,-988.6 2754.6,-988.94"/>
<text text-anchor="middle" x="2735.41" y="-1000.8" font-family="Times,serif" font-size="14.00">/\s+/</text>
</g>
<!-- post_group&#45;&gt;edge -->
<g id="edge47" class="edge">
<title>post_group&#45;&gt;edge</title>
<path fill="none" stroke="grey" d="M2488.27,-295.21C2447.59,-266.96 2358.86,-213 2274.8,-213 692.67,-213 692.67,-213 692.67,-213 613.73,-213 573.63,-201.57 521.67,-261 483.86,-304.25 529.37,-337.62 503.67,-389 501.95,-392.44 499.71,-395.74 497.22,-398.81"/>
<polygon fill="grey" stroke="grey" points="494.42,-396.69 490.21,-406.41 499.57,-401.43 494.42,-396.69"/>
<text text-anchor="middle" x="1405.59" y="-216.8" font-family="Times,serif" font-size="14.00">/[&#45;&lt;=&gt;~.]+/</text>
</g>
<!-- post_group&#45;&gt;start_group -->
<g id="edge49" class="edge">
<title>post_group&#45;&gt;start_group</title>
<path fill="none" stroke="grey" d="M2449.39,-312C2401.71,-312 2334.07,-312 2274.8,-312 1810.82,-312 1810.82,-312 1810.82,-312 1679.42,-312 1646.4,-310.17 1515.23,-318 1394.06,-325.24 1364.83,-345 1243.45,-345 921.01,-345 921.01,-345 921.01,-345 841.56,-345 761.59,-401.71 721.35,-435.14"/>
<polygon fill="grey" stroke="grey" points="718.98,-432.55 713.61,-441.69 723.51,-437.9 718.98,-432.55"/>
<text text-anchor="middle" x="1568.73" y="-321.8" font-family="Times,serif" font-size="14.00">/\(/</text>
</g>
<!-- post_group&#45;&gt;start_node -->
<g id="edge50" class="edge">
<title>post_group&#45;&gt;start_node</title>
<path fill="none" stroke="grey" d="M2570.73,-318.36C2641.26,-328.91 2760.67,-356.1 2836.76,-424 2871.51,-455.02 2893.62,-505.62 2904.78,-537.02"/>
<polygon fill="grey" stroke="grey" points="2901.6,-538.55 2908.14,-546.88 2908.22,-536.29 2901.6,-538.55"/>
<text text-anchor="middle" x="2735.41" y="-396.8" font-family="Times,serif" font-size="14.00">/\[/</text>
</g>
<!-- post_group&#45;&gt;post_group -->
<g id="edge48" class="edge">
<title>post_group&#45;&gt;post_group</title>
<path fill="none" stroke="grey" d="M2489.04,-329.04C2484.34,-338.86 2492.02,-348 2512.08,-348 2524.62,-348 2532.32,-344.43 2535.18,-339.35"/>
<polygon fill="grey" stroke="grey" points="2538.68,-339.01 2535.12,-329.04 2531.68,-339.06 2538.68,-339.01"/>
<text text-anchor="middle" x="2512.08" y="-351.8" font-family="Times,serif" font-size="14.00">/\s+/</text>
</g>
<!-- start_attribute&#45;&gt;attribute -->
<g id="edge58" class="edge">
<title>start_attribute&#45;&gt;attribute</title>
<path fill="none" stroke="grey" d="M2464.53,-76.45C2417.24,-62.97 2341.66,-45 2274.8,-45 1810.82,-45 1810.82,-45 1810.82,-45 1726.08,-45 1706.6,-24.91 1622.23,-17 1454.49,-1.27 1411.93,-2 1243.45,-2 234.68,-2 234.68,-2 234.68,-2 193.18,-2 146.55,-6.19 110.93,-10.29"/>
<polygon fill="grey" stroke="grey" points="110.23,-6.84 100.71,-11.49 111.05,-13.8 110.23,-6.84"/>
<text text-anchor="middle" x="1137.15" y="-5.8" font-family="Times,serif" font-size="14.00">/[\w :;]+/</text>
</g>
<!-- global -->
<g id="node16" class="node">
<title>global</title>
<ellipse fill="none" stroke="green" cx="235.68" cy="-365" rx="38.99" ry="18"/>
<text text-anchor="middle" x="235.68" y="-361.3" font-family="Times,serif" font-size="14.00">global</text>
</g>
<!-- global&#45;&gt;class -->
<g id="edge24" class="edge">
<title>global&#45;&gt;class</title>
<path fill="none" stroke="grey" d="M246.1,-382.67C283.36,-450.14 428.32,-689.89 628.67,-734 772.69,-765.71 814.73,-766.27 960.35,-743 1011.15,-734.88 1066.89,-713.59 1101.7,-698.69"/>
<polygon fill="grey" stroke="grey" points="1103.16,-701.87 1110.94,-694.67 1100.37,-695.45 1103.16,-701.87"/>
<text text-anchor="middle" x="693.67" y="-759.8" font-family="Times,serif" font-size="14.00">/[a&#45;z][a&#45;z0&#45;9_]*/</text>
</g>
<!-- global&#45;&gt;edge -->
<g id="edge25" class="edge">
<title>global&#45;&gt;edge</title>
<path fill="none" stroke="grey" d="M270.54,-373.14C312.9,-383.33 385.3,-400.74 430.11,-411.52"/>
<polygon fill="grey" stroke="grey" points="429.51,-414.98 440.05,-413.91 431.15,-408.17 429.51,-414.98"/>
<text text-anchor="middle" x="374.88" y="-411.8" font-family="Times,serif" font-size="14.00">/[&#45;&lt;=&gt;~.]+/</text>
</g>
<!-- global&#45;&gt;start_class_attribute -->
<g id="edge27" class="edge">
<title>global&#45;&gt;start_class_attribute</title>
<path fill="none" stroke="grey" d="M240.13,-382.95C258.81,-477.57 351.37,-914 469.52,-914 469.52,-914 469.52,-914 822.16,-914 1286.22,-914 1404.05,-919.78 1865.32,-869 1880.02,-867.38 1895.61,-865.08 1910.58,-862.56"/>
<polygon fill="grey" stroke="grey" points="1911.57,-865.94 1920.83,-860.79 1910.38,-859.04 1911.57,-865.94"/>
<text text-anchor="middle" x="1031.85" y="-917.8" font-family="Times,serif" font-size="14.00">/{/</text>
</g>
<!-- global&#45;&gt;start_group -->
<g id="edge28" class="edge">
<title>global&#45;&gt;start_group</title>
<path fill="none" stroke="grey" d="M274.36,-362.29C343.97,-358.77 496.06,-358.11 610.67,-408 628.27,-415.66 646.54,-426.68 661.35,-436.51"/>
<polygon fill="grey" stroke="grey" points="659.39,-439.41 669.64,-442.13 663.32,-433.62 659.39,-439.41"/>
<text text-anchor="middle" x="470.52" y="-378.8" font-family="Times,serif" font-size="14.00">/\(/</text>
</g>
<!-- global&#45;&gt;start_node -->
<g id="edge29" class="edge">
<title>global&#45;&gt;start_node</title>
<path fill="none" stroke="grey" d="M240.44,-346.88C255.63,-279.18 319.06,-45 469.52,-45 469.52,-45 469.52,-45 1032.85,-45 1379.03,-45 1464.65,-7 1810.82,-7 1810.82,-7 1810.82,-7 2736.41,-7 2848.79,-7 2899.19,-423.29 2910.84,-536.74"/>
<polygon fill="grey" stroke="grey" points="2907.37,-537.15 2911.85,-546.75 2914.33,-536.45 2907.37,-537.15"/>
<text text-anchor="middle" x="1568.73" y="-21.8" font-family="Times,serif" font-size="14.00">/\[/</text>
</g>
<!-- global&#45;&gt;global -->
<g id="edge26" class="edge">
<title>global&#45;&gt;global</title>
<path fill="none" stroke="grey" d="M217.56,-381.29C213.19,-391.39 219.23,-401 235.68,-401 246.22,-401 252.49,-397.06 254.49,-391.57"/>
<polygon fill="grey" stroke="grey" points="257.96,-391.04 253.81,-381.29 250.97,-391.5 257.96,-391.04"/>
<text text-anchor="middle" x="235.68" y="-404.8" font-family="Times,serif" font-size="14.00">/\s+/</text>
</g>
<!-- group&#45;&gt;class -->
<g id="edge30" class="edge">
<title>group&#45;&gt;class</title>
<path fill="none" stroke="grey" d="M960.62,-683C997.54,-683 1053.82,-683 1092.65,-683"/>
<polygon fill="grey" stroke="grey" points="1093.11,-686.5 1103.11,-683 1093.11,-679.5 1093.11,-686.5"/>
<text text-anchor="middle" x="1031.85" y="-686.8" font-family="Times,serif" font-size="14.00">/[a&#45;z][a&#45;z0&#45;9_]*/</text>
</g>
<!-- group&#45;&gt;edge -->
<g id="edge31" class="edge">
<title>group&#45;&gt;edge</title>
<path fill="none" stroke="grey" d="M888.84,-692.19C813.44,-711.58 623.91,-747.37 521.67,-651 492.68,-623.67 478.76,-504.53 473.77,-449.3"/>
<polygon fill="grey" stroke="grey" points="477.24,-448.81 472.89,-439.15 470.27,-449.42 477.24,-448.81"/>
<text text-anchor="middle" x="693.67" y="-718.8" font-family="Times,serif" font-size="14.00">/[&#45;&lt;=&gt;~.]+/</text>
</g>
<!-- group&#45;&gt;start_node -->
<g id="edge33" class="edge">
<title>group&#45;&gt;start_node</title>
<path fill="none" stroke="grey" d="M945.64,-697.36C990.51,-725.3 1094.58,-787.53 1188.95,-825 1242.46,-846.25 1257.48,-847.74 1313.95,-859 1457.34,-887.59 1494.32,-891.65 1640.23,-901 1835.36,-913.51 1924.75,-963.14 2353.09,-895 2561.64,-861.82 2637,-867.55 2799.76,-733 2847.74,-693.34 2883.7,-628.38 2901.37,-591.95"/>
<polygon fill="grey" stroke="grey" points="2904.54,-593.44 2905.67,-582.91 2898.22,-590.44 2904.54,-593.44"/>
<text text-anchor="middle" x="1989.91" y="-933.8" font-family="Times,serif" font-size="14.00">/\[/</text>
</g>
<!-- group&#45;&gt;group -->
<g id="edge32" class="edge">
<title>group&#45;&gt;group</title>
<path fill="none" stroke="grey" d="M904.58,-699.29C900.38,-709.39 906.19,-719 922.01,-719 932.14,-719 938.17,-715.06 940.09,-709.57"/>
<polygon fill="grey" stroke="grey" points="943.56,-709.05 939.43,-699.29 936.57,-709.49 943.56,-709.05"/>
<text text-anchor="middle" x="922.01" y="-722.8" font-family="Times,serif" font-size="14.00">/\s+/</text>
</g>
<!-- node&#45;&gt;node -->
<g id="edge34" class="edge">
<title>node&#45;&gt;node</title>
<path fill="none" stroke="grey" d="M1965.8,-619.92C1954.81,-631.13 1962.84,-643 1989.91,-643 2009.79,-643 2019.41,-636.6 2018.76,-628.76"/>
<polygon fill="grey" stroke="grey" points="2021.83,-627.08 2014.02,-619.92 2015.66,-630.39 2021.83,-627.08"/>
<text text-anchor="middle" x="1989.91" y="-646.8" font-family="Times,serif" font-size="14.00">/\s+/</text>
</g>
<!-- node&#45;&gt;post_node -->
<g id="edge35" class="edge">
<title>node&#45;&gt;post_node</title>
<path fill="none" stroke="grey" d="M2022.96,-604.88C2069.15,-601.32 2151.62,-592.92 2176.5,-577 2219.68,-549.37 2248.19,-494.7 2262.33,-461.54"/>
<polygon fill="grey" stroke="grey" points="2265.69,-462.57 2266.25,-451.99 2259.21,-459.91 2265.69,-462.57"/>
<text text-anchor="middle" x="2145.5" y="-597.8" font-family="Times,serif" font-size="14.00">/]/</text>
</g>
<!-- post_node&#45;&gt;edge -->
<g id="edge52" class="edge">
<title>post_node&#45;&gt;edge</title>
<path fill="none" stroke="grey" d="M2219.22,-427.73C2184.31,-423.77 2137.74,-418.71 2096.5,-415 1838.53,-391.79 1771.13,-413.03 1515.23,-373 1392.42,-353.79 1367.75,-307 1243.45,-307 692.67,-307 692.67,-307 692.67,-307 611.83,-307 588.71,-323.83 521.67,-369 511.75,-375.68 511.91,-380.33 503.67,-389 500.88,-391.93 497.92,-394.98 494.96,-397.97"/>
<polygon fill="grey" stroke="grey" points="492.31,-395.67 487.72,-405.22 497.27,-400.62 492.31,-395.67"/>
<text text-anchor="middle" x="1242.45" y="-310.8" font-family="Times,serif" font-size="14.00">/[&#45;&lt;=&gt;~.]+/</text>
</g>
<!-- post_node&#45;&gt;start_group -->
<g id="edge56" class="edge">
<title>post_node&#45;&gt;start_group</title>
<path fill="none" stroke="grey" d="M2216.11,-432.4C2159.19,-430.94 2068.98,-429 1990.91,-429 1567.73,-429 1567.73,-429 1567.73,-429 1270.66,-429 917.07,-446.56 767.36,-454.81"/>
<polygon fill="grey" stroke="grey" points="767.16,-451.32 757.37,-455.37 767.55,-458.31 767.16,-451.32"/>
<text text-anchor="middle" x="1405.59" y="-435.8" font-family="Times,serif" font-size="14.00">/\(/</text>
</g>
<!-- post_node&#45;&gt;start_node -->
<g id="edge57" class="edge">
<title>post_node&#45;&gt;start_node</title>
<path fill="none" stroke="grey" d="M2330.65,-430.43C2455.35,-423.46 2752.13,-412.72 2836.76,-462 2866.71,-479.44 2888.59,-513.65 2901.17,-537.85"/>
<polygon fill="grey" stroke="grey" points="2898.08,-539.51 2905.68,-546.9 2904.35,-536.39 2898.08,-539.51"/>
<text text-anchor="middle" x="2643.57" y="-430.8" font-family="Times,serif" font-size="14.00">/\[/</text>
</g>
<!-- post_node&#45;&gt;daisy_chain -->
<g id="edge51" class="edge">
<title>post_node&#45;&gt;daisy_chain</title>
<path fill="none" stroke="grey" d="M2300.44,-450.16C2319.55,-461.9 2346.49,-477.79 2371.09,-490 2476.74,-542.43 2536.26,-505.17 2616.07,-592 2640.03,-618.07 2704.63,-850.86 2726.81,-932.7"/>
<polygon fill="grey" stroke="grey" points="2723.55,-934.04 2729.54,-942.78 2730.31,-932.21 2723.55,-934.04"/>
<text text-anchor="middle" x="2512.08" y="-595.8" font-family="Times,serif" font-size="14.00">/,/</text>
</g>
<!-- post_node&#45;&gt;post_group -->
<g id="edge53" class="edge">
<title>post_node&#45;&gt;post_group</title>
<path fill="none" stroke="grey" d="M2311.8,-420.28C2334.74,-411.36 2364.59,-399.01 2390.09,-386 2420.82,-370.32 2454.15,-349.64 2478.03,-334.13"/>
<polygon fill="grey" stroke="grey" points="2480.25,-336.86 2486.7,-328.46 2476.41,-331.01 2480.25,-336.86"/>
<text text-anchor="middle" x="2380.59" y="-397.8" font-family="Times,serif" font-size="14.00">/\)/</text>
</g>
<!-- post_node&#45;&gt;start_attribute -->
<g id="edge55" class="edge">
<title>post_node&#45;&gt;start_attribute</title>
<path fill="none" stroke="grey" d="M2287.17,-416.04C2326.24,-359.32 2447.16,-183.79 2493.11,-117.09"/>
<polygon fill="grey" stroke="grey" points="2496.04,-119 2498.83,-108.78 2490.28,-115.03 2496.04,-119"/>
<text text-anchor="middle" x="2380.59" y="-296.8" font-family="Times,serif" font-size="14.00">/{/</text>
</g>
<!-- post_node&#45;&gt;post_node -->
<g id="edge54" class="edge">
<title>post_node&#45;&gt;post_node</title>
<path fill="none" stroke="grey" d="M2255.01,-451.04C2251.18,-460.86 2257.44,-470 2273.8,-470 2284.02,-470 2290.3,-466.43 2292.63,-461.35"/>
<polygon fill="grey" stroke="grey" points="2296.13,-461.02 2292.58,-451.04 2289.13,-461.06 2296.13,-461.02"/>
<text text-anchor="middle" x="2273.8" y="-473.8" font-family="Times,serif" font-size="14.00">/\s+/</text>
</g>
</g>
</svg>
