<?xml version="1.0" encoding="UTF-8" standalone="no"?>
<!DOCTYPE svg PUBLIC "-//W3C//DTD SVG 1.1//EN"
 "http://www.w3.org/Graphics/SVG/1.1/DTD/svg11.dtd">
<!-- Generated by graphviz version 2.43.0 (0)
 -->
<!-- Title: Heawood Pages: 1 -->
<svg width="230pt" height="1001pt"
 viewBox="0.00 0.00 230.00 1001.09" xmlns="http://www.w3.org/2000/svg" xmlns:xlink="http://www.w3.org/1999/xlink">
<g id="graph0" class="graph" transform="scale(1 1) rotate(0) translate(4 997.09)">
<title>Heawood</title>
<polygon fill="white" stroke="transparent" points="-4,4 -4,-997.09 226,-997.09 226,4 -4,4"/>
<!-- 0 -->
<g id="node1" class="node">
<title>0</title>
<ellipse fill="none" stroke="black" cx="176" cy="-975.09" rx="18" ry="18"/>
<text text-anchor="middle" x="176" y="-971.39" font-family="Arial" font-size="14.00">0</text>
</g>
<!-- 1 -->
<g id="node2" class="node">
<title>1</title>
<ellipse fill="none" stroke="black" cx="107" cy="-903.09" rx="18" ry="18"/>
<text text-anchor="middle" x="107" y="-899.39" font-family="Arial" font-size="14.00">1</text>
</g>
<!-- 0&#45;&#45;1 -->
<g id="edge1" class="edge">
<title>0&#45;&#45;1</title>
<path fill="none" stroke="black" d="M163.66,-961.57C151.1,-948.83 131.75,-929.19 119.23,-916.49"/>
</g>
<!-- 5 -->
<g id="node6" class="node">
<title>5</title>
<ellipse fill="none" stroke="black" cx="176" cy="-615.09" rx="18" ry="18"/>
<text text-anchor="middle" x="176" y="-611.39" font-family="Arial" font-size="14.00">5</text>
</g>
<!-- 0&#45;&#45;5 -->
<g id="edge15" class="edge">
<title>0&#45;&#45;5</title>
<path fill="none" stroke="black" d="M176,-957.04C176,-930.38 176,-877.2 176,-832.09 176,-832.09 176,-832.09 176,-758.09 176,-712.97 176,-659.79 176,-633.13"/>
</g>
<!-- 2 -->
<g id="node3" class="node">
<title>2</title>
<ellipse fill="none" stroke="black" cx="107" cy="-831.09" rx="18" ry="18"/>
<text text-anchor="middle" x="107" y="-827.39" font-family="Arial" font-size="14.00">2</text>
</g>
<!-- 1&#45;&#45;2 -->
<g id="edge2" class="edge">
<title>1&#45;&#45;2</title>
<path fill="none" stroke="black" d="M107,-884.78C107,-873.93 107,-860 107,-849.19"/>
</g>
<!-- 3 -->
<g id="node4" class="node">
<title>3</title>
<ellipse fill="none" stroke="black" cx="84" cy="-759.09" rx="18" ry="18"/>
<text text-anchor="middle" x="84" y="-755.39" font-family="Arial" font-size="14.00">3</text>
</g>
<!-- 2&#45;&#45;3 -->
<g id="edge3" class="edge">
<title>2&#45;&#45;3</title>
<path fill="none" stroke="black" d="M101.67,-813.85C98,-802.7 93.16,-787.95 89.47,-776.72"/>
</g>
<!-- 7 -->
<g id="node8" class="node">
<title>7</title>
<ellipse fill="none" stroke="black" cx="130" cy="-471.09" rx="18" ry="18"/>
<text text-anchor="middle" x="130" y="-467.39" font-family="Arial" font-size="14.00">7</text>
</g>
<!-- 2&#45;&#45;7 -->
<g id="edge16" class="edge">
<title>2&#45;&#45;7</title>
<path fill="none" stroke="black" d="M111.43,-813.61C118.12,-787.29 130,-734.04 130,-688.09 130,-688.09 130,-688.09 130,-614.09 130,-568.97 130,-515.79 130,-489.13"/>
</g>
<!-- 4 -->
<g id="node5" class="node">
<title>4</title>
<ellipse fill="none" stroke="black" cx="84" cy="-687.09" rx="18" ry="18"/>
<text text-anchor="middle" x="84" y="-683.39" font-family="Arial" font-size="14.00">4</text>
</g>
<!-- 3&#45;&#45;4 -->
<g id="edge4" class="edge">
<title>3&#45;&#45;4</title>
<path fill="none" stroke="black" d="M84,-740.78C84,-729.93 84,-716 84,-705.19"/>
</g>
<!-- 4&#45;&#45;5 -->
<g id="edge5" class="edge">
<title>4&#45;&#45;5</title>
<path fill="none" stroke="black" d="M97.97,-675.45C115.26,-662.3 144.54,-640.02 161.9,-626.82"/>
</g>
<!-- 9 -->
<g id="node10" class="node">
<title>9</title>
<ellipse fill="none" stroke="black" cx="87" cy="-327.09" rx="18" ry="18"/>
<text text-anchor="middle" x="87" y="-323.39" font-family="Arial" font-size="14.00">9</text>
</g>
<!-- 4&#45;&#45;9 -->
<g id="edge17" class="edge">
<title>4&#45;&#45;9</title>
<path fill="none" stroke="black" d="M84,-669.04C84,-642.38 84,-589.2 84,-544.09 84,-544.09 84,-544.09 84,-470.09 84,-424.96 85.53,-371.79 86.41,-345.13"/>
</g>
<!-- 6 -->
<g id="node7" class="node">
<title>6</title>
<ellipse fill="none" stroke="black" cx="176" cy="-543.09" rx="18" ry="18"/>
<text text-anchor="middle" x="176" y="-539.39" font-family="Arial" font-size="14.00">6</text>
</g>
<!-- 5&#45;&#45;6 -->
<g id="edge6" class="edge">
<title>5&#45;&#45;6</title>
<path fill="none" stroke="black" d="M176,-596.78C176,-585.93 176,-572 176,-561.19"/>
</g>
<!-- 6&#45;&#45;7 -->
<g id="edge7" class="edge">
<title>6&#45;&#45;7</title>
<path fill="none" stroke="black" d="M166.47,-527.58C158.57,-515.57 147.41,-498.58 139.52,-486.57"/>
</g>
<!-- 11 -->
<g id="node12" class="node">
<title>11</title>
<ellipse fill="none" stroke="black" cx="87" cy="-175.34" rx="20.3" ry="20.3"/>
<text text-anchor="middle" x="87" y="-171.64" font-family="Arial" font-size="14.00">11</text>
</g>
<!-- 6&#45;&#45;11 -->
<g id="edge18" class="edge">
<title>6&#45;&#45;11</title>
<path fill="none" stroke="black" d="M176,-525.04C176,-498.38 176,-445.2 176,-400.09 176,-400.09 176,-400.09 176,-326.09 176,-268.62 126.98,-213.97 101.7,-189.61"/>
</g>
<!-- 8 -->
<g id="node9" class="node">
<title>8</title>
<ellipse fill="none" stroke="black" cx="130" cy="-399.09" rx="18" ry="18"/>
<text text-anchor="middle" x="130" y="-395.39" font-family="Arial" font-size="14.00">8</text>
</g>
<!-- 7&#45;&#45;8 -->
<g id="edge8" class="edge">
<title>7&#45;&#45;8</title>
<path fill="none" stroke="black" d="M130,-452.78C130,-441.93 130,-428 130,-417.19"/>
</g>
<!-- 8&#45;&#45;9 -->
<g id="edge9" class="edge">
<title>8&#45;&#45;9</title>
<path fill="none" stroke="black" d="M120.88,-383.24C113.58,-371.36 103.4,-354.78 96.11,-342.91"/>
</g>
<!-- 13 -->
<g id="node14" class="node">
<title>13</title>
<ellipse fill="none" stroke="black" cx="136" cy="-20.8" rx="20.6" ry="20.6"/>
<text text-anchor="middle" x="136" y="-17.1" font-family="Arial" font-size="14.00">13</text>
</g>
<!-- 8&#45;&#45;13 -->
<g id="edge19" class="edge">
<title>8&#45;&#45;13</title>
<path fill="none" stroke="black" d="M131.19,-380.71C132.93,-353.54 136,-299.33 136,-253.29 136,-253.29 136,-253.29 136,-174.34 136,-126.94 136,-71.24 136,-42.03"/>
</g>
<!-- 10 -->
<g id="node11" class="node">
<title>10</title>
<ellipse fill="none" stroke="black" cx="87" cy="-252.29" rx="20.6" ry="20.6"/>
<text text-anchor="middle" x="87" y="-248.59" font-family="Arial" font-size="14.00">10</text>
</g>
<!-- 9&#45;&#45;10 -->
<g id="edge10" class="edge">
<title>9&#45;&#45;10</title>
<path fill="none" stroke="black" d="M87,-308.83C87,-298.15 87,-284.4 87,-273.25"/>
</g>
<!-- 10&#45;&#45;1 -->
<g id="edge20" class="edge">
<title>10&#45;&#45;1</title>
<path fill="none" stroke="black" d="M71.85,-266.84C46.92,-290.7 0,-342.95 0,-398.09 0,-760.09 0,-760.09 0,-760.09 0,-820.59 62.72,-871.68 92.12,-892.31"/>
</g>
<!-- 10&#45;&#45;11 -->
<g id="edge11" class="edge">
<title>10&#45;&#45;11</title>
<path fill="none" stroke="black" d="M87,-231.2C87,-220.19 87,-206.6 87,-195.7"/>
</g>
<!-- 12 -->
<g id="node13" class="node">
<title>12</title>
<ellipse fill="none" stroke="black" cx="87" cy="-98.39" rx="20.6" ry="20.6"/>
<text text-anchor="middle" x="87" y="-94.69" font-family="Arial" font-size="14.00">12</text>
</g>
<!-- 11&#45;&#45;12 -->
<g id="edge12" class="edge">
<title>11&#45;&#45;12</title>
<path fill="none" stroke="black" d="M87,-155.04C87,-144.11 87,-130.46 87,-119.41"/>
</g>
<!-- 12&#45;&#45;3 -->
<g id="edge21" class="edge">
<title>12&#45;&#45;3</title>
<path fill="none" stroke="black" d="M76.58,-116.43C70.4,-127.21 62.84,-141.62 58,-155.19 43.36,-196.29 38,-207.66 38,-251.29 38,-616.09 38,-616.09 38,-616.09 38,-656.53 43.48,-666.96 57,-705.09 61.76,-718.52 69.24,-732.87 75.11,-743.25"/>
</g>
<!-- 12&#45;&#45;13 -->
<g id="edge13" class="edge">
<title>12&#45;&#45;13</title>
<path fill="none" stroke="black" d="M97.87,-80.62C105.94,-68.18 116.89,-51.28 124.99,-38.79"/>
</g>
<!-- 13&#45;&#45;0 -->
<g id="edge14" class="edge">
<title>13&#45;&#45;0</title>
<path fill="none" stroke="black" d="M150.59,-35.87C175.12,-61.12 222,-116.88 222,-174.34 222,-832.09 222,-832.09 222,-832.09 222,-880.29 197.72,-933.41 184.44,-958.85"/>
</g>
</g>
</svg>
