<?xml version="1.0" encoding="UTF-8" standalone="no"?>
<!DOCTYPE svg PUBLIC "-//W3C//DTD SVG 1.1//EN"
 "http://www.w3.org/Graphics/SVG/1.1/DTD/svg11.dtd">
<!-- Generated by graphviz version 2.43.0 (0)
 -->
<!-- Title: Perl Pages: 1 -->
<svg width="366pt" height="394pt"
 viewBox="0.00 0.00 366.15 393.58" xmlns="http://www.w3.org/2000/svg" xmlns:xlink="http://www.w3.org/1999/xlink">
<g id="graph0" class="graph" transform="scale(1 1) rotate(0) translate(4 389.58)">
<title>Perl</title>
<polygon fill="white" stroke="transparent" points="-4,4 -4,-389.58 362.15,-389.58 362.15,4 -4,4"/>
<text text-anchor="middle" x="179.07" y="-7.8" font-family="Times,serif" font-size="14.00">HTML label demo # 1 &#45; Using &lt; ... &gt;</text>
<!-- Carnegie -->
<g id="node1" class="node">
<title>Carnegie</title>
<ellipse fill="red" stroke="red" cx="52.65" cy="-75.65" rx="52.79" ry="52.79"/>
<text text-anchor="middle" x="52.65" y="-71.95" font-family="Times,serif" font-size="14.00">Carnegie</text>
</g>
<!-- Murrumbeena -->
<g id="node2" class="node">
<title>Murrumbeena</title>
<ellipse fill="none" stroke="green" cx="182.65" cy="-297.44" rx="84.29" ry="84.29"/>
<ellipse fill="none" stroke="green" cx="182.65" cy="-297.44" rx="88.29" ry="88.29"/>
<text text-anchor="start" x="131.15" y="-308.74" font-family="Times,serif" font-size="14.00">Murrumbeena</text>
<text text-anchor="start" x="154.65" y="-293.74" font-family="Times,serif" font-size="14.00" fill="#0000ff">Victoria</text>
<text text-anchor="start" x="150.15" y="-278.74" font-family="Times,serif" font-size="14.00">Australia</text>
</g>
<!-- Murrumbeena&#45;&gt;Carnegie -->
<g id="edge1" class="edge">
<title>Murrumbeena&#45;&gt;Carnegie</title>
<path fill="none" stroke="grey" d="M138.09,-221.1C122.22,-194.28 104.54,-164.39 89.4,-138.79"/>
<polygon fill="grey" stroke="grey" points="95.34,-135.08 79.13,-121.43 83.29,-142.21 95.34,-135.08"/>
<text text-anchor="start" x="121.65" y="-180.09" font-family="Times,serif" font-size="14.00">Bike</text>
<text text-anchor="start" x="118.65" y="-165.09" font-family="Times,serif" font-size="14.00">Train</text>
<text text-anchor="start" x="117.65" y="-150.09" font-family="Times,serif" font-size="14.00">Stroll</text>
</g>
<!-- Oakleigh -->
<g id="node3" class="node">
<title>Oakleigh</title>
<path fill="none" stroke="blue" d="M135.15,-57.65C135.15,-57.65 346.15,-57.65 346.15,-57.65 352.15,-57.65 358.15,-63.65 358.15,-69.65 358.15,-69.65 358.15,-81.65 358.15,-81.65 358.15,-87.65 352.15,-93.65 346.15,-93.65 346.15,-93.65 135.15,-93.65 135.15,-93.65 129.15,-93.65 123.15,-87.65 123.15,-81.65 123.15,-81.65 123.15,-69.65 123.15,-69.65 123.15,-63.65 129.15,-57.65 135.15,-57.65"/>
<text text-anchor="middle" x="182.65" y="-71.95" font-family="Times,serif" font-size="14.00">West Oakleigh</text>
<polyline fill="none" stroke="blue" points="242.15,-57.65 242.15,-93.65 "/>
<text text-anchor="middle" x="300.15" y="-71.95" font-family="Times,serif" font-size="14.00">East Oakleigh</text>
</g>
<!-- Murrumbeena&#45;&gt;Oakleigh -->
<g id="edge2" class="edge">
<title>Murrumbeena&#45;&gt;Oakleigh:port1</title>
<path fill="none" stroke="brown" d="M182.65,-209.03C182.65,-176.72 182.65,-139.52 182.65,-104.84"/>
<polygon fill="brown" stroke="brown" points="186.15,-104.65 182.65,-94.65 179.15,-104.65 186.15,-104.65"/>
<text text-anchor="start" x="191.65" y="-180.09" font-family="Times,serif" font-size="14.00">Meander</text>
<text text-anchor="start" x="182.65" y="-165.09" font-family="Times,serif" font-size="14.00">Promenade</text>
<text text-anchor="start" x="194.65" y="-150.09" font-family="Times,serif" font-size="14.00">Saunter</text>
</g>
<!-- Murrumbeena&#45;&gt;Oakleigh -->
<g id="edge3" class="edge">
<title>Murrumbeena&#45;&gt;Oakleigh:port2</title>
<path fill="none" stroke="green" d="M243.03,-232.74C270.13,-197.94 296.85,-152.32 300.28,-104.81"/>
<polygon fill="green" stroke="green" points="303.78,-104.77 300.65,-94.65 296.78,-104.51 303.78,-104.77"/>
<text text-anchor="start" x="292.65" y="-180.09" font-family="Times,serif" font-size="14.00">Drive</text>
<text text-anchor="start" x="298.15" y="-165.09" font-family="Times,serif" font-size="14.00">Run</text>
<text text-anchor="start" x="289.65" y="-150.09" font-family="Times,serif" font-size="14.00">Sprint</text>
</g>
</g>
</svg>
