<?xml version="1.0" encoding="UTF-8" standalone="no"?>
<!DOCTYPE svg PUBLIC "-//W3C//DTD SVG 1.1//EN"
 "http://www.w3.org/Graphics/SVG/1.1/DTD/svg11.dtd">
<!-- Generated by graphviz version 2.43.0 (0)
 -->
<!-- Title: Perl Pages: 1 -->
<svg width="409pt" height="269pt"
 viewBox="0.00 0.00 409.00 269.00" xmlns="http://www.w3.org/2000/svg" xmlns:xlink="http://www.w3.org/1999/xlink">
<g id="graph0" class="graph" transform="scale(1 1) rotate(0) translate(4 265)">
<title>Perl</title>
<polygon fill="white" stroke="transparent" points="-4,4 -4,-265 405,-265 405,4 -4,4"/>
<text text-anchor="middle" x="200.5" y="-7.8" font-family="Times,serif" font-size="14.00">Macro demo 4 &#45; Linked cluster sub&#45;graphs</text>
<g id="clust1" class="cluster">
<title>cluster 1</title>
<polygon fill="none" stroke="black" points="8,-103 8,-253 176,-253 176,-103 8,-103"/>
<text text-anchor="middle" x="92" y="-237.8" font-family="Times,serif" font-size="14.00">cluster 1</text>
</g>
<g id="clust2" class="cluster">
<title>cluster 2</title>
<polygon fill="none" stroke="black" points="191,-31 191,-178 393,-178 393,-31 191,-31"/>
<text text-anchor="middle" x="292" y="-162.8" font-family="Times,serif" font-size="14.00">cluster 2</text>
</g>
<!-- Chadstone -->
<g id="node1" class="node">
<title>Chadstone</title>
<polygon fill="none" stroke="magenta" points="164.09,-204 129.54,-222 60.46,-222 25.91,-204 60.46,-186 129.54,-186 164.09,-204"/>
<text text-anchor="middle" x="95" y="-200.3" font-family="Times,serif" font-size="14.00">Chadstone</text>
</g>
<!-- Waverley -->
<g id="node2" class="node">
<title>Waverley</title>
<polygon fill="none" stroke="orange" points="92,-147 15.92,-129 92,-111 168.08,-129 92,-147"/>
<text text-anchor="middle" x="92" y="-125.3" font-family="Times,serif" font-size="14.00">Waverley</text>
</g>
<!-- Chadstone&#45;&gt;Waverley -->
<g id="edge1" class="edge">
<title>Chadstone&#45;&gt;Waverley</title>
<path fill="none" stroke="grey" d="M94.29,-185.7C93.94,-177.18 93.51,-166.72 93.12,-157.17"/>
<polygon fill="grey" stroke="grey" points="96.6,-156.77 92.7,-146.92 89.61,-157.06 96.6,-156.77"/>
</g>
<!-- Notting Hill -->
<g id="node4" class="node">
<title>Notting Hill</title>
<polygon fill="none" stroke="orange" points="292,-75 199.33,-57 292,-39 384.67,-57 292,-75"/>
<text text-anchor="middle" x="292" y="-53.3" font-family="Times,serif" font-size="14.00">Notting Hill</text>
</g>
<!-- Chadstone&#45;&gt;Notting Hill -->
<g id="edge3" class="edge">
<title>Chadstone&#45;&gt;Notting Hill</title>
<path fill="none" stroke="grey" d="M145.91,-194.38C157.03,-190.71 168.11,-185.47 177,-178 205.61,-153.96 189.38,-130.2 215,-103 226.04,-91.28 240.82,-81.65 254.48,-74.36"/>
<polygon fill="grey" stroke="grey" points="256.36,-77.33 263.69,-69.68 253.19,-71.08 256.36,-77.33"/>
</g>
<!-- Hughesdale -->
<g id="node3" class="node">
<title>Hughesdale</title>
<polygon fill="none" stroke="magenta" points="375.6,-129 337.8,-147 262.2,-147 224.4,-129 262.2,-111 337.8,-111 375.6,-129"/>
<text text-anchor="middle" x="300" y="-125.3" font-family="Times,serif" font-size="14.00">Hughesdale</text>
</g>
<!-- Hughesdale&#45;&gt;Notting Hill -->
<g id="edge2" class="edge">
<title>Hughesdale&#45;&gt;Notting Hill</title>
<path fill="none" stroke="grey" d="M298.02,-110.7C297.14,-102.98 296.08,-93.71 295.1,-85.11"/>
<polygon fill="grey" stroke="grey" points="298.57,-84.64 293.95,-75.1 291.61,-85.44 298.57,-84.64"/>
</g>
</g>
</svg>
