<?xml version="1.0" encoding="UTF-8" standalone="no"?>
<!DOCTYPE svg PUBLIC "-//W3C//DTD SVG 1.1//EN"
 "http://www.w3.org/Graphics/SVG/1.1/DTD/svg11.dtd">
<!-- Generated by graphviz version 2.43.0 (0)
 -->
<!-- Title: Perl Pages: 1 -->
<svg width="368pt" height="211pt"
 viewBox="0.00 0.00 368.09 211.00" xmlns="http://www.w3.org/2000/svg" xmlns:xlink="http://www.w3.org/1999/xlink">
<g id="graph0" class="graph" transform="scale(1 1) rotate(0) translate(4 207)">
<title>Perl</title>
<polygon fill="white" stroke="transparent" points="-4,4 -4,-207 364.09,-207 364.09,4 -4,4"/>
<text text-anchor="middle" x="180.04" y="-7.8" font-family="Times,serif" font-size="14.00">Macro demo 2 &#45; Linked non&#45;cluster sub&#45;graphs</text>
<!-- Chadstone -->
<g id="node1" class="node">
<title>Chadstone</title>
<polygon fill="none" stroke="magenta" points="197.38,-185 162.84,-203 93.75,-203 59.2,-185 93.75,-167 162.84,-167 197.38,-185"/>
<text text-anchor="middle" x="128.29" y="-181.3" font-family="Times,serif" font-size="14.00">Chadstone</text>
</g>
<!-- Waverley -->
<g id="node2" class="node">
<title>Waverley</title>
<polygon fill="none" stroke="orange" points="76.29,-131 0.21,-113 76.29,-95 152.37,-113 76.29,-131"/>
<text text-anchor="middle" x="76.29" y="-109.3" font-family="Times,serif" font-size="14.00">Waverley</text>
</g>
<!-- Chadstone&#45;&gt;Waverley -->
<g id="edge1" class="edge">
<title>Chadstone&#45;&gt;Waverley</title>
<path fill="none" stroke="grey" d="M115.44,-166.7C108.74,-157.68 100.46,-146.53 93.24,-136.82"/>
<polygon fill="grey" stroke="grey" points="96.01,-134.68 87.24,-128.74 90.39,-138.85 96.01,-134.68"/>
</g>
<!-- Notting Hill -->
<g id="node4" class="node">
<title>Notting Hill</title>
<polygon fill="none" stroke="orange" points="232.29,-59 139.62,-41 232.29,-23 324.96,-41 232.29,-59"/>
<text text-anchor="middle" x="232.29" y="-37.3" font-family="Times,serif" font-size="14.00">Notting Hill</text>
</g>
<!-- Chadstone&#45;&gt;Notting Hill -->
<g id="edge3" class="edge">
<title>Chadstone&#45;&gt;Notting Hill</title>
<path fill="none" stroke="grey" d="M140.83,-166.87C159.44,-141.47 194.39,-93.75 215.28,-65.22"/>
<polygon fill="grey" stroke="grey" points="218.2,-67.17 221.28,-57.03 212.55,-63.03 218.2,-67.17"/>
</g>
<!-- Hughesdale -->
<g id="node3" class="node">
<title>Hughesdale</title>
<polygon fill="none" stroke="magenta" points="359.89,-113 322.09,-131 246.49,-131 208.69,-113 246.49,-95 322.09,-95 359.89,-113"/>
<text text-anchor="middle" x="284.29" y="-109.3" font-family="Times,serif" font-size="14.00">Hughesdale</text>
</g>
<!-- Hughesdale&#45;&gt;Notting Hill -->
<g id="edge2" class="edge">
<title>Hughesdale&#45;&gt;Notting Hill</title>
<path fill="none" stroke="grey" d="M271.44,-94.7C264.9,-85.89 256.85,-75.06 249.76,-65.52"/>
<polygon fill="grey" stroke="grey" points="252.36,-63.14 243.58,-57.2 246.74,-67.32 252.36,-63.14"/>
</g>
</g>
</svg>
