<?xml version="1.0" encoding="UTF-8" standalone="no"?>
<!DOCTYPE svg PUBLIC "-//W3C//DTD SVG 1.1//EN"
 "http://www.w3.org/Graphics/SVG/1.1/DTD/svg11.dtd">
<!-- Generated by graphviz version 2.43.0 (0)
 -->
<!-- Title: Perl Pages: 1 -->
<svg width="364pt" height="139pt"
 viewBox="0.00 0.00 364.12 139.00" xmlns="http://www.w3.org/2000/svg" xmlns:xlink="http://www.w3.org/1999/xlink">
<g id="graph0" class="graph" transform="scale(1 1) rotate(0) translate(4 135)">
<title>Perl</title>
<polygon fill="white" stroke="transparent" points="-4,4 -4,-135 360.12,-135 360.12,4 -4,4"/>
<text text-anchor="middle" x="178.06" y="-7.8" font-family="Times,serif" font-size="14.00">Macro demo 1 &#45; Non&#45;cluster sub&#45;graphs</text>
<!-- Chadstone -->
<g id="node1" class="node">
<title>Chadstone</title>
<polygon fill="none" stroke="magenta" points="145.38,-113 110.84,-131 41.75,-131 7.2,-113 41.75,-95 110.84,-95 145.38,-113"/>
<text text-anchor="middle" x="76.29" y="-109.3" font-family="Times,serif" font-size="14.00">Chadstone</text>
</g>
<!-- Waverley -->
<g id="node2" class="node">
<title>Waverley</title>
<polygon fill="none" stroke="orange" points="76.29,-59 0.21,-41 76.29,-23 152.37,-41 76.29,-59"/>
<text text-anchor="middle" x="76.29" y="-37.3" font-family="Times,serif" font-size="14.00">Waverley</text>
</g>
<!-- Chadstone&#45;&gt;Waverley -->
<g id="edge1" class="edge">
<title>Chadstone&#45;&gt;Waverley</title>
<path fill="none" stroke="grey" d="M76.29,-94.7C76.29,-86.98 76.29,-77.71 76.29,-69.11"/>
<polygon fill="grey" stroke="grey" points="79.79,-69.1 76.29,-59.1 72.79,-69.1 79.79,-69.1"/>
</g>
<!-- Hughesdale -->
<g id="node3" class="node">
<title>Hughesdale</title>
<polygon fill="none" stroke="magenta" points="338.89,-113 301.09,-131 225.49,-131 187.69,-113 225.49,-95 301.09,-95 338.89,-113"/>
<text text-anchor="middle" x="263.29" y="-109.3" font-family="Times,serif" font-size="14.00">Hughesdale</text>
</g>
<!-- Notting Hill -->
<g id="node4" class="node">
<title>Notting Hill</title>
<polygon fill="none" stroke="orange" points="263.29,-59 170.62,-41 263.29,-23 355.96,-41 263.29,-59"/>
<text text-anchor="middle" x="263.29" y="-37.3" font-family="Times,serif" font-size="14.00">Notting Hill</text>
</g>
<!-- Hughesdale&#45;&gt;Notting Hill -->
<g id="edge2" class="edge">
<title>Hughesdale&#45;&gt;Notting Hill</title>
<path fill="none" stroke="grey" d="M263.29,-94.7C263.29,-86.98 263.29,-77.71 263.29,-69.11"/>
<polygon fill="grey" stroke="grey" points="266.79,-69.1 263.29,-59.1 259.79,-69.1 266.79,-69.1"/>
</g>
</g>
</svg>
