<?xml version="1.0" encoding="UTF-8" standalone="no"?>
<!DOCTYPE svg PUBLIC "-//W3C//DTD SVG 1.1//EN"
 "http://www.w3.org/Graphics/SVG/1.1/DTD/svg11.dtd">
<!-- Generated by graphviz version 2.43.0 (0)
 -->
<!-- Title: Perl Pages: 1 -->
<svg width="278pt" height="79pt"
 viewBox="0.00 0.00 278.00 79.14" xmlns="http://www.w3.org/2000/svg" xmlns:xlink="http://www.w3.org/1999/xlink">
<g id="graph0" class="graph" transform="scale(1 1) rotate(0) translate(4 75.14)">
<title>Perl</title>
<polygon fill="white" stroke="transparent" points="-4,4 -4,-75.14 274,-75.14 274,4 -4,4"/>
<!-- foo -->
<g id="node1" class="node">
<title>foo</title>
<ellipse fill="none" stroke="green" cx="27" cy="-20.14" rx="27" ry="18"/>
<text text-anchor="middle" x="27" y="-16.44" font-family="Times,serif" font-size="14.00">foo</text>
</g>
<!-- foo&#45;&gt;foo -->
<g id="edge2" class="edge">
<title>foo&#45;&gt;foo</title>
<path fill="none" stroke="grey" d="M17.43,-37.18C15.48,-47 18.67,-56.14 27,-56.14 32.21,-56.14 35.41,-52.57 36.6,-47.49"/>
<polygon fill="grey" stroke="grey" points="40.1,-47.17 36.57,-37.18 33.1,-47.19 40.1,-47.17"/>
<text text-anchor="middle" x="27" y="-59.94" font-family="Times,serif" font-size="14.00">/./</text>
</g>
<!-- bar -->
<g id="node2" class="node">
<title>bar</title>
<ellipse fill="none" stroke="green" cx="136" cy="-20.14" rx="27" ry="18"/>
<text text-anchor="middle" x="136" y="-16.44" font-family="Times,serif" font-size="14.00">bar</text>
</g>
<!-- foo&#45;&gt;bar -->
<g id="edge1" class="edge">
<title>foo&#45;&gt;bar</title>
<path fill="none" stroke="grey" d="M54.18,-20.14C67.52,-20.14 83.96,-20.14 98.52,-20.14"/>
<polygon fill="grey" stroke="grey" points="98.72,-23.64 108.72,-20.14 98.72,-16.64 98.72,-23.64"/>
<text text-anchor="middle" x="81.5" y="-23.94" font-family="Times,serif" font-size="14.00">/b/</text>
</g>
<!-- bar&#45;&gt;foo -->
<g id="edge3" class="edge">
<title>bar&#45;&gt;foo</title>
<path fill="none" stroke="grey" d="M114.09,-9.05C106.97,-5.83 98.82,-2.76 91,-1.14 79.98,1.14 68.11,-1.15 57.68,-4.83"/>
<polygon fill="grey" stroke="grey" points="56.14,-1.67 48.19,-8.68 58.77,-8.16 56.14,-1.67"/>
<text text-anchor="middle" x="81.5" y="-4.94" font-family="Times,serif" font-size="14.00">/a/</text>
</g>
<!-- bar&#45;&gt;bar -->
<g id="edge4" class="edge">
<title>bar&#45;&gt;bar</title>
<path fill="none" stroke="grey" d="M126.79,-37.18C124.91,-47 127.98,-56.14 136,-56.14 141.01,-56.14 144.09,-52.57 145.24,-47.49"/>
<polygon fill="grey" stroke="grey" points="148.74,-47.17 145.21,-37.18 141.74,-47.19 148.74,-47.17"/>
<text text-anchor="middle" x="136" y="-59.94" font-family="Times,serif" font-size="14.00">/b/</text>
</g>
<!-- baz -->
<g id="node3" class="node">
<title>baz</title>
<ellipse fill="none" stroke="green" cx="243" cy="-20.14" rx="27" ry="18"/>
<text text-anchor="middle" x="243" y="-16.44" font-family="Times,serif" font-size="14.00">baz</text>
</g>
<!-- bar&#45;&gt;baz -->
<g id="edge5" class="edge">
<title>bar&#45;&gt;baz</title>
<path fill="none" stroke="grey" d="M163.23,-20.14C176,-20.14 191.58,-20.14 205.5,-20.14"/>
<polygon fill="grey" stroke="grey" points="205.75,-23.64 215.75,-20.14 205.75,-16.64 205.75,-23.64"/>
<text text-anchor="middle" x="189.5" y="-23.94" font-family="Times,serif" font-size="14.00">/c/</text>
</g>
<!-- baz&#45;&gt;baz -->
<g id="edge6" class="edge">
<title>baz&#45;&gt;baz</title>
<path fill="none" stroke="grey" d="M233.79,-37.18C231.91,-47 234.98,-56.14 243,-56.14 248.01,-56.14 251.09,-52.57 252.24,-47.49"/>
<polygon fill="grey" stroke="grey" points="255.74,-47.17 252.21,-37.18 248.74,-47.19 255.74,-47.17"/>
<text text-anchor="middle" x="243" y="-59.94" font-family="Times,serif" font-size="14.00">/./</text>
</g>
</g>
</svg>
