<?xml version="1.0" encoding="UTF-8" standalone="no"?>
<!DOCTYPE svg PUBLIC "-//W3C//DTD SVG 1.1//EN"
 "http://www.w3.org/Graphics/SVG/1.1/DTD/svg11.dtd">
<!-- Generated by graphviz version 2.43.0 (0)
 -->
<!-- Title: Perl Pages: 1 -->
<svg width="236pt" height="312pt"
 viewBox="0.00 0.00 235.64 311.98" xmlns="http://www.w3.org/2000/svg" xmlns:xlink="http://www.w3.org/1999/xlink">
<g id="graph0" class="graph" transform="scale(1 1) rotate(0) translate(4 307.98)">
<title>Perl</title>
<polygon fill="white" stroke="transparent" points="-4,4 -4,-307.98 231.64,-307.98 231.64,4 -4,4"/>
<!-- Carnegie -->
<g id="node1" class="node">
<title>Carnegie</title>
<ellipse fill="red" stroke="red" cx="52.65" cy="-52.65" rx="52.79" ry="52.79"/>
<text text-anchor="middle" x="52.65" y="-48.95" font-family="Times,serif" font-size="14.00">Carnegie</text>
</g>
<!-- Murrumbeena -->
<g id="node2" class="node">
<title>Murrumbeena</title>
<ellipse fill="none" stroke="green" cx="113.65" cy="-222.63" rx="77.19" ry="77.19"/>
<ellipse fill="none" stroke="green" cx="113.65" cy="-222.63" rx="81.19" ry="81.19"/>
<text text-anchor="middle" x="113.65" y="-218.93" font-family="Times,serif" font-size="14.00">Murrumbeena</text>
</g>
<!-- Murrumbeena&#45;&gt;Carnegie -->
<g id="edge1" class="edge">
<title>Murrumbeena&#45;&gt;Carnegie</title>
<path fill="none" stroke="grey" d="M86.18,-145.99C83.2,-137.78 80.18,-129.46 77.23,-121.35"/>
<polygon fill="grey" stroke="grey" points="83.75,-118.8 70.35,-102.39 70.59,-123.58 83.75,-118.8"/>
</g>
<!-- Oakleigh -->
<g id="node3" class="node">
<title>Oakleigh</title>
<ellipse fill="none" stroke="blue" cx="175.65" cy="-52.65" rx="51.99" ry="18"/>
<text text-anchor="middle" x="175.65" y="-48.95" font-family="Times,serif" font-size="14.00">Oakleigh</text>
</g>
<!-- Murrumbeena&#45;&gt;Oakleigh -->
<g id="edge2" class="edge">
<title>Murrumbeena&#45;&gt;Oakleigh</title>
<path fill="none" stroke="brown" d="M141.56,-145.99C146.21,-133.4 150.95,-120.55 155.37,-108.59"/>
<polygon fill="brown" stroke="brown" points="168.61,-113.15 169.32,-70.77 142.34,-103.45 168.61,-113.15"/>
</g>
</g>
</svg>
