<?xml version="1.0" encoding="UTF-8" standalone="no"?>
<!DOCTYPE svg PUBLIC "-//W3C//DTD SVG 1.1//EN"
 "http://www.w3.org/Graphics/SVG/1.1/DTD/svg11.dtd">
<!-- Generated by graphviz version 2.43.0 (0)
 -->
<!-- Title: Perl Pages: 1 -->
<svg width="364pt" height="139pt"
 viewBox="0.00 0.00 363.69 139.00" xmlns="http://www.w3.org/2000/svg" xmlns:xlink="http://www.w3.org/1999/xlink">
<g id="graph0" class="graph" transform="scale(1 1) rotate(0) translate(4 135)">
<title>Perl</title>
<polygon fill="white" stroke="transparent" points="-4,4 -4,-135 359.69,-135 359.69,4 -4,4"/>
<text text-anchor="middle" x="177.85" y="-7.8" font-family="Times,serif" font-size="14.00">Named and unnamed subgraphs</text>
<!-- Chadstone -->
<g id="node1" class="node">
<title>Chadstone</title>
<polygon fill="none" stroke="magenta" points="145.38,-113 110.84,-131 41.75,-131 7.2,-113 41.75,-95 110.84,-95 145.38,-113"/>
<text text-anchor="middle" x="76.29" y="-109.3" font-family="Times,serif" font-size="14.00">Chadstone</text>
</g>
<!-- Waverley -->
<g id="node2" class="node">
<title>Waverley</title>
<polygon fill="none" stroke="orange" points="76.29,-59 0.21,-41 76.29,-23 152.37,-41 76.29,-59"/>
<text text-anchor="middle" x="76.29" y="-37.3" font-family="Times,serif" font-size="14.00">Waverley</text>
</g>
<!-- Chadstone&#45;&gt;Waverley -->
<g id="edge1" class="edge">
<title>Chadstone&#45;&gt;Waverley</title>
<path fill="none" stroke="grey" d="M76.29,-94.7C76.29,-86.98 76.29,-77.71 76.29,-69.11"/>
<polygon fill="grey" stroke="grey" points="79.79,-69.1 76.29,-59.1 72.79,-69.1 79.79,-69.1"/>
</g>
<!-- Glen Waverley -->
<g id="node3" class="node">
<title>Glen Waverley</title>
<polygon fill="none" stroke="#0000cd" points="355.6,-118.56 259.29,-131 162.98,-118.56 199.77,-98.44 318.81,-98.44 355.6,-118.56"/>
<text text-anchor="middle" x="259.29" y="-109.3" font-family="Times,serif" font-size="14.00">Glen Waverley</text>
</g>
<!-- Mount Waverley -->
<g id="node4" class="node">
<title>Mount Waverley</title>
<polygon fill="none" stroke="darkslategrey" points="326.29,-59 192.29,-59 192.29,-23 326.29,-23 326.29,-59"/>
<text text-anchor="middle" x="259.29" y="-37.3" font-family="Times,serif" font-size="14.00">Mount Waverley</text>
</g>
<!-- Glen Waverley&#45;&gt;Mount Waverley -->
<g id="edge2" class="edge">
<title>Glen Waverley&#45;&gt;Mount Waverley</title>
<path fill="none" stroke="grey" d="M259.29,-98.17C259.29,-89.92 259.29,-79.15 259.29,-69.26"/>
<polygon fill="grey" stroke="grey" points="262.79,-69.02 259.29,-59.02 255.79,-69.02 262.79,-69.02"/>
</g>
</g>
</svg>
